<svg width="30" height="30" viewBox="0 0 30 30" fill="none" xmlns="http://www.w3.org/2000/svg">
<path fill-rule="evenodd" clip-rule="evenodd" d="M20.7785 8.29615C20.8818 8.19294 20.9638 8.07039 21.0198 7.9355C21.0758 7.80061 21.1046 7.65601 21.1047 7.50997C21.1048 7.36392 21.0761 7.21929 21.0203 7.08433C20.9645 6.94936 20.8827 6.82671 20.7795 6.72338C20.6763 6.62005 20.5537 6.53806 20.4188 6.48208C20.2839 6.42611 20.1393 6.39726 19.9933 6.39717C19.8472 6.39708 19.7026 6.42575 19.5676 6.48156C19.4327 6.53737 19.31 6.61921 19.2067 6.72242L12.5 13.4291L5.79517 6.72242C5.58648 6.51373 5.30344 6.39648 5.00831 6.39648C4.71317 6.39648 4.43013 6.51373 4.22144 6.72242C4.01275 6.93111 3.89551 7.21415 3.89551 7.50928C3.89551 7.80441 4.01275 8.08746 4.22144 8.29615L10.9282 15.0009L4.22144 21.7057C4.11811 21.8091 4.03614 21.9318 3.98021 22.0668C3.92429 22.2018 3.89551 22.3465 3.89551 22.4926C3.89551 22.6388 3.92429 22.7835 3.98021 22.9185C4.03614 23.0535 4.11811 23.1761 4.22144 23.2795C4.43013 23.4882 4.71317 23.6054 5.00831 23.6054C5.15444 23.6054 5.29914 23.5766 5.43415 23.5207C5.56917 23.4648 5.69184 23.3828 5.79517 23.2795L12.5 16.5727L19.2067 23.2795C19.4154 23.4879 19.6983 23.6049 19.9933 23.6047C20.2882 23.6045 20.571 23.4872 20.7795 23.2785C20.9879 23.0698 21.1049 22.7869 21.1047 22.4919C21.1045 22.197 20.9872 21.9142 20.7785 21.7057L14.0718 15.0009L20.7785 8.29615Z" fill="#02F6AD"/>
</svg>
