<svg width="38" height="38" viewBox="0 0 38 38" fill="none" xmlns="http://www.w3.org/2000/svg">
<path fill-rule="evenodd" clip-rule="evenodd" d="M15.1678 25.8418C15.1146 25.7918 15.0724 25.7324 15.0436 25.667C15.0148 25.6016 15 25.5315 15 25.4606C15 25.3898 15.0148 25.3197 15.0436 25.2543C15.0724 25.1889 15.1146 25.1295 15.1678 25.0795L21.6199 18.9999L15.1678 12.9203C15.0606 12.8192 15.0003 12.6821 15.0003 12.5391C15.0003 12.3961 15.0606 12.259 15.1678 12.1579C15.2751 12.0568 15.4206 12 15.5723 12C15.724 12 15.8695 12.0568 15.9768 12.1579L22.8322 18.6187C22.8854 18.6687 22.9276 18.7281 22.9564 18.7935C22.9852 18.8589 23 18.929 23 18.9999C23 19.0707 22.9852 19.1408 22.9564 19.2062C22.9276 19.2716 22.8854 19.331 22.8322 19.381L15.9768 25.8418C15.9237 25.892 15.8607 25.9317 15.7913 25.9589C15.7218 25.986 15.6474 26 15.5723 26C15.4972 26 15.4228 25.986 15.3533 25.9589C15.2839 25.9317 15.2209 25.892 15.1678 25.8418Z" fill="#02F6AD"/>
<rect x="37.5" y="37.5" width="37" height="37" rx="18.5" transform="rotate(180 37.5 37.5)" stroke="#02F6AD"/>
</svg>
