<svg width="25" height="20" viewBox="0 0 25 20" fill="none" xmlns="http://www.w3.org/2000/svg">
<path fill-rule="evenodd" clip-rule="evenodd" d="M5.14514 1.3639C5.14514 1.3639 5.60279 0.90625 6.25 0.90625H18.75C18.75 0.90625 19.3972 0.90625 19.8549 1.3639C19.8549 1.3639 20.3125 1.82154 20.3125 2.46875V7.93748C20.3125 7.93748 20.3125 9.49856 19.7127 10.9398C19.7127 10.9398 19.1128 12.381 18.0051 13.481C18.0051 13.481 16.8975 14.581 15.4521 15.1709C15.4521 15.1709 14.0068 15.7608 12.4453 15.75C12.4453 15.75 10.8583 15.738 9.41143 15.105C9.41143 15.105 8.01917 14.4958 6.94711 13.3978C6.94711 13.3978 5.87896 12.3038 5.29306 10.8931C5.29306 10.8931 4.6875 9.43503 4.6875 7.84961V2.46875C4.6875 2.46875 4.6875 1.82154 5.14514 1.3639ZM6.25 2.46875V7.84961C6.25 7.84961 6.25 10.4472 8.06509 12.3063C8.06509 12.3063 9.8829 14.1681 12.4571 14.1875C12.4571 14.1875 13.7054 14.1962 14.8617 13.7243C14.8617 13.7243 16.018 13.2524 16.9041 12.3723C16.9041 12.3723 17.7902 11.4923 18.2701 10.3394C18.2701 10.3394 18.75 9.18638 18.75 7.93752V2.46875L6.25 2.46875Z" fill="white"/>
<path d="M9.375 19.6562H15.625C16.0565 19.6562 16.4062 19.3065 16.4062 18.875C16.4062 18.4435 16.0565 18.0938 15.625 18.0938H9.375C8.94353 18.0938 8.59375 18.4435 8.59375 18.875C8.59375 19.3065 8.94353 19.6562 9.375 19.6562Z" fill="white"/>
<path d="M11.7187 14.9688V18.875C11.7187 19.3065 12.0685 19.6562 12.5 19.6562C12.9315 19.6562 13.2812 19.3065 13.2812 18.875V14.9688C13.2812 14.5373 12.9315 14.1875 12.5 14.1875C12.0685 14.1875 11.7187 14.5373 11.7187 14.9688Z" fill="white"/>
<path d="M22.6562 3.25H19.5312C19.0998 3.25 18.75 3.59978 18.75 4.03125C18.75 4.46272 19.0998 4.8125 19.5312 4.8125H22.6562V6.375C22.6562 7.34581 21.9698 8.03228 21.9698 8.03228C21.2833 8.71875 20.3125 8.71875 20.3125 8.71875H19.3555C18.924 8.71875 18.5742 9.06853 18.5742 9.5C18.5742 9.93147 18.924 10.2812 19.3555 10.2812H20.3125C21.9305 10.2812 23.0746 9.13714 23.0746 9.13714C24.2187 7.99302 24.2187 6.375 24.2187 6.375V4.8125C24.2187 4.16529 23.7611 3.70765 23.7611 3.70765C23.3035 3.25 22.6562 3.25 22.6562 3.25Z" fill="white"/>
<path d="M2.33398 4.8125H5.45898C5.89046 4.8125 6.24023 4.46272 6.24023 4.03125C6.24023 3.59978 5.89046 3.25 5.45898 3.25H2.33398C1.68678 3.25 1.22913 3.70765 1.22913 3.70765C0.771484 4.16529 0.771484 4.8125 0.771484 4.8125V6.375C0.771484 7.99302 1.9156 9.13714 1.9156 9.13714C3.05971 10.2812 4.67773 10.2812 4.67773 10.2812H5.66406C6.09554 10.2812 6.44531 9.93147 6.44531 9.5C6.44531 9.06853 6.09554 8.71875 5.66406 8.71875H4.67773C3.70692 8.71875 3.02045 8.03228 3.02045 8.03228C2.33398 7.34581 2.33398 6.375 2.33398 6.375V4.8125Z" fill="white"/>
</svg>
