<svg width="25" height="17" viewBox="0 0 25 17" fill="none" xmlns="http://www.w3.org/2000/svg">
<path fill-rule="evenodd" clip-rule="evenodd" d="M8.59375 0.875C8.59375 0.875 11.0208 0.875 12.737 2.65982C12.737 2.65982 14.4531 4.44464 14.4531 6.96875C14.4531 6.96875 14.4531 9.49286 12.737 11.2777C12.737 11.2777 11.0208 13.0625 8.59375 13.0625C8.59375 13.0625 6.16672 13.0625 4.45055 11.2777C4.45055 11.2777 2.73438 9.49287 2.73438 6.96875C2.73438 6.96875 2.73438 4.44464 4.45055 2.65982C4.45055 2.65982 6.16672 0.875 8.59375 0.875ZM8.59375 2.5C8.59375 2.5 6.81393 2.5 5.5554 3.80887C5.5554 3.80887 4.29687 5.11773 4.29688 6.96875C4.29688 6.96875 4.29687 8.81977 5.5554 10.1286C5.5554 10.1286 6.81393 11.4375 8.59375 11.4375C8.59375 11.4375 10.3736 11.4375 11.6321 10.1286C11.6321 10.1286 12.8906 8.81977 12.8906 6.96875C12.8906 6.96875 12.8906 5.11773 11.6321 3.80887C11.6321 3.80887 10.3736 2.5 8.59375 2.5Z" fill="#02F6AD"/>
<path d="M19.5911 10.1286C18.3325 11.4375 16.5527 11.4375 16.5527 11.4375C16.1213 11.4375 15.7715 11.8013 15.7715 12.25C15.7715 12.6987 16.1213 13.0625 16.5527 13.0625C18.9798 13.0625 20.6959 11.2777 20.6959 11.2777C22.4121 9.49286 22.4121 6.96875 22.4121 6.96875C22.4121 4.44464 20.6959 2.65982 20.6959 2.65982C18.9798 0.875 16.5527 0.875 16.5527 0.875C15.747 0.877547 14.9717 1.09617 14.9717 1.09617C14.6313 1.19219 14.3945 1.51365 14.3945 1.88047L14.3946 1.88882C14.3952 1.95785 14.4044 2.02652 14.4218 2.09315C14.5141 2.44718 14.8231 2.69297 15.1758 2.69297L15.1838 2.69293C15.2502 2.69222 15.3162 2.68271 15.3803 2.66464C15.9572 2.50195 16.5527 2.5 16.5527 2.5C18.3326 2.5 19.5911 3.80887 19.5911 3.80887C20.8496 5.11773 20.8496 6.96875 20.8496 6.96875C20.8496 8.81977 19.5911 10.1286 19.5911 10.1286Z" fill="#02F6AD"/>
<path d="M12.1953 13.977C13.8886 14.8918 14.9858 16.5156 14.9858 16.5156C15.1321 16.7321 15.3706 16.8609 15.625 16.8609C15.6337 16.8609 15.6425 16.8608 15.6512 16.8604C15.803 16.8552 15.9499 16.804 16.0742 16.7132C16.2437 16.5893 16.359 16.4004 16.3946 16.1881C16.4024 16.142 16.4062 16.0952 16.4062 16.0484L16.4061 16.0309C16.4027 15.8697 16.3533 15.7132 16.2642 15.5812C14.9476 13.6328 12.9156 12.5349 12.9156 12.5349C10.8836 11.4371 8.59375 11.4375 8.59375 11.4375C6.3039 11.4375 4.27188 12.5349 4.27188 12.5349C2.23997 13.6327 0.923435 15.581 0.923435 15.581C0.830994 15.7178 0.78125 15.8812 0.78125 16.0484C0.78125 16.0672 0.781877 16.086 0.78313 16.1047C0.799447 16.3489 0.920745 16.5724 1.11331 16.7132C1.24486 16.8093 1.40172 16.8609 1.5625 16.8609L1.56484 16.8609C1.6091 16.8608 1.65326 16.8567 1.69686 16.8488C1.90098 16.8117 2.08257 16.6919 2.2017 16.5156C3.29885 14.8918 4.99219 13.977 4.99219 13.977C6.68554 13.0621 8.59375 13.0625 8.59375 13.0625C10.502 13.0625 12.1953 13.977 12.1953 13.977Z" fill="#02F6AD"/>
<path d="M22.9441 16.5146C23.0904 16.7313 23.3294 16.8609 23.584 16.8609C23.5926 16.8609 23.6012 16.8608 23.6098 16.8605C23.7615 16.8553 23.9085 16.8042 24.0328 16.7135C24.2412 16.5614 24.3652 16.3132 24.3652 16.0484C24.3652 16.0395 24.3651 16.0306 24.3648 16.0216C24.3598 15.8638 24.3107 15.7109 24.2234 15.5816C24.2229 15.5809 24.2224 15.5801 24.2224 15.5801C22.9068 13.6316 20.8751 12.534 20.8751 12.534C18.8428 11.4361 16.5527 11.4375 16.5527 11.4375C16.3455 11.4376 16.1464 11.5234 16 11.6758C15.8537 11.8282 15.7715 12.0347 15.7715 12.25C15.7715 12.6987 16.1213 13.0625 16.5527 13.0625C18.461 13.0613 20.1548 13.9761 20.1548 13.9761C21.8479 14.8907 22.9441 16.5146 22.9441 16.5146Z" fill="#02F6AD"/>
</svg>
