<svg width="19" height="19" viewBox="0 0 19 19" fill="none" xmlns="http://www.w3.org/2000/svg">
<path fill-rule="evenodd" clip-rule="evenodd" d="M0.90625 7.9375V1.6875C0.90625 1.25603 1.25603 0.90625 1.6875 0.90625H7.9375C8.36897 0.90625 8.71875 1.25603 8.71875 1.6875V7.9375C8.71875 8.36897 8.36897 8.71875 7.9375 8.71875H1.6875C1.25603 8.71875 0.90625 8.36897 0.90625 7.9375ZM7.15625 7.15625H2.46875V2.46875H7.15625V7.15625Z" fill="black"/>
<path fill-rule="evenodd" clip-rule="evenodd" d="M10.2812 7.9375V1.6875C10.2812 1.25603 10.631 0.90625 11.0625 0.90625H17.3125C17.744 0.90625 18.0938 1.25603 18.0938 1.6875V7.9375C18.0938 8.36897 17.744 8.71875 17.3125 8.71875H11.0625C10.631 8.71875 10.2812 8.36897 10.2812 7.9375ZM16.5312 7.15625H11.8438V2.46875H16.5312V7.15625Z" fill="black"/>
<path fill-rule="evenodd" clip-rule="evenodd" d="M0.90625 17.3125V11.0625C0.90625 10.631 1.25603 10.2812 1.6875 10.2812H7.9375C8.36897 10.2812 8.71875 10.631 8.71875 11.0625V17.3125C8.71875 17.744 8.36897 18.0938 7.9375 18.0938H1.6875C1.25603 18.0938 0.90625 17.744 0.90625 17.3125ZM7.15625 16.5312H2.46875V11.8438H7.15625V16.5312Z" fill="black"/>
<path fill-rule="evenodd" clip-rule="evenodd" d="M10.2812 17.3125V11.0625C10.2812 10.631 10.631 10.2812 11.0625 10.2812H17.3125C17.744 10.2812 18.0938 10.631 18.0938 11.0625V17.3125C18.0938 17.744 17.744 18.0938 17.3125 18.0938H11.0625C10.631 18.0938 10.2812 17.744 10.2812 17.3125ZM16.5312 16.5312H11.8438V11.8438H16.5312V16.5312Z" fill="black"/>
</svg>
