<svg width="25" height="25" viewBox="0 0 25 25" fill="none" xmlns="http://www.w3.org/2000/svg">
<path d="M3 22.5C2.45 22.5 1.979 22.3043 1.587 21.913C1.19567 21.521 1 21.05 1 20.5V6.5C1 5.95 1.19567 5.47933 1.587 5.088C1.979 4.696 2.45 4.5 3 4.5H4V3.5C4 3.21667 4.09567 2.979 4.287 2.787C4.479 2.59567 4.71667 2.5 5 2.5C5.28333 2.5 5.521 2.59567 5.713 2.787C5.90433 2.979 6 3.21667 6 3.5V4.5H14V3.5C14 3.21667 14.096 2.979 14.288 2.787C14.4793 2.59567 14.7167 2.5 15 2.5C15.2833 2.5 15.5207 2.59567 15.712 2.787C15.904 2.979 16 3.21667 16 3.5V4.5H17C17.55 4.5 18.021 4.696 18.413 5.088C18.8043 5.47933 19 5.95 19 6.5V12.5H17V10.5H3V20.5H10V22.5H3ZM3 8.5H17V6.5H3V8.5ZM20.125 17.5L18 15.375L18.725 14.65C18.9083 14.4667 19.1417 14.375 19.425 14.375C19.7083 14.375 19.9417 14.4667 20.125 14.65L20.85 15.375C21.0333 15.5583 21.125 15.7917 21.125 16.075C21.125 16.3583 21.0333 16.5917 20.85 16.775L20.125 17.5ZM12 23V21.8C12 21.6667 12.025 21.5377 12.075 21.413C12.125 21.2877 12.2 21.175 12.3 21.075L17.3 16.075L19.425 18.2L14.425 23.2C14.325 23.3 14.2127 23.375 14.088 23.425C13.9627 23.475 13.8333 23.5 13.7 23.5H12.5C12.3667 23.5 12.25 23.45 12.15 23.35C12.05 23.25 12 23.1333 12 23ZM3 8.5V6.5V8.5Z" fill="#02F6AD"/>
</svg>
