<svg width="19" height="22" viewBox="0 0 19 22" fill="none" xmlns="http://www.w3.org/2000/svg">
<path d="M6.93151 16.4336C6.74414 16.3743 6.60583 16.2301 6.60583 16.2301C6.45949 16.0775 6.26088 15.9917 6.05368 15.9914L6.05273 15.9914C6.04053 15.9914 6.02834 15.9917 6.01615 15.9923C5.82214 16.0018 5.63848 16.086 5.50098 16.2287C5.35405 16.3811 5.27148 16.5881 5.27148 16.8039C5.27148 16.8176 5.27182 16.8313 5.27248 16.845C5.28225 17.0457 5.36318 17.2355 5.49964 17.3777C5.91459 17.8103 6.47668 17.9882 6.47668 17.9882C7.03876 18.1661 7.61507 18.0471 7.61507 18.0471C8.19136 17.9282 8.64558 17.5406 8.64558 17.5406C9.09979 17.1531 9.32449 16.5885 9.32449 16.5885C9.54919 16.0239 9.49125 15.4158 9.49125 15.4158C9.4333 14.8078 9.1064 14.3001 9.1064 14.3001C8.84614 13.8958 8.46439 13.6313 8.46439 13.6313L9.3288 12.5076C9.59834 12.1572 9.54372 11.6459 9.20679 11.3655C9.06827 11.2503 8.89615 11.1875 8.71875 11.1875H5.98438C5.5529 11.1875 5.20312 11.5513 5.20312 12C5.20312 12.4487 5.5529 12.8125 5.98438 12.8125H7.09326L6.5462 13.5237C6.43509 13.6681 6.3747 13.8477 6.375 14.0326C6.37536 14.2481 6.45801 14.4546 6.60477 14.6068C6.75153 14.7589 6.95039 14.8441 7.15759 14.8437C7.35343 14.8434 7.52627 14.9392 7.52627 14.9392C7.69912 15.0349 7.80808 15.2042 7.80808 15.2042C7.91705 15.3734 7.93636 15.5761 7.93636 15.5761C7.95568 15.7788 7.88078 15.967 7.88078 15.967C7.80588 16.1552 7.65447 16.2844 7.65447 16.2844C7.50307 16.4136 7.31097 16.4532 7.31097 16.4532C7.11887 16.4929 6.93151 16.4336 6.93151 16.4336Z" fill="#02F6AD"/>
<path d="M11.8438 17.2812V13.625L11.5312 13.8687C11.3988 13.972 11.2383 14.0289 11.0728 14.0312L11.0625 14.0312C10.8166 14.0312 10.585 13.9108 10.4375 13.7063C10.3366 13.5664 10.2818 13.3964 10.2813 13.2215L10.2812 13.2188C10.2812 13.1803 10.2839 13.1419 10.2891 13.1038C10.3184 12.8905 10.428 12.698 10.5938 12.5687L12.1562 11.35C12.2915 11.2445 12.456 11.1875 12.625 11.1875C13.0565 11.1875 13.4062 11.5513 13.4062 12V17.2812C13.4062 17.73 13.0565 18.0938 12.625 18.0938C12.1935 18.0938 11.8438 17.73 11.8438 17.2812Z" fill="#02F6AD"/>
<path fill-rule="evenodd" clip-rule="evenodd" d="M13.4062 2.25V1.4375C13.4062 0.988769 13.756 0.625 14.1875 0.625C14.619 0.625 14.9688 0.988769 14.9688 1.4375V2.25H17.3125C17.3125 2.25 17.9597 2.25 18.4174 2.72595C18.4174 2.72595 18.875 3.2019 18.875 3.875V20.125C18.875 20.125 18.875 20.7981 18.4174 21.274C18.4174 21.274 17.9597 21.75 17.3125 21.75H1.6875C1.6875 21.75 1.04029 21.75 0.582646 21.274C0.582646 21.274 0.125 20.7981 0.125 20.125V3.875C0.125 3.875 0.125 3.2019 0.582646 2.72595C0.582646 2.72595 1.04029 2.25 1.6875 2.25H4.03125V1.4375C4.03125 0.988769 4.38103 0.625 4.8125 0.625C5.24397 0.625 5.59375 0.988769 5.59375 1.4375V2.25H13.4062ZM1.6875 8.75V20.125H17.3125V8.75H1.6875ZM17.3125 7.125H1.6875V3.875H4.03125V4.6875C4.03125 5.13623 4.38103 5.5 4.8125 5.5C5.24397 5.5 5.59375 5.13623 5.59375 4.6875V3.875H13.4062V4.6875C13.4062 5.13623 13.756 5.5 14.1875 5.5C14.619 5.5 14.9688 5.13623 14.9688 4.6875V3.875H17.3125V7.125Z" fill="#02F6AD"/>
</svg>
