<svg width="21" height="21" viewBox="0 0 21 21" fill="none" xmlns="http://www.w3.org/2000/svg">
<path d="M18.4366 3.05693H15.5305H18.4366ZM11.6557 1V5.11387V1ZM11.6557 3.05693H1H11.6557ZM4.87479 10.2562H1H4.87479ZM8.74959 8.19927V12.3131V8.19927ZM19.4053 10.2562H8.74959H19.4053ZM18.4366 17.4555H15.5305H18.4366ZM11.6557 15.3985V19.5124V15.3985ZM11.6557 17.4555H1H11.6557Z" fill="black"/>
<path d="M11.6557 17.4555H1M18.4366 3.05693H15.5305H18.4366ZM11.6557 1V5.11387V1ZM11.6557 3.05693H1H11.6557ZM4.87479 10.2562H1H4.87479ZM8.74959 8.19927V12.3131V8.19927ZM19.4053 10.2562H8.74959H19.4053ZM18.4366 17.4555H15.5305H18.4366ZM11.6557 15.3985V19.5124V15.3985Z" stroke="#000000" stroke-width="2" stroke-linecap="round" stroke-linejoin="round"/>
</svg>
