<svg width="15" height="14" viewBox="0 0 15 14" fill="none" xmlns="http://www.w3.org/2000/svg">
<path d="M6.47695e-07 7C4.78707e-07 10.866 3.35786 14 7.5 14C11.6421 14 15 10.866 15 7C15 3.13401 11.6421 -1.46777e-07 7.5 -3.27835e-07C3.35787 -5.08894e-07 8.16683e-07 3.13401 6.47695e-07 7Z" fill="#F0F0F0"/>
<path d="M7.49994 14C10.7247 14 13.4737 12.1004 14.5334 9.43481L0.466407 9.43481C1.52613 12.1004 4.27521 14 7.49994 14Z" fill="#D80027"/>
<path d="M7.49994 -3.07444e-07C4.27521 -4.48402e-07 1.52613 1.89965 0.466436 4.56523L14.5334 4.56523C13.4737 1.89965 10.7247 -1.66487e-07 7.49994 -3.07444e-07Z" fill="#0052B4"/>
</svg>
