<svg width="29" height="29" viewBox="0 0 29 29" fill="none" xmlns="http://www.w3.org/2000/svg">
<path d="M-6.11959e-07 14.5C-9.49935e-07 22.232 6.49187 28.5 14.5 28.5C22.5081 28.5 29 22.232 29 14.5C29 6.76801 22.5081 0.5 14.5 0.499999C6.49187 0.499999 -2.73984e-07 6.76801 -6.11959e-07 14.5Z" fill="#F0F0F0"/>
<path d="M14.5 28.5C20.7345 28.5 26.0494 24.7007 28.0981 19.3695L0.901865 19.3695C2.95067 24.7007 8.26554 28.5 14.5 28.5Z" fill="#D80027"/>
<path d="M14.5 0.499999C8.26554 0.499999 2.95067 4.2993 0.901922 9.63046L28.0981 9.63046C26.0494 4.2993 20.7345 0.5 14.5 0.499999Z" fill="#0052B4"/>
</svg>
