<svg width="18" height="18" viewBox="0 0 18 18" fill="none" xmlns="http://www.w3.org/2000/svg">
<path d="M1.4375 7.62558C1.25516 7.62558 1.0803 7.55315 0.951364 7.42421C0.822433 7.29528 0.75 7.12042 0.75 6.93808V1.43945C0.75 1.25712 0.822433 1.08225 0.951364 0.953317C1.0803 0.824386 1.25516 0.751953 1.4375 0.751953H6.9375C7.11984 0.751953 7.2947 0.824386 7.42364 0.953317C7.55257 1.08225 7.625 1.25712 7.625 1.43945V6.93808C7.625 7.12042 7.55257 7.29528 7.42364 7.42421C7.2947 7.55315 7.11984 7.62558 6.9375 7.62558H1.4375ZM11.0625 7.62558C10.8802 7.62558 10.7053 7.55315 10.5764 7.42421C10.4474 7.29528 10.375 7.12042 10.375 6.93808V1.43945C10.375 1.25712 10.4474 1.08225 10.5764 0.953317C10.7053 0.824386 10.8802 0.751953 11.0625 0.751953H16.5611C16.7435 0.751953 16.9183 0.824386 17.0473 0.953317C17.1762 1.08225 17.2486 1.25712 17.2486 1.43945V6.93808C17.2486 7.12042 17.1762 7.29528 17.0473 7.42421C16.9183 7.55315 16.7435 7.62558 16.5611 7.62558H11.0625ZM1.4375 17.2506C1.25516 17.2506 1.0803 17.1781 0.951364 17.0492C0.822433 16.9203 0.75 16.7454 0.75 16.5631V11.0631C0.75 10.8807 0.822433 10.7059 0.951364 10.5769C1.0803 10.448 1.25516 10.3756 1.4375 10.3756H6.9375C7.11984 10.3756 7.2947 10.448 7.42364 10.5769C7.55257 10.7059 7.625 10.8807 7.625 11.0631V16.5631C7.625 16.7454 7.55257 16.9203 7.42364 17.0492C7.2947 17.1781 7.11984 17.2506 6.9375 17.2506H1.4375ZM11.0625 17.2506C10.8802 17.2506 10.7053 17.1781 10.5764 17.0492C10.4474 16.9203 10.375 16.7454 10.375 16.5631V11.0631C10.375 10.8807 10.4474 10.7059 10.5764 10.5769C10.7053 10.448 10.8802 10.3756 11.0625 10.3756H16.5611C16.7435 10.3756 16.9183 10.448 17.0473 10.5769C17.1762 10.7059 17.2486 10.8807 17.2486 11.0631V16.5631C17.2486 16.7454 17.1762 16.9203 17.0473 17.0492C16.9183 17.1781 16.7435 17.2506 16.5611 17.2506H11.0625Z" fill="white"/>
</svg>
