<svg width="25" height="22" viewBox="0 0 25 22" fill="none" xmlns="http://www.w3.org/2000/svg">
<g filter="url(#filter0_d_1580_13980)">
<path d="M12.4807 17.0591L11.5169 16.3222C10.1289 15.2414 8.98514 14.3107 8.08554 13.5301C7.18594 12.7496 6.46948 12.0509 5.93614 11.4341C5.40281 10.8172 5.03012 10.255 4.81807 9.74738C4.60602 9.23974 4.5 8.72391 4.5 8.19989C4.5 7.15186 4.91446 6.27304 5.74337 5.56343C6.57229 4.85383 7.59719 4.49902 8.81807 4.49902C9.5506 4.49902 10.2253 4.63822 10.8422 4.9166C11.459 5.19498 12.0052 5.60164 12.4807 6.13658C13.0462 5.56889 13.6245 5.15404 14.2157 4.89204C14.8068 4.63003 15.4494 4.49902 16.1434 4.49902C17.3771 4.49902 18.4116 4.85383 19.247 5.56343C20.0823 6.27304 20.5 7.15186 20.5 8.19989C20.5 8.72391 20.394 9.23701 20.1819 9.73919C19.9699 10.2414 19.5972 10.8009 19.0639 11.4177C18.5305 12.0345 17.8108 12.7359 16.9048 13.5219C15.9988 14.308 14.8582 15.2414 13.4831 16.3222L12.4807 17.0591Z" fill="#FF5C00"/>
</g>
<defs>
<filter id="filter0_d_1580_13980" x="0.5" y="0.499023" width="24" height="20.5601" filterUnits="userSpaceOnUse" color-interpolation-filters="sRGB">
<feFlood flood-opacity="0" result="BackgroundImageFix"/>
<feColorMatrix in="SourceAlpha" type="matrix" values="0 0 0 0 0 0 0 0 0 0 0 0 0 0 0 0 0 0 127 0" result="hardAlpha"/>
<feOffset/>
<feGaussianBlur stdDeviation="2"/>
<feComposite in2="hardAlpha" operator="out"/>
<feColorMatrix type="matrix" values="0 0 0 0 0 0 0 0 0 0 0 0 0 0 0 0 0 0 0.25 0"/>
<feBlend mode="normal" in2="BackgroundImageFix" result="effect1_dropShadow_1580_13980"/>
<feBlend mode="normal" in="SourceGraphic" in2="effect1_dropShadow_1580_13980" result="shape"/>
</filter>
</defs>
</svg>
