<svg width="18" height="14" viewBox="0 0 18 14" fill="none" xmlns="http://www.w3.org/2000/svg">
<path fill-rule="evenodd" clip-rule="evenodd" d="M1.4375 12.5C1.4375 12.3177 1.50993 12.1428 1.63886 12.0139C1.7678 11.8849 1.94266 11.8125 2.125 11.8125H15.875C16.0573 11.8125 16.2322 11.8849 16.3611 12.0139C16.4901 12.1428 16.5625 12.3177 16.5625 12.5C16.5625 12.6823 16.4901 12.8572 16.3611 12.9861C16.2322 13.1151 16.0573 13.1875 15.875 13.1875H2.125C1.94266 13.1875 1.7678 13.1151 1.63886 12.9861C1.50993 12.8572 1.4375 12.6823 1.4375 12.5ZM1.4375 7C1.4375 6.81766 1.50993 6.6428 1.63886 6.51386C1.7678 6.38493 1.94266 6.3125 2.125 6.3125H15.875C16.0573 6.3125 16.2322 6.38493 16.3611 6.51386C16.4901 6.6428 16.5625 6.81766 16.5625 7C16.5625 7.18234 16.4901 7.35721 16.3611 7.48614C16.2322 7.61507 16.0573 7.6875 15.875 7.6875H2.125C1.94266 7.6875 1.7678 7.61507 1.63886 7.48614C1.50993 7.35721 1.4375 7.18234 1.4375 7ZM1.4375 1.5C1.4375 1.31766 1.50993 1.1428 1.63886 1.01386C1.7678 0.884933 1.94266 0.8125 2.125 0.8125H15.875C16.0573 0.8125 16.2322 0.884933 16.3611 1.01386C16.4901 1.1428 16.5625 1.31766 16.5625 1.5C16.5625 1.68234 16.4901 1.8572 16.3611 1.98614C16.2322 2.11507 16.0573 2.1875 15.875 2.1875H2.125C1.94266 2.1875 1.7678 2.11507 1.63886 1.98614C1.50993 1.8572 1.4375 1.68234 1.4375 1.5Z" fill="#FBFAFB" stroke="#FBFAFB"/>
</svg>
