<svg width="19" height="22" viewBox="0 0 19 22" fill="none" xmlns="http://www.w3.org/2000/svg">
<path d="M9.5 18.3799C11.6214 16.7328 13.2234 15.1476 14.306 13.624C15.3877 12.1005 15.9286 10.6696 15.9286 9.33138C15.9286 8.17843 15.7091 7.19514 15.2703 6.38149C14.8306 5.56867 14.2893 4.90985 13.6464 4.40502C13.0036 3.90102 12.3071 3.53579 11.5571 3.30932C10.8071 3.08285 10.1214 2.96961 9.5 2.96961C8.87857 2.96961 8.19286 3.08285 7.44286 3.30932C6.69286 3.53579 5.99643 3.90102 5.35357 4.40502C4.71071 4.90985 4.16986 5.56867 3.731 6.38149C3.29129 7.19514 3.07143 8.17843 3.07143 9.33138C3.07143 10.6696 3.61229 12.1005 4.694 13.624C5.77657 15.1476 7.37857 16.7328 9.5 18.3799ZM9.5 21.499C6.47857 19.3578 4.223 17.2784 2.73329 15.2608C1.24443 13.2431 0.5 11.2667 0.5 9.33138C0.5 7.86961 0.773429 6.58779 1.32029 5.48591C1.86629 4.38485 2.56786 3.46373 3.425 2.72255C4.28214 1.98138 5.24643 1.42549 6.31786 1.05491C7.38929 0.684318 8.45 0.499023 9.5 0.499023C10.55 0.499023 11.6107 0.684318 12.6821 1.05491C13.7536 1.42549 14.7179 1.98138 15.575 2.72255C16.4321 3.46373 17.1341 4.38485 17.681 5.48591C18.227 6.58779 18.5 7.86961 18.5 9.33138C18.5 11.2667 17.7551 13.2431 16.2654 15.2608C14.7766 17.2784 12.5214 19.3578 9.5 21.499ZM9.5 11.6167C10.2071 11.6167 10.8127 11.3746 11.3167 10.8903C11.8199 10.4069 12.0714 9.82549 12.0714 9.14608C12.0714 8.46667 11.8199 7.88485 11.3167 7.40061C10.8127 6.9172 10.2071 6.67549 9.5 6.67549C8.79286 6.67549 8.18771 6.9172 7.68457 7.40061C7.18057 7.88485 6.92857 8.46667 6.92857 9.14608C6.92857 9.82549 7.18057 10.4069 7.68457 10.8903C8.18771 11.3746 8.79286 11.6167 9.5 11.6167Z" fill="#02F6AD"/>
</svg>
