<svg width="57" height="76" viewBox="0 0 57 76" fill="none" xmlns="http://www.w3.org/2000/svg">
<path d="M18.6261 19.1072C18.9895 16.109 19.3832 13.1411 20.7763 10.3851C24.8043 2.54126 33.5567 -1.54723 42.1879 0.542445C50.5466 2.54126 56.4825 10.0823 56.4825 18.7438C56.4825 31.3727 56.4825 43.9713 56.4825 56.6002C56.4825 66.6549 48.7598 74.7107 38.584 75.3164C28.7413 75.8919 20.0495 68.5023 18.9592 58.5688C18.8987 57.9631 18.8078 57.3876 18.717 56.6911C14.5679 56.4791 10.7823 55.3282 7.45089 52.8146C1.30301 48.181 -1.42265 40.0645 0.72759 32.5841C2.87783 25.1037 9.44971 19.6524 17.021 19.0164C17.5661 18.9861 18.1113 19.0769 18.6564 19.1072C18.717 19.6826 18.8684 20.2884 18.8684 20.8638C18.8684 32.0996 18.8684 43.3656 18.8684 54.6014C18.8684 55.2071 18.8684 55.7825 18.8684 56.4791C19.6558 56.4791 20.2312 56.5396 20.8369 56.4791C30.2556 55.2677 36.9486 48.1507 37.5846 38.6714C38.3114 28.1019 29.0745 18.5924 18.6261 19.1072Z" fill="url(#paint0_linear_1991_3733)"/>
<defs>
<linearGradient id="paint0_linear_1991_3733" x1="35.1716" y1="-7.46063" x2="34.1058" y2="76.7379" gradientUnits="userSpaceOnUse">
<stop stop-color="#C4BFBF"/>
<stop offset="1" stop-color="#353333"/>
</linearGradient>
</defs>
</svg>
