<svg width="114" height="36" viewBox="0 0 114 36" fill="none" xmlns="http://www.w3.org/2000/svg">
<path d="M8.61115 9.54358V26.7659C6.32733 26.7659 4.13705 25.8586 2.52215 24.2437C0.90724 22.6288 0 20.4385 0 18.1547C0 15.8709 0.907247 13.6806 2.52215 12.0657C4.13705 10.4508 6.32733 9.54358 8.61115 9.54358Z" fill="black"/>
<path d="M8.61115 9.48615C8.61115 4.73034 12.4665 0.875 17.2223 0.875C21.9781 0.875 25.8334 4.73034 25.8334 9.48615V26.7085C25.8334 31.4643 21.9781 35.3196 17.2223 35.3196C12.4856 35.3196 8.64221 31.4952 8.61133 26.7659C13.3671 26.7658 17.2223 22.9105 17.2223 18.1547C17.2223 13.3989 13.367 9.54356 8.61115 9.54356V9.48615Z" fill="black"/>
<path d="M47.2664 14.9921C47.2664 13.5531 46.7725 12.3075 45.7845 11.2981C44.8181 10.2886 43.3361 9.77319 41.3817 9.77319H35.4326V26.5897H38.0743V20.3613H41.0596C43.014 20.3613 44.5174 19.8459 45.6127 18.8365C46.708 17.8056 47.2664 16.517 47.2664 14.9921ZM41.1455 12.2216C42.3912 12.2216 43.2717 12.5008 43.7872 13.0592C44.3241 13.6176 44.5818 14.2834 44.5818 15.0565C44.5818 16.6029 43.4865 17.9344 41.1455 17.9344H38.0743V12.2216H41.1455Z" fill="black"/>
<path d="M53.4001 14.8847C51.7249 14.8847 50.286 15.4646 49.1047 16.6029C47.9235 17.7412 47.3221 19.1586 47.3221 20.8338C47.3221 22.509 47.902 23.9265 49.0832 25.0648C50.2645 26.2031 51.7034 26.783 53.3786 26.783C55.0753 26.783 56.4928 26.2031 57.6526 25.0648C58.8338 23.905 59.4137 22.4876 59.4137 20.7909C59.4137 19.1157 58.8338 17.7197 57.6526 16.5814C56.4713 15.4431 55.0538 14.8847 53.4001 14.8847ZM50.8873 18.2566C51.5316 17.5479 52.3692 17.2042 53.3786 17.2042C54.3881 17.2042 55.2257 17.5479 55.8485 18.2566C56.4928 18.9653 56.815 19.8244 56.815 20.8338C56.815 21.8433 56.4928 22.7023 55.87 23.4111C55.2471 24.1198 54.4095 24.4634 53.4001 24.4634C52.3907 24.4634 51.5531 24.0983 50.9088 23.3896C50.2645 22.6594 49.9423 21.8003 49.9423 20.7909C49.9423 19.7815 50.2645 18.9439 50.8873 18.2566Z" fill="black"/>
<path d="M66.9473 15.121C66.7969 15.078 66.6036 15.0565 66.3244 15.0565C64.9284 15.0565 63.8761 15.6579 63.1673 16.9465V15.121H60.676V26.5897H63.2317V20.7694C63.2317 18.772 64.2626 17.3546 66.217 17.3546C66.4962 17.3546 66.7325 17.376 66.9473 17.419V15.121Z" fill="black"/>
<path d="M75.3572 17.419V15.121H72.5437V11.5773H69.9879V15.121H67.8832V17.419H69.9879V22.8956C69.9879 25.387 71.4484 26.7185 73.9612 26.7185C74.4551 26.7185 74.9276 26.6326 75.3357 26.4823V24.3131C75.0565 24.3775 74.7773 24.399 74.5196 24.399C73.2095 24.399 72.5437 23.8621 72.5437 22.4876V17.419H75.3572Z" fill="black"/>
<path d="M84.0289 18.815C84.0289 19.4593 83.6638 19.7815 82.9551 19.7815H81.5376C79.5188 19.7815 76.7697 20.6191 76.7697 23.2822V23.4111C76.7697 24.399 77.1348 25.2151 77.865 25.838C78.5952 26.4608 79.5188 26.783 80.6356 26.783C82.1819 26.783 83.2987 26.2031 84.0075 25.0218V26.5897H86.5203V19.2875C86.5203 18.4928 86.3914 17.8056 86.1337 17.2257C85.4249 15.6579 83.986 14.8847 81.8383 14.8847C79.4973 14.8847 77.865 15.8512 76.963 17.8056L78.9174 18.9224C79.4973 17.6982 80.4637 17.0968 81.7738 17.0968C83.2128 17.0968 84.0289 17.87 84.0289 18.815ZM84.0075 21.9506C84.0075 23.6688 82.8906 24.7426 81.151 24.7426C80.0557 24.7426 79.3255 24.1198 79.3255 23.1748C79.3255 22.6809 79.5617 22.2943 80.0127 22.0151C80.4852 21.7359 81.0007 21.5855 81.5376 21.5855H84.0075V21.9506Z" fill="black"/>
<path d="M88.2026 9.78382V15.8082V22.509C88.2026 25.1937 89.5986 26.697 92.004 26.697C92.4765 26.697 92.9275 26.6111 93.3356 26.4608V24.2916C93.0564 24.3561 92.7986 24.3775 92.5194 24.3775C91.3382 24.3775 90.7583 23.6903 90.7583 22.3157V9.78382H88.2026Z" fill="black"/>
<path d="M95.4065 15.121H92.6575L97.5113 26.5252L97.0388 27.685C96.4159 29.2313 95.428 29.4408 94.1179 29.4408C93.6669 29.4408 93.3662 29.4193 93.1944 29.3549V31.567C93.581 31.6959 94.0749 31.7603 94.6548 31.7603C96.9529 31.7603 98.4133 30.9065 99.4657 28.3293L104.856 15.121H102.15L98.9073 23.6688L95.4065 15.121Z" fill="black"/>
<path d="M109.662 26.783C110.95 26.783 112.003 26.4608 112.797 25.795C113.592 25.1292 114 24.2702 114 23.2178C114 21.4352 112.625 20.1895 110.027 19.6096C108.545 19.2875 107.9 18.9009 107.9 18.1492C107.9 17.5264 108.717 17.0324 109.511 17.0324C110.607 17.0324 111.401 17.5479 111.917 18.5788L113.893 17.462C113.098 15.7438 111.659 14.8847 109.597 14.8847C108.48 14.8847 107.514 15.2069 106.676 15.8727C105.839 16.5384 105.431 17.376 105.431 18.4069C105.431 19.2231 105.71 19.9103 106.247 20.4902C106.87 21.156 107.836 21.607 109.103 21.8647C110.671 22.1869 111.466 22.7023 111.466 23.3681C111.466 24.1413 110.628 24.6353 109.662 24.6353C108.437 24.6353 107.535 24.0124 106.913 22.7882L104.915 23.905C105.796 25.8165 107.385 26.783 109.662 26.783Z" fill="black"/>
</svg>
