<svg width="25" height="25" viewBox="0 0 25 25" fill="none" xmlns="http://www.w3.org/2000/svg">
<path d="M12.5027 19.1478C12.4515 19.1476 12.4009 19.1364 12.3544 19.1148L6.07143 16.0928C6.01404 16.0643 5.96568 16.0205 5.93173 15.9662C5.89778 15.9119 5.87957 15.8492 5.87912 15.7851V9.02138C5.87895 8.9636 5.89347 8.90673 5.92133 8.85611C5.94918 8.80549 5.98945 8.76279 6.03836 8.73202C6.08726 8.70124 6.14319 8.68342 6.20088 8.68021C6.25856 8.67701 6.31612 8.68853 6.36813 8.71369L12.6511 11.7357C12.7085 11.7641 12.7568 11.808 12.7908 11.8623C12.8248 11.9166 12.843 11.9793 12.8434 12.0434V18.8071C12.8434 18.8647 12.8288 18.9214 12.8009 18.9719C12.7731 19.0223 12.7329 19.0649 12.6841 19.0956C12.6299 19.1301 12.567 19.1482 12.5027 19.1478ZM6.56044 15.5763L12.1621 18.2741V12.2604L6.56044 9.56259V15.5763Z" fill="white" stroke="white" stroke-width="0.5"/>
<path d="M12.5028 12.3808C12.4552 12.3842 12.4075 12.3776 12.3626 12.3616L6.07968 9.3396C6.02134 9.31243 5.97198 9.26917 5.93739 9.21491C5.9028 9.16064 5.88443 9.09763 5.88443 9.03328C5.88443 8.96893 5.9028 8.90592 5.93739 8.85165C5.97198 8.79739 6.02134 8.75413 6.07968 8.72696L12.3626 5.69125C12.4086 5.66949 12.4588 5.6582 12.5096 5.6582C12.5605 5.6582 12.6107 5.66949 12.6566 5.69125L18.9396 8.71322C18.9974 8.74118 19.0461 8.7849 19.0801 8.83934C19.1141 8.89377 19.1321 8.95672 19.1319 9.02092C19.1319 9.08472 19.1138 9.14721 19.0798 9.20118C19.0458 9.25514 18.9971 9.29837 18.9396 9.32586L12.6374 12.3616C12.5942 12.377 12.5485 12.3835 12.5028 12.3808ZM7.00825 9.01817L12.5028 11.6638L17.9973 9.02366L12.5028 6.37531L7.00825 9.01817Z" fill="white" stroke="white" stroke-width="0.5"/>
<path d="M12.5027 19.1489C12.4385 19.1494 12.3755 19.1313 12.3214 19.0967C12.2726 19.066 12.2324 19.0235 12.2045 18.973C12.1767 18.9226 12.1621 18.8659 12.1621 18.8083V12.0473C12.1619 11.9831 12.1798 11.9201 12.2139 11.8657C12.2479 11.8112 12.2966 11.7675 12.3544 11.7396L18.6374 8.71759C18.6894 8.69243 18.7469 8.68091 18.8046 8.68412C18.8623 8.68733 18.9182 8.70515 18.9671 8.73592C19.016 8.76669 19.0563 8.80939 19.0842 8.86001C19.112 8.91063 19.1265 8.96751 19.1264 9.02529V15.7835C19.1266 15.8477 19.1086 15.9107 19.0746 15.9651C19.0406 16.0195 18.9918 16.0633 18.9341 16.0912L12.6374 19.1159C12.5952 19.136 12.5494 19.1473 12.5027 19.1489ZM12.8434 12.2615V18.267L18.445 15.5692V9.56375L12.8434 12.2615Z" fill="white" stroke="white" stroke-width="0.5"/>
<path d="M9.35991 10.8706C9.28341 10.8699 9.20941 10.8434 9.14981 10.7954C9.09021 10.7475 9.04849 10.6808 9.03136 10.6063C9.01423 10.5317 9.02269 10.4536 9.05537 10.3844C9.08806 10.3153 9.14307 10.2591 9.21155 10.225L15.4973 7.20306C15.5785 7.16432 15.6719 7.15934 15.7568 7.1892C15.8417 7.21906 15.9114 7.28133 15.9506 7.3624C15.9701 7.40258 15.9815 7.44624 15.9841 7.49085C15.9866 7.53547 15.9803 7.58015 15.9655 7.6223C15.9507 7.66446 15.9276 7.70326 15.8977 7.73646C15.8678 7.76965 15.8316 7.79659 15.7912 7.8157L9.50826 10.8377C9.46169 10.859 9.41113 10.8703 9.35991 10.8706Z" fill="white" stroke="white" stroke-width="0.5"/>
<path d="M10.2033 13.8372C10.152 13.8375 10.1013 13.8262 10.0549 13.8043L8.20054 12.9114C8.16015 12.8923 8.12395 12.8654 8.09403 12.8322C8.06412 12.799 8.04108 12.7602 8.02626 12.718C8.01144 12.6758 8.00513 12.6312 8.0077 12.5866C8.01026 12.5419 8.02165 12.4983 8.0412 12.4581C8.08037 12.377 8.15003 12.3148 8.23497 12.2849C8.31991 12.255 8.41322 12.26 8.4945 12.2988L10.3489 13.1861C10.4172 13.2201 10.4721 13.276 10.5048 13.3449C10.5376 13.4138 10.5463 13.4917 10.5295 13.5661C10.5127 13.6405 10.4714 13.7071 10.4123 13.7553C10.3531 13.8034 10.2795 13.8304 10.2033 13.8317V13.8372Z" fill="white" stroke="white" stroke-width="0.5"/>
<path d="M2.18132 16.9586C2.11483 16.9597 2.04949 16.9413 1.99335 16.9056C1.93721 16.87 1.89273 16.8187 1.86539 16.7581C0.83423 14.208 0.754318 11.3722 1.64023 8.76807C2.52615 6.16397 4.31883 3.9652 6.69116 2.57299C9.06348 1.18078 11.8573 0.687933 14.5628 1.18439C17.2683 1.68085 19.7051 3.13351 21.4286 5.27731C21.4605 5.31143 21.4851 5.35177 21.5008 5.39581C21.5165 5.43985 21.523 5.48665 21.5198 5.53329C21.5166 5.57994 21.5039 5.62543 21.4824 5.66694C21.4609 5.70845 21.431 5.74509 21.3948 5.77457C21.3585 5.80405 21.3165 5.82575 21.2715 5.83831C21.2264 5.85088 21.1793 5.85403 21.133 5.84759C21.0867 5.84115 21.0422 5.82524 21.0023 5.80086C20.9624 5.77648 20.928 5.74415 20.9011 5.70588C19.2798 3.69551 16.9909 2.3338 14.4505 1.86843C11.9101 1.40305 9.28709 1.86492 7.05846 3.17002C4.82983 4.47513 3.14365 6.53678 2.30659 8.98002C1.46952 11.4233 1.53718 14.0858 2.49725 16.4834C2.51789 16.535 2.52556 16.5909 2.5196 16.6462C2.51364 16.7015 2.49423 16.7545 2.46307 16.8006C2.4319 16.8467 2.38993 16.8844 2.34081 16.9105C2.2917 16.9366 2.23694 16.9503 2.18132 16.9504V16.9586Z" fill="white" stroke="white" stroke-width="0.5"/>
<path d="M12.5165 23.9255C10.8012 23.9295 9.10684 23.5483 7.5586 22.8098C6.01037 22.0714 4.64777 20.9946 3.57143 19.659C3.5146 19.5861 3.48904 19.4937 3.50037 19.402C3.51171 19.3103 3.55901 19.2268 3.63187 19.17C3.70473 19.1131 3.79719 19.0876 3.88889 19.0989C3.9806 19.1102 4.06405 19.1576 4.12088 19.2304C5.75205 21.2384 8.05078 22.593 10.5977 23.0471C13.1445 23.5013 15.7698 23.0246 17.9944 21.704C20.219 20.3835 21.8948 18.3072 22.7159 15.8539C23.5369 13.4006 23.4486 10.7339 22.467 8.3403C22.4486 8.29877 22.4386 8.25396 22.4378 8.20852C22.4369 8.16308 22.4451 8.11793 22.462 8.07572C22.4788 8.0335 22.5039 7.99509 22.5358 7.96274C22.5678 7.93038 22.6058 7.90474 22.6478 7.88733C22.6898 7.86991 22.7348 7.86108 22.7803 7.86133C22.8257 7.86159 22.8707 7.87094 22.9125 7.88883C22.9542 7.90672 22.992 7.93279 23.0236 7.96551C23.0551 7.99822 23.0798 8.03691 23.0962 8.07931C24.0321 10.3701 24.2068 12.9012 23.5944 15.2989C22.982 17.6966 21.615 19.8339 19.6951 21.3952C17.6625 23.0357 15.1285 23.9288 12.5165 23.9255Z" fill="white" stroke="white" stroke-width="0.5"/>
<path d="M21.1923 5.85742H21.1538L17.9808 5.51401C17.8955 5.49901 17.8192 5.45215 17.7673 5.38294C17.7154 5.31373 17.6918 5.22735 17.7012 5.14135C17.7106 5.05534 17.7524 4.97615 17.8181 4.91985C17.8838 4.86354 17.9685 4.83435 18.0549 4.83819L20.8791 5.14313L21.195 2.30797C21.1971 2.26142 21.2087 2.21578 21.2291 2.17389C21.2495 2.132 21.2783 2.09474 21.3137 2.06442C21.3491 2.03409 21.3903 2.01135 21.4348 1.9976C21.4793 1.98384 21.5262 1.97937 21.5725 1.98446C21.6189 1.98954 21.6636 2.00407 21.7041 2.02716C21.7446 2.05024 21.7799 2.08138 21.8079 2.11866C21.8358 2.15593 21.8559 2.19855 21.8667 2.24387C21.8775 2.28919 21.8789 2.33625 21.8709 2.38214L21.5302 5.55522C21.52 5.64498 21.4745 5.727 21.4038 5.78324C21.344 5.83171 21.2693 5.85793 21.1923 5.85742Z" fill="white" stroke="white" stroke-width="0.5"/>
<path d="M3.47527 22.9307H3.43681C3.34728 22.921 3.26524 22.8763 3.20861 22.8063C3.15198 22.7363 3.12537 22.6467 3.13461 22.5571L3.47802 19.384C3.48229 19.3397 3.49544 19.2966 3.51667 19.2575C3.53791 19.2183 3.56681 19.1838 3.60164 19.156C3.67198 19.0994 3.7618 19.0727 3.85164 19.0818L7.02472 19.4225C7.10953 19.4376 7.18546 19.4843 7.23721 19.5532C7.28896 19.6221 7.31271 19.708 7.30365 19.7937C7.2946 19.8793 7.25342 19.9584 7.18841 20.0149C7.1234 20.0714 7.03939 20.1012 6.95329 20.0983L4.12087 19.7934L3.81043 22.6285C3.80163 22.7114 3.76255 22.788 3.70069 22.8438C3.63884 22.8996 3.55856 22.9305 3.47527 22.9307Z" fill="white" stroke="white" stroke-width="0.5"/>
</svg>
