<svg width="34" height="50" viewBox="0 0 34 50" fill="none" xmlns="http://www.w3.org/2000/svg">
<g clip-path="url(#clip0_47_3829)">
<path d="M33.7378 32.4875C33.3546 32.0731 32.9688 31.6626 32.5839 31.2501C31.9011 30.5194 31.8202 30.5185 31.1473 31.2415C30.7961 31.6187 30.7961 31.6187 30.4379 31.2358C29.772 30.5232 29.6831 30.5232 29.0244 31.2301C28.6634 31.6187 28.6421 31.6387 28.2981 31.2158C27.9869 30.8328 27.6411 30.6728 27.1637 30.7042C26.5112 30.7461 25.8533 30.7023 25.199 30.7204C24.9244 30.7271 24.7439 30.6499 24.5572 30.408C23.5651 29.1248 21.9231 28.6723 20.4554 29.2439C18.9948 29.8126 18.0098 31.3034 18 32.961C17.9894 34.6614 18.9584 36.1598 20.451 36.7514C21.9338 37.3391 23.5855 36.8647 24.599 35.5435C24.7483 35.3482 24.8941 35.2758 25.127 35.2787C26.2152 35.2939 27.3033 35.2853 28.3914 35.2853C29.5017 35.2853 30.6121 35.2806 31.7224 35.2891C31.9749 35.291 32.1678 35.2043 32.3421 35.0129C32.799 34.5109 33.2675 34.0193 33.7289 33.5211C34.088 33.1334 34.0907 32.8705 33.7378 32.4875ZM32.583 33.1305C32.3021 33.4344 32.0131 33.7307 31.7393 34.0412C31.638 34.1565 31.5242 34.1422 31.4051 34.1422C30.2734 34.1431 29.1408 34.1431 28.0091 34.1431C26.9103 34.1431 25.8116 34.1555 24.7137 34.1355C24.3456 34.1289 24.126 34.2841 23.9278 34.6023C23.2628 35.6683 22.0494 36.1046 20.915 35.7159C19.8029 35.3349 19.0561 34.2222 19.0659 32.9629C19.0766 31.7426 19.8287 30.6528 20.9159 30.2832C22.0271 29.9059 23.2433 30.3137 23.886 31.3425C24.1358 31.7426 24.4167 31.8826 24.8479 31.8655C25.5902 31.8359 26.3352 31.8664 27.0784 31.8512C27.2971 31.8474 27.4517 31.915 27.5958 32.0874C27.8029 32.3351 28.026 32.5675 28.2527 32.7952C28.5301 33.0753 28.7932 33.0724 29.0733 32.7943C29.2279 32.6409 29.3835 32.4856 29.5195 32.3141C29.6627 32.1312 29.7738 32.096 29.9302 32.3027C30.0689 32.4866 30.2343 32.6495 30.3978 32.8095C30.6645 33.0705 30.9241 33.0657 31.1962 32.8076C31.2379 32.7676 31.2735 32.7209 31.3153 32.6818C31.5046 32.5056 31.7153 32.1008 31.8576 32.1712C32.1607 32.3218 32.383 32.6609 32.6345 32.9267C32.7199 33.0172 32.6345 33.0743 32.583 33.1305Z" fill="#02F6AD"/>
<path d="M21.7347 31.2871C20.8466 31.289 20.1274 32.0644 20.1336 33.0132C20.1389 33.9439 20.8572 34.7089 21.7275 34.7117C22.6121 34.7136 23.3322 33.9373 23.3295 32.9847C23.3268 32.0559 22.6014 31.2843 21.7347 31.2871ZM21.6875 33.5686C21.4013 33.5438 21.1808 33.2695 21.1995 32.9618C21.2182 32.6551 21.4706 32.4131 21.7569 32.4293C22.044 32.4445 22.2734 32.7122 22.2627 33.018C22.2512 33.3409 21.9853 33.5943 21.6875 33.5686Z" fill="#02F6AD"/>
</g>
<path d="M18.6326 22.7968C18.625 23.2554 18.2964 23.5615 17.7745 23.5641C16.5766 23.5706 15.3786 23.5667 14.1794 23.5667H11.767C9.84244 23.5667 7.91912 23.5667 5.9958 23.5654C5.85427 23.5654 5.70515 23.5798 5.57247 23.5381C5.20095 23.4234 4.98106 23.1577 5.00128 22.7486C5.0215 22.3422 5.25655 22.0934 5.64197 22.0178C5.79361 21.9878 5.95536 22.0048 6.11332 22.0048C9.91447 22.0035 13.7143 22.0048 17.5142 22.0048C17.609 22.0048 17.7038 22.0009 17.7986 22.0048C18.3116 22.023 18.6402 22.3357 18.6326 22.7968Z" fill="#02F6AD"/>
<path fill-rule="evenodd" clip-rule="evenodd" d="M14.25 12C14.25 13.3807 13.1307 14.5 11.75 14.5C10.3693 14.5 9.25001 13.3807 9.25001 12C9.25001 10.6193 10.3693 9.5 11.75 9.5C13.1307 9.5 14.25 10.6193 14.25 12ZM13.6739 15.5078C14.9113 14.8277 15.75 13.5118 15.75 12C15.75 9.79086 13.9591 8 11.75 8C9.54087 8 7.75001 9.79086 7.75001 12C7.75001 13.5474 8.62865 14.8895 9.91423 15.5548C8.2948 16.0512 6.97725 17.0645 6.19505 17.925C5.91642 18.2315 5.93901 18.7058 6.2455 18.9844C6.55199 19.2631 7.02633 19.2405 7.30496 18.934C8.05986 18.1036 9.42067 17.1143 11.0072 16.8302C12.5338 16.5569 14.3609 16.9164 16.1951 18.934C16.4737 19.2405 16.948 19.2631 17.2545 18.9844C17.561 18.7058 17.5836 18.2315 17.305 17.925C16.1216 16.6233 14.8864 15.8665 13.6739 15.5078Z" fill="#02F6AD"/>
<circle cx="12" cy="42" r="2" fill="#02F6AD"/>
<rect x="9.5" y="35.5" width="5" height="2" rx="1" stroke="#02F6AD"/>
<path fill-rule="evenodd" clip-rule="evenodd" d="M22.5 26.0176V12C22.5 6.20101 17.799 1.5 12 1.5C6.20101 1.5 1.5 6.20101 1.5 12V38C1.5 43.799 6.20101 48.5 12 48.5C17.1267 48.5 21.3952 44.8258 22.3161 39.967C22.5411 39.9888 22.7692 40 23 40C23.2851 40 23.5662 39.983 23.8424 39.9498C22.911 45.6499 17.9635 50 12 50C5.37258 50 0 44.6274 0 38V12C0 5.37258 5.37258 0 12 0C18.6274 0 24 5.37258 24 12V26.0709C23.6734 26.0242 23.3395 26 23 26C22.8319 26 22.6652 26.0059 22.5 26.0176Z" fill="#02F6AD"/>
<defs>
<clipPath id="clip0_47_3829">
<rect width="16" height="8" fill="white" transform="translate(18 29)"/>
</clipPath>
</defs>
</svg>
