<svg width="24" height="25" viewBox="0 0 24 25" fill="none" xmlns="http://www.w3.org/2000/svg">
<rect y="0.5" width="24" height="24" rx="8" fill="#E5ECF6"/>
<path d="M13.5 6.5V10H17L13.5 6.5Z" fill="#1C1C1C"/>
<path d="M16.5 10.2071V12.5C16.5 12.7761 16.7239 13 17 13C17.2761 13 17.5 12.7761 17.5 12.5V10C17.5 9.86739 17.4473 9.74021 17.3536 9.64645L13.8536 6.14645C13.7598 6.05268 13.6326 6 13.5 6L7.5 6C7.08579 6 6.79289 6.29289 6.79289 6.29289C6.5 6.58579 6.5 7 6.5 7V12.5C6.5 12.7761 6.72386 13 7 13C7.27614 13 7.5 12.7761 7.5 12.5V7H13.2929L16.5 10.2071Z" fill="#1C1C1C"/>
<path d="M13.5 10.5H17C17.2761 10.5 17.5 10.2761 17.5 10C17.5 9.72386 17.2761 9.5 17 9.5H14V6.5C14 6.22386 13.7761 6 13.5 6C13.2239 6 13 6.22386 13 6.5V10C13 10.2761 13.2239 10.5 13.5 10.5Z" fill="#1C1C1C"/>
<path fill-rule="evenodd" clip-rule="evenodd" d="M6.5 18V15C6.5 14.7239 6.72386 14.5 7 14.5H8C8 14.5 8.62132 14.5 9.06066 14.9393C9.06066 14.9393 9.5 15.3787 9.5 16C9.5 16 9.5 16.6213 9.06066 17.0607C9.06066 17.0607 8.62132 17.5 8 17.5H7.5V18C7.5 18.2761 7.27614 18.5 7 18.5C6.72386 18.5 6.5 18.2761 6.5 18ZM8 16.5H7.5V15.5H8C8 15.5 8.20711 15.5 8.35355 15.6464C8.35355 15.6464 8.5 15.7929 8.5 16C8.5 16 8.5 16.2071 8.35355 16.3536C8.35355 16.3536 8.20711 16.5 8 16.5Z" fill="#1C1C1C"/>
<path d="M15.25 15V18C15.25 18.2761 15.4739 18.5 15.75 18.5C16.0261 18.5 16.25 18.2761 16.25 18V15.5H17.5C17.7761 15.5 18 15.2761 18 15C18 14.7239 17.7761 14.5 17.5 14.5H15.75C15.4739 14.5 15.25 14.7239 15.25 15Z" fill="#1C1C1C"/>
<path d="M17.25 16.25H15.75C15.4739 16.25 15.25 16.4739 15.25 16.75C15.25 17.0261 15.4739 17.25 15.75 17.25H17.25C17.5261 17.25 17.75 17.0261 17.75 16.75C17.75 16.4739 17.5261 16.25 17.25 16.25Z" fill="#1C1C1C"/>
<path fill-rule="evenodd" clip-rule="evenodd" d="M11.125 18.5C10.8489 18.5 10.625 18.2761 10.625 18V15C10.625 14.7239 10.8489 14.5 11.125 14.5H12C12 14.5 12.8284 14.5 13.4142 15.0858C13.4142 15.0858 14 15.6716 14 16.5C14 16.5 14 17.3284 13.4142 17.9142C13.4142 17.9142 12.8284 18.5 12 18.5H11.125ZM12 17.5H11.625V15.5H12C12 15.5 12.4142 15.5 12.7071 15.7929C12.7071 15.7929 13 16.0858 13 16.5C13 16.5 13 16.9142 12.7071 17.2071C12.7071 17.2071 12.4142 17.5 12 17.5Z" fill="#1C1C1C"/>
</svg>
