<svg width="22" height="22" viewBox="0 0 22 22" fill="none" xmlns="http://www.w3.org/2000/svg">
<path d="M2.0625 2.55609V19.4428C2.06261 19.4794 2.07354 19.5152 2.09391 19.5457C2.11428 19.5761 2.14319 19.5999 2.17701 19.614C2.21083 19.6281 2.24806 19.6319 2.28402 19.6249C2.31999 19.6179 2.35309 19.6004 2.37918 19.5747L11.1719 10.9999L2.37918 2.42417C2.35309 2.39845 2.31999 2.381 2.28402 2.37402C2.24806 2.36703 2.21083 2.37082 2.17701 2.38491C2.14319 2.399 2.11428 2.42276 2.09391 2.45321C2.07354 2.48366 2.06261 2.51945 2.0625 2.55609Z" fill="black"/>
<path d="M14.8586 7.47669L3.83371 1.40263L3.82683 1.39876C3.63691 1.29564 3.45644 1.55259 3.61199 1.70212L12.2543 9.96587L14.8586 7.47669Z" fill="black"/>
<path d="M3.61286 20.2978C3.45645 20.4473 3.63692 20.7043 3.8277 20.6012L3.83458 20.5973L14.8586 14.5232L12.2543 12.0332L3.61286 20.2978Z" fill="black"/>
<path d="M19.3093 9.92602L16.2306 8.23047L13.3358 11.0002L16.2306 13.7687L19.3093 12.0745C20.1468 11.6117 20.1468 10.3888 19.3093 9.92602Z" fill="black"/>
</svg>
