<svg width="242" height="73" viewBox="0 0 242 73" fill="none" xmlns="http://www.w3.org/2000/svg">
<path d="M18.2501 18.3715V54.8715C13.4099 54.8715 8.76796 52.9487 5.34542 49.5262C1.92288 46.1036 0.00012207 41.4617 0.00012207 36.6215C0.00012207 31.7813 1.92289 27.1393 5.34542 23.7168C8.76796 20.2942 13.4099 18.3715 18.2501 18.3715Z" fill="#02F6AD"/>
<path d="M18.25 18.25C18.25 8.1708 26.4208 0 36.5 0C46.5792 0 54.75 8.1708 54.75 18.25V54.75C54.75 64.8292 46.5792 73 36.5 73C26.4614 73 18.3158 64.8949 18.2504 54.8717C28.3294 54.8715 36.5 46.7007 36.5 36.6217C36.5 26.5425 28.3292 18.3717 18.25 18.3717V18.25Z" fill="#02F6AD"/>
<path d="M100.174 29.919C100.174 26.8694 99.127 24.2294 97.0332 22.0901C94.985 19.9507 91.8443 18.8583 87.7022 18.8583H75.094V54.4982H80.6926V41.2983H87.0195C91.1615 41.2983 94.3477 40.2059 96.6691 38.0666C98.9905 35.8817 100.174 33.1507 100.174 29.919ZM87.2016 24.0473C89.8415 24.0473 91.7077 24.639 92.8002 25.8225C93.9381 27.0059 94.4843 28.4169 94.4843 30.0556C94.4843 33.3328 92.1629 36.1548 87.2016 36.1548H80.6926V24.0473H87.2016Z" fill="#02F6AD"/>
<path d="M113.173 29.6914C109.623 29.6914 106.573 30.9204 104.07 33.3328C101.566 35.7452 100.292 38.7493 100.292 42.2997C100.292 45.85 101.521 48.8541 104.024 51.2665C106.528 53.6789 109.577 54.9079 113.128 54.9079C116.724 54.9079 119.728 53.6789 122.186 51.2665C124.689 48.8086 125.918 45.8045 125.918 42.2086C125.918 38.6583 124.689 35.6997 122.186 33.2873C119.682 30.8749 116.678 29.6914 113.173 29.6914ZM107.848 36.8376C109.213 35.3355 110.989 34.6073 113.128 34.6073C115.267 34.6073 117.042 35.3355 118.362 36.8376C119.728 38.3397 120.411 40.1604 120.411 42.2997C120.411 44.439 119.728 46.2596 118.408 47.7617C117.088 49.2638 115.313 49.992 113.173 49.992C111.034 49.992 109.259 49.2183 107.893 47.7162C106.528 46.1686 105.845 44.3479 105.845 42.2086C105.845 40.0693 106.528 38.2941 107.848 36.8376Z" fill="#02F6AD"/>
<path d="M141.884 30.1921C141.566 30.1011 141.156 30.0555 140.564 30.0555C137.606 30.0555 135.375 31.33 133.873 34.0611V30.1921H128.593V54.4982H134.01V42.1631C134.01 37.93 136.195 34.9259 140.337 34.9259C140.929 34.9259 141.429 34.9714 141.884 35.0624V30.1921Z" fill="#02F6AD"/>
<path d="M159.708 35.0624V30.1921H153.745V22.6818H148.329V30.1921H143.868V35.0624H148.329V46.6693C148.329 51.9493 151.424 54.7713 156.749 54.7713C157.796 54.7713 158.798 54.5893 159.662 54.2707V49.6734C159.071 49.81 158.479 49.8555 157.933 49.8555C155.156 49.8555 153.745 48.7176 153.745 45.8045V35.0624H159.708Z" fill="#02F6AD"/>
<path d="M178.086 38.021C178.086 39.3866 177.313 40.0693 175.811 40.0693H172.806C168.528 40.0693 162.702 41.8445 162.702 47.4886V47.7617C162.702 49.8555 163.475 51.5851 165.023 52.9051C166.571 54.2251 168.528 54.9079 170.895 54.9079C174.172 54.9079 176.539 53.6789 178.041 51.1755V54.4982H183.366V39.0224C183.366 37.3383 183.093 35.8817 182.547 34.6528C181.045 31.33 177.995 29.6914 173.444 29.6914C168.482 29.6914 165.023 31.7397 163.111 35.8817L167.253 38.2486C168.482 35.6542 170.531 34.3797 173.307 34.3797C176.357 34.3797 178.086 36.0183 178.086 38.021ZM178.041 44.6665C178.041 48.3079 175.674 50.5838 171.987 50.5838C169.666 50.5838 168.118 49.2638 168.118 47.261C168.118 46.2141 168.619 45.3948 169.575 44.8031C170.576 44.2114 171.668 43.8928 172.806 43.8928H178.041V44.6665Z" fill="#02F6AD"/>
<path d="M186.932 18.8809V31.6486V45.85C186.932 51.5396 189.89 54.7258 194.988 54.7258C195.99 54.7258 196.945 54.5438 197.81 54.2251V49.6279C197.219 49.7645 196.672 49.81 196.081 49.81C193.577 49.81 192.348 48.3534 192.348 45.4403V18.8809H186.932Z" fill="#02F6AD"/>
<path d="M202.199 30.1921H196.373L206.66 54.3617L205.659 56.8196C204.339 60.0969 202.245 60.5408 199.468 60.5408C198.512 60.5408 197.875 60.4953 197.511 60.3587V65.047C198.33 65.3201 199.377 65.4567 200.606 65.4567C205.477 65.4567 208.572 63.6472 210.802 58.1851L222.227 30.1921H216.492L209.619 48.3079L202.199 30.1921Z" fill="#02F6AD"/>
<path d="M232.411 54.9079C235.142 54.9079 237.372 54.2251 239.056 52.8141C240.74 51.4031 241.605 49.5824 241.605 47.3521C241.605 43.5741 238.692 40.9341 233.185 39.7052C230.044 39.0224 228.678 38.2031 228.678 36.61C228.678 35.29 230.408 34.2431 232.092 34.2431C234.414 34.2431 236.098 35.3355 237.19 37.5204L241.378 35.1535C239.694 31.5121 236.644 29.6914 232.274 29.6914C229.907 29.6914 227.859 30.3742 226.084 31.7852C224.309 33.1962 223.444 34.9714 223.444 37.1562C223.444 38.8859 224.036 40.3424 225.174 41.5714C226.494 42.9824 228.542 43.9383 231.227 44.4845C234.55 45.1672 236.234 46.2596 236.234 47.6707C236.234 49.3093 234.459 50.3562 232.411 50.3562C229.816 50.3562 227.905 49.0362 226.585 46.4417L222.352 48.8086C224.218 52.8596 227.586 54.9079 232.411 54.9079Z" fill="#02F6AD"/>
</svg>
