<svg width="26" height="25" viewBox="0 0 26 25" fill="none" xmlns="http://www.w3.org/2000/svg">
<path d="M4.67077 4.75718C8.59877 1.53818 14.4038 1.76218 18.0708 5.42918C21.9758 9.33418 21.9758 15.6662 18.0708 19.5712C14.1658 23.4762 7.83377 23.4762 3.92877 19.5712C2.7304 18.3744 1.85585 16.8928 1.38723 15.2653C0.918614 13.6378 0.871313 11.9179 1.24977 10.2672L1.32677 9.95418L3.26077 10.4642C2.78131 12.2864 2.96046 14.2195 3.76665 15.9226C4.57283 17.6257 5.95431 18.9896 7.6676 19.7739C9.3809 20.5582 11.3161 20.7125 13.132 20.2098C14.948 19.707 16.5282 18.5794 17.5942 17.0256C18.6602 15.4718 19.1435 13.5917 18.959 11.7164C18.7745 9.84121 17.934 8.0913 16.5856 6.77508C15.2373 5.45887 13.4676 4.66084 11.5884 4.52165C9.70932 4.38245 7.84136 4.91101 6.31377 6.01418L6.09277 6.18018L7.10977 7.19718L2.51377 8.25718L3.57377 3.66118L4.66977 4.75718H4.67077ZM11.9998 6.50018V8.50018H14.4998V10.5002H8.99977C8.87482 10.5 8.75432 10.5465 8.66199 10.6307C8.56965 10.7149 8.51218 10.8306 8.50089 10.955C8.4896 11.0794 8.52531 11.2036 8.60099 11.303C8.67667 11.4024 8.78682 11.4699 8.90977 11.4922L8.99977 11.5002H12.9998C13.6628 11.5002 14.2987 11.7636 14.7675 12.2324C15.2364 12.7013 15.4998 13.3371 15.4998 14.0002C15.4998 14.6632 15.2364 15.2991 14.7675 15.7679C14.2987 16.2368 13.6628 16.5002 12.9998 16.5002H11.9998V18.5002H9.99977V16.5002H7.49977V14.5002H12.9998C13.1247 14.5004 13.2452 14.4539 13.3376 14.3697C13.4299 14.2855 13.4874 14.1698 13.4986 14.0454C13.5099 13.9209 13.4742 13.7968 13.3986 13.6973C13.3229 13.5979 13.2127 13.5304 13.0898 13.5082L12.9998 13.5002H8.99977C8.33673 13.5002 7.70084 13.2368 7.232 12.7679C6.76316 12.2991 6.49977 11.6632 6.49977 11.0002C6.49977 10.3371 6.76316 9.70125 7.232 9.23241C7.70084 8.76357 8.33673 8.50018 8.99977 8.50018H9.99977V6.50018H11.9998Z" fill="#02F6AD"/>
</svg>
