<svg width="22" height="22" viewBox="0 0 22 22" fill="none" xmlns="http://www.w3.org/2000/svg">
<path fill-rule="evenodd" clip-rule="evenodd" d="M14.8445 13.5769L19.6267 18.3591C19.7948 18.5273 19.8892 18.7554 19.8891 18.9932C19.889 19.231 19.7945 19.459 19.6262 19.6271C19.458 19.7952 19.23 19.8896 18.9922 19.8895C18.7544 19.8894 18.5263 19.7949 18.3582 19.6267L13.576 14.8444C12.1464 15.9517 10.3487 16.4728 8.54858 16.3016C6.74845 16.1305 5.08112 15.28 3.88579 13.9232C2.69045 12.5664 2.0569 10.8052 2.11403 8.99782C2.17115 7.19047 2.91465 5.47276 4.19327 4.19414C5.4719 2.91551 7.18961 2.17201 8.99695 2.11489C10.8043 2.05777 12.5655 2.69132 13.9223 3.88665C15.2792 5.08198 16.1296 6.74931 16.3008 8.54945C16.4719 10.3496 15.9508 12.1473 14.8436 13.5769H14.8445ZM9.22225 14.5556C10.6367 14.5556 11.9933 13.9937 12.9935 12.9935C13.9937 11.9933 14.5556 10.6367 14.5556 9.22222C14.5556 7.80773 13.9937 6.45118 12.9935 5.45099C11.9933 4.45079 10.6367 3.88889 9.22225 3.88889C7.80776 3.88889 6.4512 4.45079 5.45101 5.45099C4.45082 6.45118 3.88891 7.80773 3.88891 9.22222C3.88891 10.6367 4.45082 11.9933 5.45101 12.9935C6.4512 13.9937 7.80776 14.5556 9.22225 14.5556Z" fill="white"/>
</svg>
