<svg width="137" height="56" viewBox="0 0 137 56" fill="none" xmlns="http://www.w3.org/2000/svg">
<rect x="0.26123" width="136" height="56" rx="8" fill="#141414"/>
<path d="M50.9017 24.7434V30.0354C50.9017 30.7794 51.0817 31.3314 51.4417 31.6914C51.8097 32.0514 52.3177 32.2314 52.9657 32.2314C53.6057 32.2314 54.1057 32.0514 54.4657 31.6914C54.8337 31.3314 55.0177 30.7794 55.0177 30.0354V24.7434H56.1097V30.0234C56.1097 30.7194 55.9697 31.3074 55.6897 31.7874C55.4097 32.2594 55.0297 32.6114 54.5497 32.8434C54.0777 33.0754 53.5457 33.1914 52.9537 33.1914C52.3617 33.1914 51.8257 33.0754 51.3457 32.8434C50.8737 32.6114 50.4977 32.2594 50.2177 31.7874C49.9457 31.3074 49.8097 30.7194 49.8097 30.0234V24.7434H50.9017ZM59.0233 27.7434C59.2393 27.3674 59.5593 27.0554 59.9833 26.8074C60.4153 26.5514 60.9153 26.4234 61.4833 26.4234C62.0673 26.4234 62.5953 26.5634 63.0673 26.8434C63.5473 27.1234 63.9233 27.5194 64.1953 28.0314C64.4673 28.5354 64.6033 29.1234 64.6033 29.7954C64.6033 30.4594 64.4673 31.0514 64.1953 31.5714C63.9233 32.0914 63.5473 32.4954 63.0673 32.7834C62.5953 33.0714 62.0673 33.2154 61.4833 33.2154C60.9233 33.2154 60.4273 33.0914 59.9953 32.8434C59.5713 32.5874 59.2473 32.2714 59.0233 31.8954V36.2274H57.9313V26.5314H59.0233V27.7434ZM63.4873 29.7954C63.4873 29.2994 63.3873 28.8674 63.1873 28.4994C62.9873 28.1314 62.7153 27.8514 62.3713 27.6594C62.0353 27.4674 61.6633 27.3714 61.2553 27.3714C60.8553 27.3714 60.4833 27.4714 60.1393 27.6714C59.8033 27.8634 59.5313 28.1474 59.3233 28.5234C59.1233 28.8914 59.0233 29.3194 59.0233 29.8074C59.0233 30.3034 59.1233 30.7394 59.3233 31.1154C59.5313 31.4834 59.8033 31.7674 60.1393 31.9674C60.4833 32.1594 60.8553 32.2554 61.2553 32.2554C61.6633 32.2554 62.0353 32.1594 62.3713 31.9674C62.7153 31.7674 62.9873 31.4834 63.1873 31.1154C63.3873 30.7394 63.4873 30.2994 63.4873 29.7954ZM67.1327 24.2274V33.1074H66.0407V24.2274H67.1327ZM71.8618 33.2154C71.2458 33.2154 70.6858 33.0754 70.1818 32.7954C69.6858 32.5154 69.2938 32.1194 69.0058 31.6074C68.7258 31.0874 68.5858 30.4874 68.5858 29.8074C68.5858 29.1354 68.7298 28.5434 69.0178 28.0314C69.3138 27.5114 69.7138 27.1154 70.2178 26.8434C70.7218 26.5634 71.2858 26.4234 71.9098 26.4234C72.5338 26.4234 73.0978 26.5634 73.6018 26.8434C74.1058 27.1154 74.5018 27.5074 74.7898 28.0194C75.0858 28.5314 75.2338 29.1274 75.2338 29.8074C75.2338 30.4874 75.0818 31.0874 74.7778 31.6074C74.4818 32.1194 74.0778 32.5154 73.5658 32.7954C73.0538 33.0754 72.4858 33.2154 71.8618 33.2154ZM71.8618 32.2554C72.2538 32.2554 72.6218 32.1634 72.9658 31.9794C73.3098 31.7954 73.5858 31.5194 73.7938 31.1514C74.0098 30.7834 74.1178 30.3354 74.1178 29.8074C74.1178 29.2794 74.0138 28.8314 73.8058 28.4634C73.5978 28.0954 73.3258 27.8234 72.9898 27.6474C72.6538 27.4634 72.2898 27.3714 71.8978 27.3714C71.4978 27.3714 71.1298 27.4634 70.7938 27.6474C70.4658 27.8234 70.2018 28.0954 70.0018 28.4634C69.8018 28.8314 69.7018 29.2794 69.7018 29.8074C69.7018 30.3434 69.7978 30.7954 69.9898 31.1634C70.1898 31.5314 70.4538 31.8074 70.7818 31.9914C71.1098 32.1674 71.4698 32.2554 71.8618 32.2554ZM76.2616 29.7954C76.2616 29.1234 76.3976 28.5354 76.6696 28.0314C76.9416 27.5194 77.3136 27.1234 77.7856 26.8434C78.2656 26.5634 78.7976 26.4234 79.3816 26.4234C79.9576 26.4234 80.4576 26.5474 80.8816 26.7954C81.3056 27.0434 81.6216 27.3554 81.8296 27.7314V26.5314H82.9336V33.1074H81.8296V31.8834C81.6136 32.2674 81.2896 32.5874 80.8576 32.8434C80.4336 33.0914 79.9376 33.2154 79.3696 33.2154C78.7856 33.2154 78.2576 33.0714 77.7856 32.7834C77.3136 32.4954 76.9416 32.0914 76.6696 31.5714C76.3976 31.0514 76.2616 30.4594 76.2616 29.7954ZM81.8296 29.8074C81.8296 29.3114 81.7296 28.8794 81.5296 28.5114C81.3296 28.1434 81.0576 27.8634 80.7136 27.6714C80.3776 27.4714 80.0056 27.3714 79.5976 27.3714C79.1896 27.3714 78.8176 27.4674 78.4816 27.6594C78.1456 27.8514 77.8776 28.1314 77.6776 28.4994C77.4776 28.8674 77.3776 29.2994 77.3776 29.7954C77.3776 30.2994 77.4776 30.7394 77.6776 31.1154C77.8776 31.4834 78.1456 31.7674 78.4816 31.9674C78.8176 32.1594 79.1896 32.2554 79.5976 32.2554C80.0056 32.2554 80.3776 32.1594 80.7136 31.9674C81.0576 31.7674 81.3296 31.4834 81.5296 31.1154C81.7296 30.7394 81.8296 30.3034 81.8296 29.8074ZM84.371 29.7954C84.371 29.1234 84.507 28.5354 84.779 28.0314C85.051 27.5194 85.423 27.1234 85.895 26.8434C86.375 26.5634 86.911 26.4234 87.503 26.4234C88.015 26.4234 88.491 26.5434 88.931 26.7834C89.371 27.0154 89.707 27.3234 89.939 27.7074V24.2274H91.043V33.1074H89.939V31.8714C89.723 32.2634 89.403 32.5874 88.979 32.8434C88.555 33.0914 88.059 33.2154 87.491 33.2154C86.907 33.2154 86.375 33.0714 85.895 32.7834C85.423 32.4954 85.051 32.0914 84.779 31.5714C84.507 31.0514 84.371 30.4594 84.371 29.7954ZM89.939 29.8074C89.939 29.3114 89.839 28.8794 89.639 28.5114C89.439 28.1434 89.167 27.8634 88.823 27.6714C88.487 27.4714 88.115 27.3714 87.707 27.3714C87.299 27.3714 86.927 27.4674 86.591 27.6594C86.255 27.8514 85.987 28.1314 85.787 28.4994C85.587 28.8674 85.487 29.2994 85.487 29.7954C85.487 30.2994 85.587 30.7394 85.787 31.1154C85.987 31.4834 86.255 31.7674 86.591 31.9674C86.927 32.1594 87.299 32.2554 87.707 32.2554C88.115 32.2554 88.487 32.1594 88.823 31.9674C89.167 31.7674 89.439 31.4834 89.639 31.1154C89.839 30.7394 89.939 30.3034 89.939 29.8074ZM97.1796 24.2274V33.1074H96.0876V24.2274H97.1796ZM101.909 33.2154C101.293 33.2154 100.733 33.0754 100.229 32.7954C99.7327 32.5154 99.3407 32.1194 99.0527 31.6074C98.7727 31.0874 98.6327 30.4874 98.6327 29.8074C98.6327 29.1354 98.7767 28.5434 99.0647 28.0314C99.3607 27.5114 99.7607 27.1154 100.265 26.8434C100.769 26.5634 101.333 26.4234 101.957 26.4234C102.581 26.4234 103.145 26.5634 103.649 26.8434C104.153 27.1154 104.549 27.5074 104.837 28.0194C105.133 28.5314 105.281 29.1274 105.281 29.8074C105.281 30.4874 105.129 31.0874 104.825 31.6074C104.529 32.1194 104.125 32.5154 103.613 32.7954C103.101 33.0754 102.533 33.2154 101.909 33.2154ZM101.909 32.2554C102.301 32.2554 102.669 32.1634 103.013 31.9794C103.357 31.7954 103.633 31.5194 103.841 31.1514C104.057 30.7834 104.165 30.3354 104.165 29.8074C104.165 29.2794 104.061 28.8314 103.853 28.4634C103.645 28.0954 103.373 27.8234 103.037 27.6474C102.701 27.4634 102.337 27.3714 101.945 27.3714C101.545 27.3714 101.177 27.4634 100.841 27.6474C100.513 27.8234 100.249 28.0954 100.049 28.4634C99.8487 28.8314 99.7487 29.2794 99.7487 29.8074C99.7487 30.3434 99.8447 30.7954 100.037 31.1634C100.237 31.5314 100.501 31.8074 100.829 31.9914C101.157 32.1674 101.517 32.2554 101.909 32.2554ZM109.428 26.4234C109.996 26.4234 110.492 26.5474 110.916 26.7954C111.348 27.0434 111.668 27.3554 111.876 27.7314V26.5314H112.98V33.2514C112.98 33.8514 112.852 34.3834 112.596 34.8474C112.34 35.3194 111.972 35.6874 111.492 35.9514C111.02 36.2154 110.468 36.3474 109.836 36.3474C108.972 36.3474 108.252 36.1434 107.676 35.7354C107.1 35.3274 106.76 34.7714 106.656 34.0674H107.736C107.856 34.4674 108.104 34.7874 108.48 35.0274C108.856 35.2754 109.308 35.3994 109.836 35.3994C110.436 35.3994 110.924 35.2114 111.3 34.8354C111.684 34.4594 111.876 33.9314 111.876 33.2514V31.8714C111.66 32.2554 111.34 32.5754 110.916 32.8314C110.492 33.0874 109.996 33.2154 109.428 33.2154C108.844 33.2154 108.312 33.0714 107.832 32.7834C107.36 32.4954 106.988 32.0914 106.716 31.5714C106.444 31.0514 106.308 30.4594 106.308 29.7954C106.308 29.1234 106.444 28.5354 106.716 28.0314C106.988 27.5194 107.36 27.1234 107.832 26.8434C108.312 26.5634 108.844 26.4234 109.428 26.4234ZM111.876 29.8074C111.876 29.3114 111.776 28.8794 111.576 28.5114C111.376 28.1434 111.104 27.8634 110.76 27.6714C110.424 27.4714 110.052 27.3714 109.644 27.3714C109.236 27.3714 108.864 27.4674 108.528 27.6594C108.192 27.8514 107.924 28.1314 107.724 28.4994C107.524 28.8674 107.424 29.2994 107.424 29.7954C107.424 30.2994 107.524 30.7394 107.724 31.1154C107.924 31.4834 108.192 31.7674 108.528 31.9674C108.864 32.1594 109.236 32.2554 109.644 32.2554C110.052 32.2554 110.424 32.1594 110.76 31.9674C111.104 31.7674 111.376 31.4834 111.576 31.1154C111.776 30.7394 111.876 30.3034 111.876 29.8074ZM117.694 33.2154C117.078 33.2154 116.518 33.0754 116.014 32.7954C115.518 32.5154 115.126 32.1194 114.838 31.6074C114.558 31.0874 114.418 30.4874 114.418 29.8074C114.418 29.1354 114.562 28.5434 114.85 28.0314C115.146 27.5114 115.546 27.1154 116.05 26.8434C116.554 26.5634 117.118 26.4234 117.742 26.4234C118.366 26.4234 118.93 26.5634 119.434 26.8434C119.938 27.1154 120.334 27.5074 120.622 28.0194C120.918 28.5314 121.066 29.1274 121.066 29.8074C121.066 30.4874 120.914 31.0874 120.61 31.6074C120.314 32.1194 119.91 32.5154 119.398 32.7954C118.886 33.0754 118.318 33.2154 117.694 33.2154ZM117.694 32.2554C118.086 32.2554 118.454 32.1634 118.798 31.9794C119.142 31.7954 119.418 31.5194 119.626 31.1514C119.842 30.7834 119.95 30.3354 119.95 29.8074C119.95 29.2794 119.846 28.8314 119.638 28.4634C119.43 28.0954 119.158 27.8234 118.822 27.6474C118.486 27.4634 118.122 27.3714 117.73 27.3714C117.33 27.3714 116.962 27.4634 116.626 27.6474C116.298 27.8234 116.034 28.0954 115.834 28.4634C115.634 28.8314 115.534 29.2794 115.534 29.8074C115.534 30.3434 115.63 30.7954 115.822 31.1634C116.022 31.5314 116.286 31.8074 116.614 31.9914C116.942 32.1674 117.302 32.2554 117.694 32.2554Z" fill="#989898"/>
<path d="M28.7163 27.1914C28.7163 27.4675 28.9402 27.6914 29.2163 27.6914C29.4925 27.6914 29.7163 27.4675 29.7163 27.1914H28.7163ZM29.5699 15.8502C29.3746 15.6549 29.058 15.6549 28.8628 15.8502L25.6808 19.0321C25.4855 19.2274 25.4855 19.544 25.6808 19.7392C25.876 19.9345 26.1926 19.9345 26.3879 19.7392L29.2163 16.9108L32.0447 19.7392C32.24 19.9345 32.5566 19.9345 32.7518 19.7392C32.9471 19.544 32.9471 19.2274 32.7518 19.0321L29.5699 15.8502ZM29.7163 27.1914V16.2037H28.7163V27.1914H29.7163Z" fill="#989898"/>
<path d="M19.0742 21.6973V30.1076C19.0742 31.7644 20.4174 33.1076 22.0742 33.1076H35.9366C37.5934 33.1076 38.9366 31.7644 38.9366 30.1076V21.6973" stroke="#989898" stroke-linecap="round"/>
</svg>
