<svg width="24" height="25" viewBox="0 0 24 25" fill="none" xmlns="http://www.w3.org/2000/svg">
<rect y="0.5" width="24" height="24" rx="8" fill="#E5ECF6"/>
<path d="M11.5 18.5H13.25C13.5261 18.5 13.75 18.2761 13.75 18C13.75 17.7239 13.5261 17.5 13.25 17.5H12V15C12 14.7239 11.7761 14.5 11.5 14.5C11.2239 14.5 11 14.7239 11 15V18C11 18.2761 11.2239 18.5 11.5 18.5Z" fill="#1C1C1C"/>
<path d="M9.09987 18.2998C9.17944 18.4059 9.29801 18.4762 9.42929 18.495C9.45271 18.4983 9.47634 18.5 9.5 18.5L9.50172 18.5C9.60931 18.4996 9.71392 18.4646 9.8 18.4C9.9259 18.3056 10 18.1574 10 18L9.99996 17.9934C9.99857 17.8875 9.96357 17.7848 9.9 17.7L7.65 14.7C7.57044 14.5939 7.45199 14.5238 7.32071 14.505C7.29729 14.5017 7.27366 14.5 7.25 14.5L7.24828 14.5C7.14069 14.5004 7.03608 14.5354 6.95 14.6C6.84391 14.6796 6.77378 14.798 6.75503 14.9293C6.75168 14.9527 6.75 14.9763 6.75 15L6.75 15.0017C6.75037 15.1093 6.78544 15.2139 6.85 15.3L9.09987 18.2998Z" fill="#1C1C1C"/>
<path d="M6.85 17.7C6.78509 17.7865 6.75 17.8918 6.75 18L6.75002 18.0044C6.75021 18.0266 6.75189 18.0487 6.75503 18.0707C6.77378 18.202 6.84391 18.3204 6.95 18.4C7.03655 18.4649 7.14181 18.5 7.25 18.5L7.2544 18.5C7.27659 18.4998 7.29874 18.4981 7.32071 18.495C7.45199 18.4762 7.57044 18.4061 7.65 18.3L9.9 15.3C9.96491 15.2135 10 15.1082 10 15L9.99998 14.9956C9.99979 14.9734 9.99811 14.9513 9.99497 14.9293C9.97622 14.798 9.90609 14.6796 9.8 14.6C9.71345 14.5351 9.60819 14.5 9.5 14.5L9.4956 14.5C9.47341 14.5002 9.45126 14.5019 9.42929 14.505C9.29801 14.5238 9.17956 14.5939 9.1 14.7L6.85 17.7Z" fill="#1C1C1C"/>
<path d="M15.9362 15.4375C16.2914 15.4384 16.5761 15.6508 16.5761 15.6508C16.6624 15.7152 16.7673 15.75 16.875 15.75C16.8818 15.75 16.8887 15.7499 16.8955 15.7496C17.046 15.7434 17.1857 15.6697 17.2758 15.5489C17.3402 15.4626 17.375 15.3577 17.375 15.25L17.375 15.2443C17.3747 15.2221 17.373 15.1999 17.3698 15.178C17.3507 15.0468 17.2802 14.9285 17.1739 14.8492C16.6244 14.4393 15.9388 14.4375 15.9388 14.4375C15.3281 14.4375 14.9324 14.7766 14.9324 14.7766C14.5 15.1473 14.5 15.75 14.5 15.75C14.5 16.3454 15.0522 16.6663 15.0522 16.6663C15.2928 16.8062 15.8476 16.9534 15.8476 16.9534C16.5 17.1266 16.5 17.25 16.5 17.25C16.5 17.412 16.4102 17.4695 16.4102 17.4695C16.2648 17.5625 15.9375 17.5625 15.9375 17.5625C15.5838 17.5616 15.2993 17.3494 15.2993 17.3494C15.2129 17.285 15.1077 17.25 15 17.25C14.9932 17.25 14.9863 17.2501 14.9795 17.2504C14.829 17.2566 14.6893 17.3303 14.5992 17.4511C14.5348 17.5374 14.5 17.6423 14.5 17.75L14.5 17.7557C14.5003 17.7779 14.502 17.8001 14.5052 17.822C14.5243 17.9532 14.5948 18.0715 14.7011 18.1508C15.2505 18.5604 15.9375 18.5625 15.9375 18.5625C16.5574 18.5625 16.9492 18.3118 16.9492 18.3118C17.5 17.9593 17.5 17.25 17.5 17.25C17.5 16.6272 16.9341 16.2904 16.9341 16.2904C16.6815 16.1401 16.104 15.9869 16.104 15.9869C15.5 15.8266 15.5 15.75 15.5 15.75C15.5 15.4375 15.9362 15.4375 15.9362 15.4375Z" fill="#1C1C1C"/>
<path d="M16.5 10.2071V12.5C16.5 12.7761 16.7239 13 17 13C17.2761 13 17.5 12.7761 17.5 12.5V10C17.5 9.86739 17.4473 9.74021 17.3536 9.64645L13.8536 6.14645C13.7598 6.05268 13.6326 6 13.5 6L7.5 6C7.08579 6 6.79289 6.29289 6.79289 6.29289C6.5 6.58579 6.5 7 6.5 7V12.5C6.5 12.7761 6.72386 13 7 13C7.27614 13 7.5 12.7761 7.5 12.5V7H13.2929L16.5 10.2071Z" fill="#1C1C1C"/>
<path d="M13.5 10.5H17C17.2761 10.5 17.5 10.2761 17.5 10C17.5 9.72386 17.2761 9.5 17 9.5H14V6.5C14 6.22386 13.7761 6 13.5 6C13.2239 6 13 6.22386 13 6.5V10C13 10.2761 13.2239 10.5 13.5 10.5Z" fill="#1C1C1C"/>
</svg>
