<svg width="14" height="17" viewBox="0 0 14 17" fill="none" xmlns="http://www.w3.org/2000/svg">
<path d="M7 13.6685C8.65 12.4136 9.896 11.2057 10.738 10.0449C11.5793 8.88414 12 7.79394 12 6.77433C12 5.8959 11.8293 5.14673 11.488 4.5268C11.146 3.90751 10.725 3.40555 10.225 3.02092C9.725 2.63692 9.18333 2.35865 8.6 2.1861C8.01667 2.01355 7.48333 1.92727 7 1.92727C6.51667 1.92727 5.98333 2.01355 5.4 2.1861C4.81667 2.35865 4.275 2.63692 3.775 3.02092C3.275 3.40555 2.85433 3.90751 2.513 4.5268C2.171 5.14673 2 5.8959 2 6.77433C2 7.79394 2.42067 8.88414 3.262 10.0449C4.104 11.2057 5.35 12.4136 7 13.6685ZM7 16.0449C4.65 14.4135 2.89567 12.8292 1.737 11.292C0.579 9.75473 0 8.24884 0 6.77433C0 5.66061 0.212667 4.68398 0.638 3.84445C1.06267 3.00555 1.60833 2.30375 2.275 1.73904C2.94167 1.17433 3.69167 0.750804 4.525 0.468451C5.35833 0.186098 6.18333 0.0449219 7 0.0449219C7.81667 0.0449219 8.64167 0.186098 9.475 0.468451C10.3083 0.750804 11.0583 1.17433 11.725 1.73904C12.3917 2.30375 12.9377 3.00555 13.363 3.84445C13.7877 4.68398 14 5.66061 14 6.77433C14 8.24884 13.4207 9.75473 12.262 11.292C11.104 12.8292 9.35 14.4135 7 16.0449ZM7 8.51551C7.55 8.51551 8.021 8.33104 8.413 7.9621C8.80433 7.59378 9 7.1508 9 6.63316C9 6.11551 8.80433 5.67222 8.413 5.30327C8.021 4.93496 7.55 4.7508 7 4.7508C6.45 4.7508 5.97933 4.93496 5.588 5.30327C5.196 5.67222 5 6.11551 5 6.63316C5 7.1508 5.196 7.59378 5.588 7.9621C5.97933 8.33104 6.45 8.51551 7 8.51551Z" fill="#02F6AD"/>
</svg>
