<svg width="23" height="23" viewBox="0 0 23 23" fill="none" xmlns="http://www.w3.org/2000/svg">
<path fill-rule="evenodd" clip-rule="evenodd" d="M11.5 6.03129C11.5 6.03129 13.7652 6.03129 15.367 7.63305C15.367 7.63305 16.9688 9.23481 16.9688 11.5C16.9688 11.5 16.9688 13.7653 15.367 15.367C15.367 15.367 13.7652 16.9688 11.5 16.9688C11.5 16.9688 9.23478 16.9688 7.63302 15.367C7.63302 15.367 6.03126 13.7653 6.03126 11.5C6.03126 11.5 6.03126 9.23481 7.63302 7.63305C7.63302 7.63305 9.23478 6.03129 11.5 6.03129ZM11.5 7.59379C11.5 7.59379 9.88199 7.59379 8.73787 8.7379C8.73787 8.7379 7.59376 9.88202 7.59376 11.5C7.59376 11.5 7.59376 13.1181 8.73787 14.2622C8.73787 14.2622 9.88199 15.4063 11.5 15.4063C11.5 15.4063 13.118 15.4063 14.2621 14.2622C14.2621 14.2622 15.4063 13.1181 15.4063 11.5C15.4063 11.5 15.4063 9.88202 14.2621 8.7379C14.2621 8.7379 13.118 7.59379 11.5 7.59379Z" fill="#02F6AD"/>
<path fill-rule="evenodd" clip-rule="evenodd" d="M17.332 2.58093L17.6741 4.97611C17.6741 4.97611 17.8536 5.14866 18.024 5.32587L20.4191 5.66801C20.6568 5.70198 20.8657 5.84343 20.9856 6.05157C20.9856 6.05157 21.6907 7.27602 22.0589 8.64014C22.1216 8.8724 22.0738 9.1206 21.9293 9.31296L20.4743 11.25C20.4743 11.25 20.4823 11.5342 20.4775 11.7543L21.9293 13.6871C22.0736 13.8791 22.1215 14.1269 22.0592 14.3589C22.0592 14.3589 21.6923 15.7247 20.9851 16.9493C20.8652 17.157 20.6565 17.2981 20.4191 17.332L18.0183 17.675C18.0183 17.675 17.825 17.8735 17.6746 18.0209L17.332 20.4191C17.298 20.6569 17.1566 20.8658 16.9484 20.9856C16.9484 20.9856 15.724 21.6907 14.3598 22.0589C14.1276 22.1216 13.8794 22.0738 13.687 21.9294L11.7596 20.4816C11.7596 20.4816 11.5 20.4921 11.2403 20.4816L9.31293 21.9294C9.12085 22.0736 8.87308 22.1215 8.64107 22.0592C8.64107 22.0592 7.27531 21.6924 6.05068 20.9851C5.84299 20.8652 5.7019 20.6565 5.66798 20.4191L5.32521 18.0196C5.32521 18.0196 5.15053 17.8495 4.98035 17.6748L2.5809 17.332C2.34313 17.298 2.1342 17.1566 2.01435 16.9484C2.01435 16.9484 1.30929 15.724 0.941039 14.3599C0.878338 14.1276 0.926142 13.8794 1.07063 13.6871L2.52561 11.75C2.52561 11.75 2.5177 11.4658 2.52241 11.2458L1.07063 9.31296C0.926352 9.12088 0.878466 8.87311 0.94078 8.6411C0.94078 8.6411 1.30761 7.27533 2.01485 6.05071C2.13479 5.84302 2.34347 5.70193 2.5809 5.66801L4.98035 5.32524C4.98035 5.32524 5.15052 5.15056 5.32521 4.98038L5.66798 2.58093C5.70195 2.34316 5.8434 2.13423 6.05154 2.01438C6.05154 2.01438 7.276 1.30932 8.64011 0.941069C8.87237 0.878368 9.12057 0.926173 9.31293 1.07066L11.2403 2.51839C11.2403 2.51839 11.5 2.50788 11.7596 2.51839L13.687 1.07066C13.8791 0.926383 14.1269 0.878496 14.3589 0.940811C14.3589 0.940811 15.7246 1.30764 16.9493 2.01488C17.157 2.13482 17.298 2.34351 17.332 2.58093ZM16.166 5.46791L15.8402 3.18742C15.8402 3.18742 15.1055 2.80169 14.3135 2.5543L12.4672 3.94107C12.313 4.05692 12.1214 4.11162 11.9292 4.09463C11.9292 4.09463 11.5 4.05667 11.0707 4.09463C10.8786 4.11162 10.687 4.05692 10.5327 3.94107L8.68692 2.55463C8.68692 2.55463 7.89488 2.80281 7.15963 3.18796L6.83392 5.46791C6.80896 5.64261 6.7256 5.80371 6.5974 5.92498C6.5974 5.92498 6.25183 6.25187 5.92495 6.59743C5.80368 6.72563 5.64258 6.809 5.46788 6.83395L3.18739 7.15974C3.18739 7.15974 2.80166 7.89444 2.55427 8.68651L3.94104 10.5328C4.05686 10.6869 4.11156 10.8785 4.09461 11.0706C4.09461 11.0706 4.06985 11.3512 4.09687 11.9636C4.10485 12.1445 4.04977 12.3225 3.94104 12.4673L2.5546 14.3131C2.5546 14.3131 2.80278 15.1051 3.18793 15.8404L5.46788 16.1661C5.64258 16.191 5.80368 16.2744 5.92495 16.4026C5.92495 16.4026 6.25184 16.7482 6.5974 17.075C6.7256 17.1963 6.80896 17.3574 6.83392 17.5321L7.15971 19.8126C7.15971 19.8126 7.89442 20.1983 8.68648 20.4457L10.5327 19.0589C10.687 18.9431 10.8786 18.8884 11.0707 18.9054C11.0707 18.9054 11.5 18.9433 11.9292 18.9054C12.1214 18.8884 12.313 18.9431 12.4672 19.0589L14.313 20.4454C14.313 20.4454 15.1051 20.1972 15.8403 19.8121L16.166 17.5321C16.1915 17.3537 16.2779 17.1896 16.4105 17.0676C16.4105 17.0676 16.6367 16.8595 17.0787 16.3987C17.1996 16.2726 17.3592 16.1908 17.5321 16.1661L19.8126 15.8403C19.8126 15.8403 20.1983 15.1056 20.4457 14.3135L19.0589 12.4673C18.9431 12.3131 18.8884 12.1215 18.9053 11.9294C18.9053 11.9294 18.9301 11.6488 18.9031 11.0364C18.8951 10.8555 18.9502 10.6775 19.0589 10.5328L20.4454 8.68694C20.4454 8.68694 20.1972 7.8949 19.812 7.15966L17.5321 6.83395C17.3535 6.80845 17.1893 6.72196 17.0673 6.58917C17.0673 6.58917 16.7573 6.25181 16.4102 5.93207C16.2777 5.8101 16.1915 5.64614 16.166 5.46791Z" fill="#02F6AD"/>
</svg>
