<svg width="23" height="23" viewBox="0 0 23 23" fill="none" xmlns="http://www.w3.org/2000/svg">
<path fill-rule="evenodd" clip-rule="evenodd" d="M11.5 6.03129C11.5 6.03129 13.7653 6.03129 15.367 7.63305C15.367 7.63305 16.9688 9.23481 16.9688 11.5C16.9688 11.5 16.9688 13.7653 15.367 15.367C15.367 15.367 13.7653 16.9688 11.5 16.9688C11.5 16.9688 9.23481 16.9688 7.63305 15.367C7.63305 15.367 6.03129 13.7653 6.03129 11.5C6.03129 11.5 6.03129 9.23481 7.63305 7.63305C7.63305 7.63305 9.23481 6.03129 11.5 6.03129ZM11.5 7.59379C11.5 7.59379 9.88202 7.59379 8.7379 8.7379C8.7379 8.7379 7.59379 9.88202 7.59379 11.5C7.59379 11.5 7.59379 13.1181 8.7379 14.2622C8.7379 14.2622 9.88202 15.4063 11.5 15.4063C11.5 15.4063 13.1181 15.4063 14.2622 14.2622C14.2622 14.2622 15.4063 13.1181 15.4063 11.5C15.4063 11.5 15.4063 9.88202 14.2622 8.7379C14.2622 8.7379 13.1181 7.59379 11.5 7.59379Z" fill="white"/>
<path fill-rule="evenodd" clip-rule="evenodd" d="M17.332 2.58093L17.6742 4.97611C17.6742 4.97611 17.8536 5.14866 18.0241 5.32587L20.4191 5.66801C20.6569 5.70198 20.8658 5.84343 20.9856 6.05157C20.9856 6.05157 21.6907 7.27602 22.0589 8.64014C22.1216 8.8724 22.0738 9.1206 21.9294 9.31296L20.4744 11.25C20.4744 11.25 20.4823 11.5342 20.4776 11.7543L21.9294 13.6871C22.0736 13.8791 22.1215 14.1269 22.0592 14.3589C22.0592 14.3589 21.6924 15.7247 20.9851 16.9493C20.8652 17.157 20.6565 17.2981 20.4191 17.332L18.0183 17.675C18.0183 17.675 17.825 17.8735 17.6746 18.0209L17.332 20.4191C17.298 20.6569 17.1566 20.8658 16.9484 20.9856C16.9484 20.9856 15.724 21.6907 14.3599 22.0589C14.1276 22.1216 13.8794 22.0738 13.6871 21.9294L11.7596 20.4816C11.7596 20.4816 11.5 20.4921 11.2404 20.4816L9.31296 21.9294C9.12088 22.0736 8.87311 22.1215 8.6411 22.0592C8.6411 22.0592 7.27534 21.6924 6.05071 20.9851C5.84302 20.8652 5.70193 20.6565 5.66801 20.4191L5.32524 18.0196C5.32524 18.0196 5.15056 17.8495 4.98038 17.6748L2.58093 17.332C2.34316 17.298 2.13423 17.1566 2.01438 16.9484C2.01438 16.9484 1.30932 15.724 0.941069 14.3599C0.878368 14.1276 0.926173 13.8794 1.07066 13.6871L2.52564 11.75C2.52564 11.75 2.51773 11.4658 2.52244 11.2458L1.07066 9.31296C0.926383 9.12088 0.878496 8.87311 0.940811 8.6411C0.940811 8.6411 1.30764 7.27533 2.01488 6.05071C2.13482 5.84302 2.34351 5.70193 2.58093 5.66801L4.98038 5.32524C4.98038 5.32524 5.15056 5.15056 5.32524 4.98038L5.66801 2.58093C5.70198 2.34316 5.84343 2.13423 6.05157 2.01438C6.05157 2.01438 7.27603 1.30932 8.64014 0.941069C8.8724 0.878368 9.1206 0.926173 9.31296 1.07066L11.2404 2.51839C11.2404 2.51839 11.5 2.50788 11.7596 2.51839L13.6871 1.07066C13.8791 0.926383 14.1269 0.878496 14.3589 0.940811C14.3589 0.940811 15.7247 1.30764 16.9493 2.01488C17.157 2.13482 17.2981 2.34351 17.332 2.58093ZM16.1661 5.46791L15.8403 3.18742C15.8403 3.18742 15.1056 2.80169 14.3135 2.5543L12.4673 3.94107C12.313 4.05692 12.1214 4.11162 11.9292 4.09463C11.9292 4.09463 11.5 4.05667 11.0708 4.09463C10.8786 4.11162 10.687 4.05692 10.5328 3.94107L8.68695 2.55463C8.68695 2.55463 7.89491 2.80281 7.15966 3.18796L6.83395 5.46791C6.809 5.64261 6.72563 5.80371 6.59743 5.92498C6.59743 5.92498 6.25187 6.25187 5.92498 6.59743C5.80371 6.72563 5.64261 6.809 5.46791 6.83395L3.18742 7.15974C3.18742 7.15974 2.80169 7.89444 2.5543 8.68651L3.94107 10.5328C4.05689 10.6869 4.11159 10.8785 4.09464 11.0706C4.09464 11.0706 4.06988 11.3512 4.0969 11.9636C4.10488 12.1445 4.0498 12.3225 3.94107 12.4673L2.55463 14.3131C2.55463 14.3131 2.80281 15.1051 3.18796 15.8404L5.46791 16.1661C5.64261 16.191 5.80371 16.2744 5.92498 16.4026C5.92498 16.4026 6.25187 16.7482 6.59743 17.075C6.72563 17.1963 6.809 17.3574 6.83395 17.5321L7.15974 19.8126C7.15974 19.8126 7.89445 20.1983 8.68651 20.4457L10.5328 19.0589C10.687 18.9431 10.8786 18.8884 11.0708 18.9054C11.0708 18.9054 11.5 18.9433 11.9292 18.9054C12.1214 18.8884 12.313 18.9431 12.4673 19.0589L14.3131 20.4454C14.3131 20.4454 15.1051 20.1972 15.8404 19.8121L16.1661 17.5321C16.1915 17.3537 16.2779 17.1896 16.4105 17.0676C16.4105 17.0676 16.6367 16.8595 17.0788 16.3987C17.1996 16.2726 17.3592 16.1908 17.5321 16.1661L19.8126 15.8403C19.8126 15.8403 20.1983 15.1056 20.4457 14.3135L19.0589 12.4673C18.9431 12.3131 18.8884 12.1215 18.9054 11.9294C18.9054 11.9294 18.9301 11.6488 18.9031 11.0364C18.8951 10.8555 18.9502 10.6775 19.0589 10.5328L20.4454 8.68694C20.4454 8.68694 20.1972 7.8949 19.8121 7.15966L17.5321 6.83395C17.3536 6.80845 17.1894 6.72196 17.0673 6.58917C17.0673 6.58917 16.7573 6.25181 16.4102 5.93207C16.2778 5.8101 16.1915 5.64614 16.1661 5.46791Z" fill="white"/>
</svg>
