<svg width="45" height="55" viewBox="0 0 45 55" fill="none" xmlns="http://www.w3.org/2000/svg">
<path d="M3.42266 41.0618V46.3538C3.42266 47.0978 3.60266 47.6498 3.96266 48.0098C4.33066 48.3698 4.83866 48.5498 5.48666 48.5498C6.12666 48.5498 6.62666 48.3698 6.98666 48.0098C7.35466 47.6498 7.53866 47.0978 7.53866 46.3538V41.0618H8.63066V46.3418C8.63066 47.0378 8.49066 47.6258 8.21066 48.1058C7.93066 48.5778 7.55066 48.9298 7.07066 49.1618C6.59866 49.3938 6.06666 49.5098 5.47466 49.5098C4.88266 49.5098 4.34666 49.3938 3.86666 49.1618C3.39466 48.9298 3.01866 48.5778 2.73866 48.1058C2.46666 47.6258 2.33066 47.0378 2.33066 46.3418V41.0618H3.42266ZM11.5443 44.0618C11.7603 43.6858 12.0803 43.3738 12.5043 43.1258C12.9363 42.8698 13.4363 42.7418 14.0043 42.7418C14.5883 42.7418 15.1163 42.8818 15.5883 43.1618C16.0683 43.4418 16.4443 43.8378 16.7163 44.3498C16.9883 44.8538 17.1243 45.4418 17.1243 46.1138C17.1243 46.7778 16.9883 47.3698 16.7163 47.8898C16.4443 48.4098 16.0683 48.8138 15.5883 49.1018C15.1163 49.3898 14.5883 49.5338 14.0043 49.5338C13.4443 49.5338 12.9483 49.4098 12.5163 49.1618C12.0923 48.9058 11.7683 48.5898 11.5443 48.2138V52.5458H10.4523V42.8498H11.5443V44.0618ZM16.0083 46.1138C16.0083 45.6178 15.9083 45.1858 15.7083 44.8178C15.5083 44.4498 15.2363 44.1698 14.8923 43.9778C14.5563 43.7858 14.1843 43.6898 13.7763 43.6898C13.3763 43.6898 13.0043 43.7898 12.6603 43.9898C12.3243 44.1818 12.0523 44.4658 11.8443 44.8418C11.6443 45.2098 11.5443 45.6378 11.5443 46.1258C11.5443 46.6218 11.6443 47.0578 11.8443 47.4338C12.0523 47.8018 12.3243 48.0858 12.6603 48.2858C13.0043 48.4778 13.3763 48.5738 13.7763 48.5738C14.1843 48.5738 14.5563 48.4778 14.8923 48.2858C15.2363 48.0858 15.5083 47.8018 15.7083 47.4338C15.9083 47.0578 16.0083 46.6178 16.0083 46.1138ZM19.6537 40.5458V49.4258H18.5617V40.5458H19.6537ZM24.3828 49.5338C23.7668 49.5338 23.2068 49.3938 22.7028 49.1138C22.2068 48.8338 21.8148 48.4378 21.5268 47.9258C21.2468 47.4058 21.1068 46.8058 21.1068 46.1258C21.1068 45.4538 21.2508 44.8618 21.5388 44.3498C21.8348 43.8298 22.2348 43.4338 22.7388 43.1618C23.2428 42.8818 23.8068 42.7418 24.4308 42.7418C25.0548 42.7418 25.6188 42.8818 26.1228 43.1618C26.6268 43.4338 27.0228 43.8258 27.3108 44.3378C27.6068 44.8498 27.7548 45.4458 27.7548 46.1258C27.7548 46.8058 27.6028 47.4058 27.2988 47.9258C27.0028 48.4378 26.5988 48.8338 26.0868 49.1138C25.5748 49.3938 25.0068 49.5338 24.3828 49.5338ZM24.3828 48.5738C24.7748 48.5738 25.1428 48.4818 25.4868 48.2978C25.8308 48.1138 26.1068 47.8378 26.3148 47.4698C26.5308 47.1018 26.6388 46.6538 26.6388 46.1258C26.6388 45.5978 26.5348 45.1498 26.3268 44.7818C26.1188 44.4138 25.8468 44.1418 25.5108 43.9658C25.1748 43.7818 24.8108 43.6898 24.4188 43.6898C24.0188 43.6898 23.6508 43.7818 23.3148 43.9658C22.9868 44.1418 22.7228 44.4138 22.5228 44.7818C22.3228 45.1498 22.2228 45.5978 22.2228 46.1258C22.2228 46.6618 22.3188 47.1138 22.5108 47.4818C22.7108 47.8498 22.9748 48.1258 23.3028 48.3098C23.6308 48.4858 23.9908 48.5738 24.3828 48.5738ZM28.7826 46.1138C28.7826 45.4418 28.9186 44.8538 29.1906 44.3498C29.4626 43.8378 29.8346 43.4418 30.3066 43.1618C30.7866 42.8818 31.3186 42.7418 31.9026 42.7418C32.4786 42.7418 32.9786 42.8658 33.4026 43.1138C33.8266 43.3618 34.1426 43.6738 34.3506 44.0498V42.8498H35.4546V49.4258H34.3506V48.2018C34.1346 48.5858 33.8106 48.9058 33.3786 49.1618C32.9546 49.4098 32.4586 49.5338 31.8906 49.5338C31.3066 49.5338 30.7786 49.3898 30.3066 49.1018C29.8346 48.8138 29.4626 48.4098 29.1906 47.8898C28.9186 47.3698 28.7826 46.7778 28.7826 46.1138ZM34.3506 46.1258C34.3506 45.6298 34.2506 45.1978 34.0506 44.8298C33.8506 44.4618 33.5786 44.1818 33.2346 43.9898C32.8986 43.7898 32.5266 43.6898 32.1186 43.6898C31.7106 43.6898 31.3386 43.7858 31.0026 43.9778C30.6666 44.1698 30.3986 44.4498 30.1986 44.8178C29.9986 45.1858 29.8986 45.6178 29.8986 46.1138C29.8986 46.6178 29.9986 47.0578 30.1986 47.4338C30.3986 47.8018 30.6666 48.0858 31.0026 48.2858C31.3386 48.4778 31.7106 48.5738 32.1186 48.5738C32.5266 48.5738 32.8986 48.4778 33.2346 48.2858C33.5786 48.0858 33.8506 47.8018 34.0506 47.4338C34.2506 47.0578 34.3506 46.6218 34.3506 46.1258ZM36.892 46.1138C36.892 45.4418 37.028 44.8538 37.3 44.3498C37.572 43.8378 37.944 43.4418 38.416 43.1618C38.896 42.8818 39.432 42.7418 40.024 42.7418C40.536 42.7418 41.012 42.8618 41.452 43.1018C41.892 43.3338 42.228 43.6418 42.46 44.0258V40.5458H43.564V49.4258H42.46V48.1898C42.244 48.5818 41.924 48.9058 41.5 49.1618C41.076 49.4098 40.58 49.5338 40.012 49.5338C39.428 49.5338 38.896 49.3898 38.416 49.1018C37.944 48.8138 37.572 48.4098 37.3 47.8898C37.028 47.3698 36.892 46.7778 36.892 46.1138ZM42.46 46.1258C42.46 45.6298 42.36 45.1978 42.16 44.8298C41.96 44.4618 41.688 44.1818 41.344 43.9898C41.008 43.7898 40.636 43.6898 40.228 43.6898C39.82 43.6898 39.448 43.7858 39.112 43.9778C38.776 44.1698 38.508 44.4498 38.308 44.8178C38.108 45.1858 38.008 45.6178 38.008 46.1138C38.008 46.6178 38.108 47.0578 38.308 47.4338C38.508 47.8018 38.776 48.0858 39.112 48.2858C39.448 48.4778 39.82 48.5738 40.228 48.5738C40.636 48.5738 41.008 48.4778 41.344 48.2858C41.688 48.0858 41.96 47.8018 42.16 47.4338C42.36 47.0578 42.46 46.6218 42.46 46.1258Z" fill="#989898"/>
<path d="M22.2061 14.4785C22.2061 15.0308 22.6538 15.4785 23.2061 15.4785C23.7583 15.4785 24.2061 15.0308 24.2061 14.4785H22.2061ZM23.9132 0.867444C23.5226 0.476919 22.8895 0.476919 22.4989 0.867444L16.135 7.2314C15.7445 7.62193 15.7445 8.25509 16.135 8.64562C16.5255 9.03614 17.1587 9.03614 17.5492 8.64562L23.2061 2.98876L28.8629 8.64562C29.2534 9.03614 29.8866 9.03614 30.2771 8.64562C30.6676 8.25509 30.6676 7.62193 30.2771 7.2314L23.9132 0.867444ZM24.2061 14.4785V1.57455H22.2061V14.4785H24.2061Z" fill="#989898"/>
<path d="M11.2949 8.02734V18.4276C11.2949 20.0845 12.6381 21.4276 14.2949 21.4276H31.6213C33.2782 21.4276 34.6213 20.0845 34.6213 18.4276V8.02734" stroke="#989898" stroke-width="2" stroke-linecap="round"/>
</svg>
