<svg width="40" height="41" viewBox="0 0 40 41" fill="none" xmlns="http://www.w3.org/2000/svg">
<g clip-path="url(#clip0_1542_8665)">
<path d="M36.6673 17.1579V33.8245C36.6673 34.2666 36.4917 34.6905 36.1792 35.0031C35.8666 35.3156 35.4427 35.4912 35.0007 35.4912H5.00065C4.55862 35.4912 4.1347 35.3156 3.82214 35.0031C3.50958 34.6905 3.33398 34.2666 3.33398 33.8245V17.1579H36.6673ZM36.6673 13.8245H3.33398V7.15788C3.33398 6.71585 3.50958 6.29193 3.82214 5.97937C4.1347 5.66681 4.55862 5.49121 5.00065 5.49121H35.0007C35.4427 5.49121 35.8666 5.66681 36.1792 5.97937C36.4917 6.29193 36.6673 6.71585 36.6673 7.15788V13.8245ZM25.0007 27.1579V30.4912H31.6673V27.1579H25.0007Z" fill="#02F6AD"/>
</g>
<defs>
<clipPath id="clip0_1542_8665">
<rect width="40" height="40" fill="white" transform="translate(0 0.491211)"/>
</clipPath>
</defs>
</svg>
