<svg width="249" height="25" viewBox="0 0 249 25" fill="none" xmlns="http://www.w3.org/2000/svg">
<g clip-path="url(#clip0_1498_16925)">
<path d="M130 3.98242H134C134.265 3.98242 134.52 4.08778 134.707 4.27531C134.895 4.46285 135 4.71721 135 4.98242V20.9824C135 21.2476 134.895 21.502 134.707 21.6895C134.52 21.8771 134.265 21.9824 134 21.9824H116C115.735 21.9824 115.48 21.8771 115.293 21.6895C115.105 21.502 115 21.2476 115 20.9824V4.98242C115 4.71721 115.105 4.46285 115.293 4.27531C115.48 4.08778 115.735 3.98242 116 3.98242H120V1.98242H122V3.98242H128V1.98242H130V3.98242ZM128 5.98242H122V7.98242H120V5.98242H117V9.98242H133V5.98242H130V7.98242H128V5.98242ZM133 11.9824H117V19.9824H133V11.9824Z" fill="#02F6AD"/>
</g>
<line y1="12.4824" x2="96" y2="12.4824" stroke="white"/>
<line x1="153" y1="12.4824" x2="249" y2="12.4824" stroke="white"/>
<defs>
<clipPath id="clip0_1498_16925">
<rect width="24" height="24" fill="white" transform="translate(113 0.982422)"/>
</clipPath>
</defs>
</svg>
