<svg width="25" height="26" viewBox="0 0 25 26" fill="none" xmlns="http://www.w3.org/2000/svg">
<path d="M9.93151 17.4336C9.74414 17.3743 9.60583 17.2301 9.60583 17.2301C9.45949 17.0775 9.26088 16.9917 9.05368 16.9914L9.05273 16.9914C9.04053 16.9914 9.02834 16.9917 9.01615 16.9923C8.82214 17.0018 8.63848 17.086 8.50097 17.2287C8.35405 17.3811 8.27148 17.5881 8.27148 17.8039C8.27148 17.8176 8.27182 17.8313 8.27248 17.845C8.28225 18.0457 8.36318 18.2355 8.49964 18.3777C8.91459 18.8103 9.47668 18.9882 9.47668 18.9882C10.0388 19.1661 10.6151 19.0471 10.6151 19.0471C11.1914 18.9282 11.6456 18.5406 11.6456 18.5406C12.0998 18.1531 12.3245 17.5885 12.3245 17.5885C12.5492 17.0239 12.4912 16.4158 12.4912 16.4158C12.4333 15.8078 12.1064 15.3001 12.1064 15.3001C11.8461 14.8958 11.4644 14.6313 11.4644 14.6313L12.3288 13.5076C12.5983 13.1572 12.5437 12.6459 12.2068 12.3655C12.0683 12.2503 11.8961 12.1875 11.7188 12.1875H8.98438C8.5529 12.1875 8.20312 12.5513 8.20312 13C8.20312 13.4487 8.5529 13.8125 8.98438 13.8125H10.0933L9.5462 14.5237C9.43509 14.6681 9.3747 14.8477 9.375 15.0326C9.37536 15.2481 9.45801 15.4546 9.60477 15.6068C9.75153 15.7589 9.95039 15.8441 10.1576 15.8437C10.3534 15.8434 10.5263 15.9392 10.5263 15.9392C10.6991 16.0349 10.8081 16.2042 10.8081 16.2042C10.917 16.3734 10.9364 16.5761 10.9364 16.5761C10.9557 16.7788 10.8808 16.967 10.8808 16.967C10.8059 17.1552 10.6545 17.2844 10.6545 17.2844C10.5031 17.4136 10.311 17.4532 10.311 17.4532C10.1189 17.4929 9.93151 17.4336 9.93151 17.4336Z" fill="#FBFAFB"/>
<path d="M14.8438 18.2812V14.625L14.5313 14.8687C14.3988 14.972 14.2383 15.0289 14.0728 15.0312L14.0625 15.0312C13.8166 15.0312 13.585 14.9108 13.4375 14.7063C13.3366 14.5664 13.2818 14.3964 13.2813 14.2215L13.2812 14.2188C13.2812 14.1803 13.2839 14.1419 13.2891 14.1038C13.3184 13.8905 13.428 13.698 13.5937 13.5687L15.1562 12.35C15.2915 12.2445 15.456 12.1875 15.625 12.1875C16.0565 12.1875 16.4062 12.5513 16.4062 13V18.2812C16.4062 18.73 16.0565 19.0938 15.625 19.0938C15.1935 19.0938 14.8438 18.73 14.8438 18.2812Z" fill="#FBFAFB"/>
<path fill-rule="evenodd" clip-rule="evenodd" d="M16.4062 3.25V2.4375C16.4062 1.98877 16.756 1.625 17.1875 1.625C17.619 1.625 17.9688 1.98877 17.9688 2.4375V3.25H20.3125C20.3125 3.25 20.9597 3.25 21.4174 3.72595C21.4174 3.72595 21.875 4.2019 21.875 4.875V21.125C21.875 21.125 21.875 21.7981 21.4174 22.274C21.4174 22.274 20.9597 22.75 20.3125 22.75H4.6875C4.6875 22.75 4.04029 22.75 3.58265 22.274C3.58265 22.274 3.125 21.7981 3.125 21.125V4.875C3.125 4.875 3.125 4.2019 3.58265 3.72595C3.58265 3.72595 4.04029 3.25 4.6875 3.25H7.03125V2.4375C7.03125 1.98877 7.38103 1.625 7.8125 1.625C8.24397 1.625 8.59375 1.98877 8.59375 2.4375V3.25H16.4062ZM4.6875 9.75V21.125H20.3125V9.75H4.6875ZM20.3125 8.125H4.6875V4.875H7.03125V5.6875C7.03125 6.13623 7.38103 6.5 7.8125 6.5C8.24397 6.5 8.59375 6.13623 8.59375 5.6875V4.875H16.4062V5.6875C16.4062 6.13623 16.756 6.5 17.1875 6.5C17.619 6.5 17.9688 6.13623 17.9688 5.6875V4.875H20.3125V8.125Z" fill="#FBFAFB"/>
</svg>
