<svg width="40" height="41" viewBox="0 0 40 41" fill="none" xmlns="http://www.w3.org/2000/svg">
<g clip-path="url(#clip0_1542_8685)">
<rect width="40" height="40" transform="translate(0 0.491211)" fill="#0D0D0D"/>
<path d="M28.334 5.49129H35.0007C35.4427 5.49129 35.8666 5.66689 36.1792 5.97945C36.4917 6.29201 36.6673 6.71593 36.6673 7.15796V33.8246C36.6673 34.2667 36.4917 34.6906 36.1792 35.0031C35.8666 35.3157 35.4427 35.4913 35.0007 35.4913H5.00065C4.55862 35.4913 4.1347 35.3157 3.82214 35.0031C3.50958 34.6906 3.33398 34.2667 3.33398 33.8246V7.15796C3.33398 6.71593 3.50958 6.29201 3.82214 5.97945C4.1347 5.66689 4.55862 5.49129 5.00065 5.49129H11.6673V2.15796H15.0007V5.49129H25.0007V2.15796H28.334V5.49129ZM25.0007 8.82463H15.0007V12.158H11.6673V8.82463H6.66732V15.4913H33.334V8.82463H28.334V12.158H25.0007V8.82463ZM33.334 18.8246H6.66732V32.158H33.334V18.8246Z" fill="#02F6AD"/>
</g>
<defs>
<clipPath id="clip0_1542_8685">
<rect width="40" height="40" fill="white" transform="translate(0 0.491211)"/>
</clipPath>
</defs>
</svg>
