<svg width="8" height="16" viewBox="0 0 8 16" fill="none" xmlns="http://www.w3.org/2000/svg">
<path fill-rule="evenodd" clip-rule="evenodd" d="M0.226752 15.1483C0.174368 15.096 0.132808 15.0339 0.10445 14.9656C0.0760932 14.8973 0.0614967 14.824 0.0614967 14.75C0.0614967 14.676 0.0760931 14.6028 0.10445 14.5344C0.132808 14.4661 0.174368 14.404 0.226752 14.3518L6.57963 8L0.226751 1.64825C0.121128 1.54263 0.0617902 1.39938 0.0617902 1.25C0.0617902 1.10063 0.121128 0.957376 0.226751 0.851754C0.332373 0.746132 0.475628 0.686794 0.625001 0.686794C0.774373 0.686794 0.917628 0.746132 1.02325 0.851754L7.77325 7.60175C7.82563 7.654 7.8672 7.71608 7.89555 7.78442C7.92391 7.85275 7.93851 7.92601 7.93851 8C7.93851 8.07399 7.92391 8.14725 7.89555 8.21559C7.8672 8.28393 7.82563 8.346 7.77325 8.39825L1.02325 15.1483C0.971001 15.2006 0.908927 15.2422 0.840589 15.2706C0.772251 15.2989 0.69899 15.3135 0.625002 15.3135C0.551013 15.3135 0.477753 15.2989 0.409414 15.2706C0.341076 15.2422 0.279003 15.2006 0.226752 15.1483Z" fill="black"/>
</svg>
