<svg width="42" height="42" viewBox="0 0 42 42" fill="none" xmlns="http://www.w3.org/2000/svg">
<g clip-path="url(#clip0_1875_16883)">
<path d="M41.7778 20.8889C41.7778 9.35227 32.4255 0 20.8889 0C9.35227 0 0 9.35227 0 20.8889C0 31.315 7.63872 39.9569 17.625 41.524V26.9271H12.3212V20.8889H17.625V16.2868C17.625 11.0515 20.7436 8.15972 25.515 8.15972C27.7998 8.15972 30.191 8.56771 30.191 8.56771V13.7083H27.557C24.9622 13.7083 24.1528 15.3187 24.1528 16.9722V20.8889H29.9462L29.0201 26.9271H24.1528V41.524C34.1391 39.9569 41.7778 31.315 41.7778 20.8889Z" fill="#1877F2"/>
<path d="M29.0202 26.9275L29.9463 20.8893H24.1529V16.9727C24.1529 15.3207 24.9623 13.7088 27.5571 13.7088H30.1911V8.56814C30.1911 8.56814 27.8007 8.16016 25.5152 8.16016C20.7438 8.16016 17.6251 11.052 17.6251 16.2872V20.8893H12.3213V26.9275H17.6251V41.5244C19.7879 41.8628 21.9901 41.8628 24.1529 41.5244V26.9275H29.0202Z" fill="white"/>
</g>
<defs>
<clipPath id="clip0_1875_16883">
<rect width="41.7778" height="41.7778" fill="white"/>
</clipPath>
</defs>
</svg>
