<svg width="24" height="50" viewBox="0 0 24 50" fill="none" xmlns="http://www.w3.org/2000/svg">
<path fill-rule="evenodd" clip-rule="evenodd" d="M22.5 26.0176V12C22.5 6.20101 17.799 1.5 12 1.5C6.20101 1.5 1.5 6.20101 1.5 12V38C1.5 43.799 6.20101 48.5 12 48.5C17.1267 48.5 21.3952 44.8258 22.3161 39.967C22.5411 39.9888 22.7692 40 23 40C23.2851 40 23.5662 39.983 23.8424 39.9498C22.911 45.6499 17.9635 50 12 50C5.37258 50 0 44.6274 0 38V12C0 5.37258 5.37258 0 12 0C18.6274 0 24 5.37258 24 12V26.0709C23.6734 26.0242 23.3395 26 23 26C22.8319 26 22.6652 26.0059 22.5 26.0176Z" fill="#02F6AD"/>
</svg>
