<svg width="25" height="25" viewBox="0 0 25 25" fill="none" xmlns="http://www.w3.org/2000/svg">
<path d="M12.5025 19.1478C12.4513 19.1476 12.4007 19.1364 12.3542 19.1148L6.07122 16.0928C6.01383 16.0643 5.96547 16.0205 5.93152 15.9662C5.89756 15.9119 5.87935 15.8492 5.87891 15.7851V9.02138C5.87873 8.9636 5.89326 8.90673 5.92111 8.85611C5.94897 8.80549 5.98924 8.76279 6.03814 8.73202C6.08705 8.70124 6.14297 8.68342 6.20066 8.68021C6.25835 8.67701 6.31591 8.68853 6.36792 8.71369L12.6509 11.7357C12.7083 11.7641 12.7566 11.808 12.7906 11.8623C12.8245 11.9166 12.8428 11.9793 12.8432 12.0434V18.8071C12.8432 18.8647 12.8286 18.9214 12.8007 18.9719C12.7729 19.0223 12.7326 19.0649 12.6839 19.0956C12.6297 19.1301 12.5667 19.1482 12.5025 19.1478ZM6.56023 15.5763L12.1619 18.2741V12.2604L6.56023 9.56259V15.5763Z" fill="white" stroke="white" stroke-width="0.5"/>
<path d="M12.5031 12.3808C12.4556 12.3842 12.4078 12.3776 12.363 12.3616L6.08001 9.3396C6.02168 9.31243 5.97232 9.26917 5.93773 9.21491C5.90314 9.16064 5.88477 9.09763 5.88477 9.03328C5.88477 8.96893 5.90314 8.90592 5.93773 8.85165C5.97232 8.79739 6.02168 8.75413 6.08001 8.72696L12.363 5.69125C12.4089 5.66949 12.4591 5.6582 12.51 5.6582C12.5608 5.6582 12.611 5.66949 12.6569 5.69125L18.9399 8.71322C18.9977 8.74118 19.0464 8.7849 19.0804 8.83934C19.1145 8.89377 19.1324 8.95672 19.1322 9.02092C19.1322 9.08472 19.1142 9.14721 19.0801 9.20118C19.0461 9.25514 18.9975 9.29837 18.9399 9.32586L12.6377 12.3616C12.5946 12.377 12.5488 12.3835 12.5031 12.3808ZM7.00858 9.01817L12.5031 11.6638L17.9976 9.02366L12.5031 6.37531L7.00858 9.01817Z" fill="white" stroke="white" stroke-width="0.5"/>
<path d="M12.5028 19.1489C12.4386 19.1494 12.3756 19.1313 12.3215 19.0967C12.2727 19.066 12.2324 19.0235 12.2046 18.973C12.1767 18.9226 12.1621 18.8659 12.1621 18.8083V12.0473C12.1619 11.9831 12.1799 11.9201 12.2139 11.8657C12.2479 11.8112 12.2966 11.7675 12.3544 11.7396L18.6374 8.71759C18.6894 8.69243 18.747 8.68091 18.8046 8.68412C18.8623 8.68733 18.9183 8.70515 18.9672 8.73592C19.0161 8.76669 19.0563 8.80939 19.0842 8.86001C19.112 8.91063 19.1266 8.96751 19.1264 9.02529V15.7835C19.1266 15.8477 19.1086 15.9107 19.0746 15.9651C19.0406 16.0195 18.9919 16.0633 18.9341 16.0912L12.6374 19.1159C12.5952 19.136 12.5494 19.1473 12.5028 19.1489ZM12.8434 12.2615V18.267L18.4451 15.5692V9.56375L12.8434 12.2615Z" fill="white" stroke="white" stroke-width="0.5"/>
<path d="M9.35966 10.8706C9.28317 10.8699 9.20917 10.8434 9.14957 10.7954C9.08997 10.7475 9.04824 10.6808 9.03111 10.6063C9.01398 10.5317 9.02244 10.4536 9.05513 10.3844C9.08782 10.3153 9.14283 10.2591 9.21131 10.225L15.497 7.20306C15.5783 7.16432 15.6716 7.15934 15.7565 7.1892C15.8415 7.21906 15.9112 7.28133 15.9503 7.3624C15.9699 7.40258 15.9813 7.44624 15.9838 7.49085C15.9864 7.53547 15.9801 7.58015 15.9653 7.6223C15.9504 7.66446 15.9274 7.70326 15.8975 7.73646C15.8676 7.76965 15.8314 7.79659 15.791 7.8157L9.50801 10.8377C9.46145 10.859 9.41088 10.8703 9.35966 10.8706Z" fill="white" stroke="white" stroke-width="0.5"/>
<path d="M10.203 13.8372C10.1517 13.8375 10.101 13.8262 10.0546 13.8043L8.20024 12.9114C8.15984 12.8923 8.12364 12.8654 8.09373 12.8322C8.06381 12.799 8.04078 12.7602 8.02596 12.718C8.01114 12.6758 8.00483 12.6312 8.00739 12.5866C8.00996 12.5419 8.02134 12.4983 8.0409 12.4581C8.08006 12.377 8.14973 12.3148 8.23467 12.2849C8.31961 12.255 8.41291 12.26 8.49419 12.2988L10.3486 13.1861C10.4169 13.2201 10.4718 13.276 10.5045 13.3449C10.5373 13.4138 10.5459 13.4917 10.5292 13.5661C10.5124 13.6405 10.4711 13.7071 10.412 13.7553C10.3528 13.8034 10.2792 13.8304 10.203 13.8317V13.8372Z" fill="white" stroke="white" stroke-width="0.5"/>
<path d="M2.18126 16.9586C2.11477 16.9597 2.04943 16.9413 1.99329 16.9056C1.93715 16.87 1.89267 16.8187 1.86533 16.7581C0.834169 14.208 0.754257 11.3722 1.64017 8.76807C2.52609 6.16397 4.31877 3.9652 6.6911 2.57299C9.06342 1.18078 11.8572 0.687933 14.5627 1.18439C17.2682 1.68085 19.705 3.13351 21.4285 5.27731C21.4605 5.31143 21.4851 5.35177 21.5008 5.39581C21.5165 5.43985 21.5229 5.48665 21.5198 5.53329C21.5166 5.57994 21.5038 5.62543 21.4823 5.66694C21.4608 5.70845 21.431 5.74509 21.3947 5.77457C21.3584 5.80405 21.3164 5.82575 21.2714 5.83831C21.2264 5.85088 21.1792 5.85403 21.1329 5.84759C21.0866 5.84115 21.0421 5.82524 21.0022 5.80086C20.9623 5.77648 20.9279 5.74415 20.901 5.70588C19.2798 3.69551 16.9908 2.3338 14.4504 1.86843C11.9101 1.40305 9.28703 1.86492 7.0584 3.17002C4.82977 4.47513 3.14359 6.53678 2.30652 8.98002C1.46946 11.4233 1.53712 14.0858 2.49719 16.4834C2.51783 16.535 2.5255 16.5909 2.51954 16.6462C2.51358 16.7015 2.49417 16.7545 2.463 16.8006C2.43184 16.8467 2.38987 16.8844 2.34075 16.9105C2.29164 16.9366 2.23688 16.9503 2.18126 16.9504V16.9586Z" fill="white" stroke="white" stroke-width="0.5"/>
<path d="M12.5168 23.9255C10.8015 23.9295 9.10714 23.5483 7.55891 22.8098C6.01067 22.0714 4.64808 20.9946 3.57174 19.659C3.5149 19.5861 3.48934 19.4937 3.50068 19.402C3.51201 19.3103 3.55931 19.2268 3.63218 19.17C3.70504 19.1131 3.79749 19.0876 3.8892 19.0989C3.98091 19.1102 4.06436 19.1576 4.12119 19.2304C5.75235 21.2384 8.05108 22.593 10.598 23.0471C13.1448 23.5013 15.7701 23.0246 17.9947 21.704C20.2194 20.3835 21.8951 18.3072 22.7162 15.8539C23.5372 13.4006 23.4489 10.7339 22.4673 8.3403C22.4489 8.29877 22.4389 8.25396 22.4381 8.20852C22.4372 8.16308 22.4454 8.11793 22.4623 8.07572C22.4791 8.0335 22.5042 7.99509 22.5362 7.96274C22.5681 7.93038 22.6061 7.90474 22.6481 7.88733C22.6901 7.86991 22.7351 7.86108 22.7806 7.86133C22.826 7.86159 22.871 7.87094 22.9128 7.88883C22.9545 7.90672 22.9923 7.93279 23.0239 7.96551C23.0554 7.99822 23.0801 8.03691 23.0965 8.07931C24.0324 10.3701 24.2071 12.9012 23.5947 15.2989C22.9823 17.6966 21.6153 19.8339 19.6954 21.3952C17.6628 23.0357 15.1288 23.9288 12.5168 23.9255Z" fill="white" stroke="white" stroke-width="0.5"/>
<path d="M21.1924 5.85742H21.1539L17.9808 5.51401C17.8956 5.49901 17.8193 5.45215 17.7674 5.38294C17.7155 5.31373 17.6918 5.22735 17.7013 5.14135C17.7107 5.05534 17.7525 4.97615 17.8182 4.91985C17.8839 4.86354 17.9686 4.83435 18.055 4.83819L20.8792 5.14313L21.1951 2.30797C21.1972 2.26142 21.2088 2.21578 21.2292 2.17389C21.2496 2.132 21.2784 2.09474 21.3137 2.06442C21.3491 2.03409 21.3904 2.01135 21.4349 1.9976C21.4794 1.98384 21.5263 1.97937 21.5726 1.98446C21.6189 1.98954 21.6637 2.00407 21.7042 2.02716C21.7447 2.05024 21.78 2.08138 21.8079 2.11866C21.8359 2.15593 21.8559 2.19855 21.8667 2.24387C21.8776 2.28919 21.879 2.33625 21.8709 2.38214L21.5303 5.55522C21.52 5.64498 21.4746 5.727 21.4039 5.78324C21.3441 5.83171 21.2693 5.85793 21.1924 5.85742Z" fill="white" stroke="white" stroke-width="0.5"/>
<path d="M3.47527 22.9307H3.43681C3.34728 22.921 3.26524 22.8763 3.20861 22.8063C3.15198 22.7363 3.12537 22.6467 3.13461 22.5571L3.47802 19.384C3.48229 19.3397 3.49544 19.2966 3.51667 19.2575C3.53791 19.2183 3.56681 19.1838 3.60164 19.156C3.67198 19.0994 3.7618 19.0727 3.85164 19.0818L7.02472 19.4225C7.10953 19.4376 7.18546 19.4843 7.23721 19.5532C7.28896 19.6221 7.31271 19.708 7.30365 19.7937C7.2946 19.8793 7.25342 19.9584 7.18841 20.0149C7.1234 20.0714 7.03939 20.1012 6.95329 20.0983L4.12087 19.7934L3.81043 22.6285C3.80163 22.7114 3.76255 22.788 3.70069 22.8438C3.63884 22.8996 3.55856 22.9305 3.47527 22.9307Z" fill="white" stroke="white" stroke-width="0.5"/>
</svg>
