<svg width="202" height="202" viewBox="0 0 202 202" fill="none" xmlns="http://www.w3.org/2000/svg">
<circle cx="101" cy="101" r="101" fill="#121212"/>
<circle cx="101" cy="101" r="90" stroke="#FF5C00" stroke-width="2" stroke-dasharray="2 2"/>
<path d="M101 105.286C123.485 105.286 141.714 123.515 141.714 146H146C146 121.147 125.853 101 101 101C76.1471 101 56 121.147 56 146H60.2857C60.2857 123.515 78.5139 105.286 101 105.286Z" fill="#2E2D2D"/>
<path d="M101 56C87.3899 56 76.3574 67.0325 76.3574 80.6429C76.3574 94.2532 87.3899 105.286 101 105.286C114.611 105.286 125.643 94.2532 125.643 80.6429C125.643 67.0325 114.611 56 101 56ZM101 101C89.7567 101 80.6431 91.8864 80.6431 80.6429C80.6431 69.3993 89.7567 60.2857 101 60.2857C112.244 60.2857 121.357 69.3993 121.357 80.6429C121.357 91.8864 112.244 101 101 101Z" fill="#2E2D2D"/>
</svg>
