<svg width="35" height="34" viewBox="0 0 35 34" fill="none" xmlns="http://www.w3.org/2000/svg">
<path d="M18.3306 0.924805C19.4921 4.3818 21.7725 7.29731 24.7714 9.15952C27.7703 11.0217 31.2961 11.7116 34.7298 11.108C34.5979 12.7566 33.9718 14.3182 32.9419 15.5672C31.9121 16.8162 30.5318 17.6879 29.0008 18.0562V30.3794L32.2905 30.3811V33.8466H2.68315V30.3811H5.97285V18.0562C4.44171 17.6877 3.06141 16.8161 2.03132 15.5671C1.00123 14.3182 0.374687 12.7566 0.242188 11.108C3.67617 11.7126 7.20257 11.0234 10.2022 9.16144C13.2017 7.29951 15.4828 4.38389 16.6446 0.926538H18.3306V0.924805ZM25.7111 18.2503H9.26256V30.3794H25.7111V18.2503Z" fill="#02F6AD"/>
</svg>
