<svg width="24" height="24" viewBox="0 0 24 24" fill="none" xmlns="http://www.w3.org/2000/svg">
<path fill-rule="evenodd" clip-rule="evenodd" d="M22 0C22 0 22.8284 0 23.4142 0.585787C23.4142 0.585787 24 1.17157 24 2V22C24 22 24 22.8284 23.4142 23.4142C23.4142 23.4142 22.8284 24 22 24H2C2 24 1.17157 24 0.585785 23.4142C0.585785 23.4142 0 22.8284 0 22V2C0 2 0 1.17157 0.585785 0.585786C0.585785 0.585786 1.17157 0 2 0H22ZM22 2H2V22H22V2Z" fill="#02F6AD"/>
<path d="M11.9442 8.46993C12.1318 8.2824 12.2375 8.02767 12.2375 7.76245C12.2375 7.49723 12.1321 7.24288 11.9446 7.05534L11.936 7.04682C11.7492 6.86485 11.4982 6.76245 11.2375 6.76245C10.9723 6.76245 10.7179 6.86781 10.5304 7.05534L6.29289 11.2928C6.10536 11.4804 6 11.7347 6 12C6 12.2652 6.10536 12.5195 6.29289 12.7071L10.5299 16.944C10.7174 17.1316 10.9723 17.2374 11.2375 17.2374C11.5027 17.2374 11.7571 17.1321 11.9446 16.9446C12.1321 16.757 12.2375 16.5027 12.2375 16.2374C12.2375 15.9722 12.1321 15.7179 11.9446 15.5303L8.41421 12L11.9442 8.46993Z" fill="#02F6AD"/>
<path d="M17 11H7C6.44772 11 6 11.4477 6 12C6 12.5522 6.44772 13 7 13H17C17.5523 13 18 12.5523 18 12C18 11.4477 17.5523 11 17 11Z" fill="#02F6AD"/>
</svg>
