<svg width="114" height="35" viewBox="0 0 114 35" fill="none" xmlns="http://www.w3.org/2000/svg">
<path d="M8.61115 8.94629V26.1686C6.32733 26.1686 4.13705 25.2613 2.52215 23.6464C0.90724 22.0315 0 19.8413 0 17.5574C0 15.2736 0.907247 13.0833 2.52215 11.4684C4.13705 9.85353 6.32733 8.94629 8.61115 8.94629Z" fill="white"/>
<path d="M8.61115 8.88849C8.61115 4.13269 12.4665 0.277344 17.2223 0.277344C21.9781 0.277344 25.8334 4.13269 25.8334 8.88849V26.1108C25.8334 30.8666 21.9781 34.7219 17.2223 34.7219C12.4856 34.7219 8.64221 30.8976 8.61133 26.1682C13.3671 26.1681 17.2223 22.3128 17.2223 17.5571C17.2223 12.8012 13.367 8.9459 8.61115 8.9459V8.88849Z" fill="white"/>
<path d="M47.2664 14.3947C47.2664 12.9557 46.7725 11.7101 45.7845 10.7006C44.8181 9.69123 43.3361 9.17578 41.3817 9.17578H35.4326V25.9923H38.0743V19.7639H41.0596C43.014 19.7639 44.5174 19.2485 45.6127 18.2391C46.708 17.2082 47.2664 15.9196 47.2664 14.3947ZM41.1455 11.6242C42.3912 11.6242 43.2717 11.9034 43.7872 12.4618C44.3241 13.0202 44.5818 13.6859 44.5818 14.4591C44.5818 16.0055 43.4865 17.337 41.1455 17.337H38.0743V11.6242H41.1455Z" fill="white"/>
<path d="M53.4001 14.2873C51.7249 14.2873 50.286 14.8672 49.1047 16.0055C47.9235 17.1437 47.3221 18.5612 47.3221 20.2364C47.3221 21.9116 47.902 23.3291 49.0832 24.4674C50.2645 25.6057 51.7034 26.1855 53.3786 26.1855C55.0753 26.1855 56.4928 25.6057 57.6526 24.4674C58.8338 23.3076 59.4137 21.8902 59.4137 20.1935C59.4137 18.5183 58.8338 17.1223 57.6526 15.984C56.4713 14.8457 55.0538 14.2873 53.4001 14.2873ZM50.8873 17.6592C51.5316 16.9504 52.3692 16.6068 53.3786 16.6068C54.3881 16.6068 55.2257 16.9504 55.8485 17.6592C56.4928 18.3679 56.815 19.227 56.815 20.2364C56.815 21.2458 56.4928 22.1049 55.87 22.8137C55.2471 23.5224 54.4095 23.866 53.4001 23.866C52.3907 23.866 51.5531 23.5009 50.9088 22.7922C50.2645 22.062 49.9423 21.2029 49.9423 20.1935C49.9423 19.1841 50.2645 18.3464 50.8873 17.6592Z" fill="white"/>
<path d="M66.9473 14.5235C66.7969 14.4806 66.6036 14.4591 66.3244 14.4591C64.9284 14.4591 63.8761 15.0605 63.1673 16.3491V14.5235H60.676V25.9923H63.2317V20.172C63.2317 18.1746 64.2626 16.7572 66.217 16.7572C66.4962 16.7572 66.7325 16.7786 66.9473 16.8216V14.5235Z" fill="white"/>
<path d="M75.3572 16.8216V14.5235H72.5437V10.9798H69.9879V14.5235H67.8832V16.8216H69.9879V22.2982C69.9879 24.7895 71.4484 26.1211 73.9612 26.1211C74.4551 26.1211 74.9276 26.0352 75.3357 25.8849V23.7157C75.0565 23.7801 74.7773 23.8016 74.5196 23.8016C73.2095 23.8016 72.5437 23.2647 72.5437 21.8901V16.8216H75.3572Z" fill="white"/>
<path d="M84.0289 18.2176C84.0289 18.8619 83.6638 19.1841 82.9551 19.1841H81.5376C79.5188 19.1841 76.7697 20.0217 76.7697 22.6848V22.8137C76.7697 23.8016 77.1348 24.6177 77.865 25.2406C78.5952 25.8634 79.5188 26.1855 80.6356 26.1855C82.1819 26.1855 83.2987 25.6057 84.0075 24.4244V25.9923H86.5203V18.6901C86.5203 17.8954 86.3914 17.2082 86.1337 16.6283C85.4249 15.0605 83.986 14.2873 81.8383 14.2873C79.4973 14.2873 77.865 15.2538 76.963 17.2082L78.9174 18.325C79.4973 17.1008 80.4637 16.4994 81.7738 16.4994C83.2128 16.4994 84.0289 17.2726 84.0289 18.2176ZM84.0075 21.3532C84.0075 23.0714 82.8906 24.1452 81.151 24.1452C80.0557 24.1452 79.3255 23.5224 79.3255 22.5774C79.3255 22.0834 79.5617 21.6969 80.0127 21.4177C80.4852 21.1385 81.0007 20.9881 81.5376 20.9881H84.0075V21.3532Z" fill="white"/>
<path d="M88.2026 9.18641V15.2108V21.9116C88.2026 24.5962 89.5986 26.0996 92.004 26.0996C92.4765 26.0996 92.9275 26.0137 93.3356 25.8634V23.6942C93.0564 23.7586 92.7986 23.7801 92.5194 23.7801C91.3382 23.7801 90.7583 23.0929 90.7583 21.7183V9.18641H88.2026Z" fill="white"/>
<path d="M95.4065 14.5235H92.6575L97.5113 25.9278L97.0388 27.0876C96.4159 28.6339 95.428 28.8434 94.1179 28.8434C93.6669 28.8434 93.3662 28.8219 93.1944 28.7575V30.9696C93.581 31.0985 94.0749 31.1629 94.6548 31.1629C96.9529 31.1629 98.4133 30.3091 99.4657 27.7319L104.856 14.5235H102.15L98.9073 23.0714L95.4065 14.5235Z" fill="white"/>
<path d="M109.662 26.1855C110.95 26.1855 112.003 25.8634 112.797 25.1976C113.592 24.5318 114 23.6727 114 22.6204C114 20.8378 112.625 19.5921 110.027 19.0122C108.545 18.6901 107.9 18.3035 107.9 17.5518C107.9 16.929 108.717 16.435 109.511 16.435C110.607 16.435 111.401 16.9504 111.917 17.9813L113.893 16.8645C113.098 15.1464 111.659 14.2873 109.597 14.2873C108.48 14.2873 107.514 14.6095 106.676 15.2752C105.839 15.941 105.431 16.7786 105.431 17.8095C105.431 18.6257 105.71 19.3129 106.247 19.8928C106.87 20.5586 107.836 21.0096 109.103 21.2673C110.671 21.5895 111.466 22.1049 111.466 22.7707C111.466 23.5439 110.628 24.0378 109.662 24.0378C108.437 24.0378 107.535 23.415 106.913 22.1908L104.915 23.3076C105.796 25.2191 107.385 26.1855 109.662 26.1855Z" fill="white"/>
</svg>
