<svg width="16" height="18" viewBox="0 0 16 18" fill="none" xmlns="http://www.w3.org/2000/svg">
<path d="M9.60951 16.9949C7.55089 17.45 5.62984 17.112 3.84635 15.9807C2.06287 14.8495 0.941909 13.2471 0.483472 11.1736C0.0283328 9.11493 0.369291 7.18933 1.50635 5.39673C2.6434 3.60414 4.24124 2.48028 6.29986 2.02514C7.62752 1.73161 8.85045 1.74287 9.96866 2.05893C11.0869 2.37499 12.1153 2.92211 13.0541 3.70031L12.3862 0.679509L13.8631 0.352996L15.2235 6.50648L9.07004 7.86695L8.74352 6.39012L12.458 5.56889C11.6849 4.83229 10.8184 4.29238 9.85849 3.94915C8.89857 3.60593 7.84428 3.56129 6.69563 3.81524C5.09946 4.16814 3.87145 5.01857 3.01161 6.36653C2.15177 7.71448 1.8983 9.18655 2.2512 10.7827C2.6041 12.3789 3.45453 13.6069 4.80248 14.4667C6.15044 15.3266 7.62251 15.5801 9.21869 15.2272C10.4121 14.9633 11.4401 14.3761 12.3028 13.4657C13.1655 12.5552 13.6729 11.4886 13.825 10.2658L15.6599 9.86011C15.5784 11.6149 14.9786 13.1479 13.8602 14.4591C12.7419 15.7704 11.325 16.6156 9.60951 16.9949Z" fill="black"/>
</svg>
