<svg width="25" height="25" viewBox="0 0 25 25" fill="none" xmlns="http://www.w3.org/2000/svg">
<path fill-rule="evenodd" clip-rule="evenodd" d="M3.90625 10.9375V4.6875C3.90625 4.25603 4.25603 3.90625 4.6875 3.90625H10.9375C11.369 3.90625 11.7188 4.25603 11.7188 4.6875V10.9375C11.7188 11.369 11.369 11.7188 10.9375 11.7188H4.6875C4.25603 11.7188 3.90625 11.369 3.90625 10.9375ZM10.1562 10.1562H5.46875V5.46875H10.1562V10.1562Z" fill="#FBFAFB"/>
<path fill-rule="evenodd" clip-rule="evenodd" d="M13.2812 10.9375V4.6875C13.2812 4.25603 13.631 3.90625 14.0625 3.90625H20.3125C20.744 3.90625 21.0938 4.25603 21.0938 4.6875V10.9375C21.0938 11.369 20.744 11.7188 20.3125 11.7188H14.0625C13.631 11.7188 13.2812 11.369 13.2812 10.9375ZM19.5312 10.1562H14.8438V5.46875H19.5312V10.1562Z" fill="#FBFAFB"/>
<path fill-rule="evenodd" clip-rule="evenodd" d="M3.90625 20.3125V14.0625C3.90625 13.631 4.25603 13.2812 4.6875 13.2812H10.9375C11.369 13.2812 11.7188 13.631 11.7188 14.0625V20.3125C11.7188 20.744 11.369 21.0938 10.9375 21.0938H4.6875C4.25603 21.0938 3.90625 20.744 3.90625 20.3125ZM10.1562 19.5312H5.46875V14.8438H10.1562V19.5312Z" fill="#FBFAFB"/>
<path fill-rule="evenodd" clip-rule="evenodd" d="M13.2812 20.3125V14.0625C13.2812 13.631 13.631 13.2812 14.0625 13.2812H20.3125C20.744 13.2812 21.0938 13.631 21.0938 14.0625V20.3125C21.0938 20.744 20.744 21.0938 20.3125 21.0938H14.0625C13.631 21.0938 13.2812 20.744 13.2812 20.3125ZM19.5312 19.5312H14.8438V14.8438H19.5312V19.5312Z" fill="#FBFAFB"/>
</svg>
