<svg width="60" height="60" viewBox="0 0 60 60" fill="none" xmlns="http://www.w3.org/2000/svg">
<rect width="60" height="60" rx="30" fill="#02F6AD"/>
<circle cx="30" cy="30" r="24" fill="black"/>
<path fill-rule="evenodd" clip-rule="evenodd" d="M33.8443 32.5769L38.6266 37.3591C38.7947 37.5273 38.889 37.7554 38.889 37.9932C38.8889 38.231 38.7943 38.459 38.6261 38.6271C38.4579 38.7952 38.2298 38.8896 37.992 38.8895C37.7542 38.8894 37.5262 38.7949 37.3581 38.6267L32.5759 33.8444C31.1463 34.9517 29.3486 35.4728 27.5485 35.3016C25.7483 35.1305 24.081 34.28 22.8857 32.9232C21.6903 31.5664 21.0568 29.8052 21.1139 27.9978C21.171 26.1905 21.9145 24.4728 23.1932 23.1941C24.4718 21.9155 26.1895 21.172 27.9968 21.1149C29.8042 21.0578 31.5654 21.6913 32.9222 22.8866C34.279 24.082 35.1295 25.7493 35.3007 27.5494C35.4718 29.3496 34.9507 31.1473 33.8435 32.5769H33.8443ZM28.2221 33.5555C29.6366 33.5555 30.9932 32.9936 31.9934 31.9934C32.9936 30.9933 33.5555 29.6367 33.5555 28.2222C33.5555 26.8077 32.9936 25.4512 31.9934 24.451C30.9932 23.4508 29.6366 22.8889 28.2221 22.8889C26.8076 22.8889 25.4511 23.4508 24.4509 24.451C23.4507 25.4512 22.8888 26.8077 22.8888 28.2222C22.8888 29.6367 23.4507 30.9933 24.4509 31.9934C25.4511 32.9936 26.8076 33.5555 28.2221 33.5555Z" fill="white"/>
</svg>
