<svg width="15" height="17" viewBox="0 0 15 17" fill="none" xmlns="http://www.w3.org/2000/svg">
<path d="M7.61209 1.45472C7.94883 0.547399 9.22847 0.129494 10.0188 0.906798C10.1813 1.06467 10.3417 1.23555 10.4507 1.38878C10.7676 1.83455 10.9013 2.4224 10.9498 2.9954C10.9994 3.57768 10.9657 4.20361 10.9023 4.77103C10.8452 5.26404 10.7655 5.75452 10.6636 6.24113L10.6537 6.28942H11.5283C11.9635 6.28936 12.3935 6.37897 12.7878 6.55192C13.1821 6.72487 13.531 6.97693 13.8099 7.29028C14.0888 7.60362 14.2909 7.9706 14.4018 8.36526C14.5128 8.75991 14.5299 9.17261 14.452 9.57416L13.7746 13.0669C13.6641 13.6369 13.4285 14.1791 13.0827 14.6591C12.7369 15.1392 12.2885 15.5465 11.7658 15.8554C11.2431 16.1643 10.6577 16.3679 10.0466 16.4533C9.43559 16.5388 8.81227 16.5041 8.21625 16.3517L2.66983 14.9336C2.22627 14.82 1.82519 14.5929 1.51154 14.2776C1.19789 13.9623 0.984054 13.5714 0.893988 13.1486L0.544365 11.5095C0.269025 10.2196 1.32086 9.13304 2.43906 8.71885C2.74222 8.61314 3.02367 8.4592 3.27102 8.26379C4.96169 6.85777 5.57378 5.735 6.62364 3.7597C6.97425 3.10034 7.33477 2.20323 7.61209 1.45472ZM9.55829 6.64139V6.63953L9.56027 6.63303L9.5672 6.60424C9.613 6.42433 9.65461 6.24351 9.692 6.0619C9.76727 5.70157 9.8574 5.20751 9.91682 4.67352C9.97724 4.13767 10.006 3.57396 9.96238 3.06876C9.9188 2.55242 9.80391 2.15401 9.62564 1.90327C9.52794 1.77709 9.42 1.65817 9.30275 1.54759C9.10566 1.35442 8.68076 1.399 8.54805 1.75933C8.26775 2.51527 7.8904 3.45881 7.51007 4.17389C6.45328 6.16219 5.77087 7.42612 3.92867 8.95844C3.59192 9.23891 3.19179 9.43857 2.80354 9.58252C1.93196 9.9057 1.37039 10.6486 1.51598 11.3275L1.86461 12.9666C1.91878 13.2204 2.04727 13.455 2.23568 13.6441C2.4241 13.8333 2.66497 13.9694 2.93131 14.0374L8.47773 15.4555C8.94117 15.5739 9.42581 15.6008 9.90092 15.5344C10.376 15.4679 10.8312 15.3096 11.2376 15.0695C11.644 14.8293 11.9927 14.5126 12.2617 14.1395C12.5306 13.7663 12.714 13.3447 12.8 12.9016L13.4774 9.40793C13.5294 9.14023 13.518 8.8651 13.444 8.60199C13.37 8.33889 13.2353 8.09423 13.0493 7.88534C12.8634 7.67644 12.6308 7.5084 12.3679 7.3931C12.1051 7.2778 11.8184 7.21806 11.5283 7.2181H10.0377C9.96252 7.21794 9.8884 7.20175 9.82093 7.17076C9.75345 7.13976 9.69438 7.09478 9.64819 7.03921C9.602 6.98364 9.5699 6.91894 9.55432 6.85002C9.53875 6.78109 9.5401 6.70975 9.55829 6.64139Z" fill="#02F6AD"/>
</svg>
