<svg width="44" height="45" viewBox="0 0 44 45" fill="none" xmlns="http://www.w3.org/2000/svg">
<path d="M20.0001 4.16669C10.0616 4.16669 1.66675 12.5615 1.66675 22.5C1.66675 32.4385 10.0616 40.8334 20.0001 40.8334C29.9386 40.8334 38.3334 32.4385 38.3334 22.5C38.3334 12.5615 29.9386 4.16669 20.0001 4.16669ZM20.0001 13.3334C23.1663 13.3334 25.5001 15.6654 25.5001 18.8334C25.5001 22.0014 23.1663 24.3334 20.0001 24.3334C16.8358 24.3334 14.5001 22.0014 14.5001 18.8334C14.5001 15.6654 16.8358 13.3334 20.0001 13.3334ZM10.6391 31.2487C12.2836 28.8287 15.0262 27.2154 18.1667 27.2154H21.8334C24.9758 27.2154 27.7166 28.8287 29.3611 31.2487C27.0181 33.7567 23.6943 35.3334 20.0001 35.3334C16.3059 35.3334 12.9821 33.7567 10.6391 31.2487Z" fill="black"/>
</svg>
