<svg width="35" height="50" viewBox="0 0 35 50" fill="none" xmlns="http://www.w3.org/2000/svg">
<path d="M18 27.6326L23.3579 33.1422L33.5 23" stroke="#02F6AD" stroke-width="1.5"/>
<path d="M5 14H19M5 19.5H15.4103M5 25H7.87179H9.66667H12.5385" stroke="#02F6AD" stroke-width="1.5" stroke-linecap="round"/>
<path fill-rule="evenodd" clip-rule="evenodd" d="M12.05 5.5037C14.3959 5.5037 16.0993 3.6623 16.5065 1.5H19.8124C21.2967 1.5 22.5 2.70326 22.5 4.18755V26.253C22.9789 26.1008 23.4815 26.014 24 26.0016V4.18755C24 1.87483 22.1252 0 19.8124 0H15.5721C15.3049 0 15.1 0.234689 15.1 0.501852C15.1 2.43587 13.7345 4.0037 12.05 4.0037C10.3655 4.0037 9 2.43587 9 0.501852C9 0.234689 8.79511 0 8.52795 0H4.23444C1.89582 0 0 1.89582 0 4.23444V46.9243C0 48.623 1.37702 50 3.07567 50H7.19429C8.24868 50 9 48.5562 9 47.5019C9 45.5678 10.3655 44 12.05 44C13.7345 44 15.1 45.5678 15.1 47.5019C15.1 48.5562 15.8513 50 16.9057 50H20.9554C22.6369 50 24 48.6369 24 46.9554V39.9984C23.4815 39.986 22.9789 39.8992 22.5 39.747V46.9554C22.5 47.8084 21.8084 48.5 20.9554 48.5H17.003C16.971 48.4703 16.9222 48.4168 16.8659 48.33C16.7878 48.2096 16.7175 48.0588 16.668 47.8975C16.618 47.7343 16.6 47.5951 16.6 47.5019C16.6 44.9407 14.7508 42.5 12.05 42.5C9.34921 42.5 7.5 44.9407 7.5 47.5019C7.5 47.5951 7.48196 47.7343 7.43195 47.8975C7.38253 48.0588 7.31221 48.2096 7.23412 48.33C7.17779 48.4168 7.12899 48.4703 7.09697 48.5H3.07567C2.20545 48.5 1.5 47.7945 1.5 46.9243V4.23444C1.5 2.72425 2.72425 1.5 4.23444 1.5H7.59353C8.0007 3.6623 9.70411 5.5037 12.05 5.5037Z" fill="#02F6AD"/>
<path d="M1 37H23.5" stroke="#02F6AD" stroke-width="1.5" stroke-dasharray="2 2"/>
</svg>
