<svg width="31" height="31" viewBox="0 0 31 31" fill="none" xmlns="http://www.w3.org/2000/svg">
<path d="M22.2494 30.8743H8.12487C3.64484 30.8743 0 27.2294 0 22.7493V8.62481C0 4.14477 3.64477 0.5 8.12487 0.5H22.2493C26.7292 0.5 30.3739 4.14477 30.3739 8.62481V22.7493C30.3739 27.2294 26.7292 30.8743 22.2494 30.8743ZM8.12487 2.62507C4.81658 2.62507 2.125 5.31651 2.125 8.62487V22.7494C2.125 26.0578 4.81651 28.7493 8.12487 28.7493H22.2493C25.5575 28.7493 28.2489 26.0578 28.2489 22.7494V8.62481C28.2489 5.31651 25.5575 2.625 22.2493 2.625H8.12487V2.62507Z" fill="white"/>
<path d="M17.5219 14.4147C16.9566 14.4147 16.4863 13.9693 16.4612 13.3989C16.4355 12.8127 16.8898 12.3165 17.4761 12.2907L25.0872 11.9561C25.6739 11.9306 26.1696 12.3846 26.1953 12.9709C26.2211 13.5571 25.7668 14.0533 25.1805 14.079L17.5694 14.4137C17.5534 14.4144 17.5376 14.4147 17.5219 14.4147Z" fill="white"/>
<path d="M5.23942 19.4214C4.67417 19.4214 4.20389 18.976 4.17878 18.4056C4.15295 17.8194 4.60724 17.3232 5.19347 17.2974L12.8049 16.962C13.392 16.9357 13.8873 17.3904 13.9131 17.9767C13.939 18.563 13.4847 19.0591 12.8985 19.0849L5.28704 19.4203C5.27103 19.4211 5.25516 19.4214 5.23942 19.4214Z" fill="white"/>
<path d="M17.5235 14.4142C17.5077 14.4142 17.4919 14.4138 17.476 14.4131C16.8898 14.3874 16.4354 13.8912 16.4613 13.3049L16.7961 5.69351C16.8218 5.10728 17.319 4.65326 17.9043 4.67876C18.4905 4.70452 18.9448 5.20064 18.919 5.78695L18.5842 13.3984C18.5591 13.9687 18.0887 14.4142 17.5235 14.4142Z" fill="white"/>
<path d="M12.5176 26.6975C12.5018 26.6975 12.486 26.6972 12.4701 26.6965C11.8839 26.6707 11.4296 26.1746 11.4554 25.5883L11.7902 17.9767C11.816 17.3905 12.3126 16.9362 12.8984 16.962C13.4846 16.9878 13.939 17.4839 13.9132 18.0702L13.5783 25.6817C13.5532 26.252 13.0829 26.6975 12.5176 26.6975Z" fill="white"/>
<path d="M18.6174 13.3191C18.3455 13.3191 18.0736 13.2154 17.8661 13.0078C17.4512 12.5929 17.4512 11.9201 17.8662 11.5052L22.9514 6.42047C23.3663 6.00563 24.039 6.0057 24.4539 6.42054C24.8688 6.83551 24.8688 7.50827 24.4539 7.92318L19.3687 13.0079C19.1613 13.2153 18.8893 13.3191 18.6174 13.3191Z" fill="white"/>
<path d="M6.67188 25.2645C6.39994 25.2645 6.12807 25.1607 5.92055 24.9532C5.50565 24.5383 5.50565 23.8656 5.92055 23.4506L11.0054 18.3659C11.4203 17.9509 12.0931 17.9509 12.508 18.3659C12.9229 18.7808 12.9229 19.4536 12.508 19.8685L7.42313 24.9532C7.21574 25.1607 6.94381 25.2645 6.67188 25.2645Z" fill="white"/>
</svg>
