<svg width="66" height="67" viewBox="0 0 66 67" fill="none" xmlns="http://www.w3.org/2000/svg">
<path d="M33 17.633C32.6216 17.6289 32.2528 17.513 31.9401 17.2998C31.6274 17.0865 31.3847 16.7856 31.2427 16.4347C31.1007 16.0839 31.0656 15.6989 31.1419 15.3282C31.2183 14.9575 31.4026 14.6176 31.6716 14.3514C31.9407 14.0853 32.2825 13.9046 32.654 13.8323C33.0255 13.7599 33.4101 13.7991 33.7594 13.9448C34.1087 14.0906 34.407 14.3364 34.6169 14.6514C34.8268 14.9664 34.9388 15.3364 34.9388 15.7149C34.9388 15.9685 34.8885 16.2196 34.7908 16.4537C34.6932 16.6878 34.55 16.9002 34.3697 17.0786C34.1894 17.2569 33.9755 17.3978 33.7404 17.493C33.5053 17.5881 33.2537 17.6357 33 17.633Z" fill="#02F6AD"/>
<path d="M36.8156 54.222H9.87937C9.37066 54.222 8.88277 54.0199 8.52306 53.6602C8.16334 53.3004 7.96125 52.8126 7.96125 52.3038V13.797C7.96125 13.2883 8.16334 12.8004 8.52306 12.4407C8.88277 12.0809 9.37066 11.8788 9.87937 11.8788H56.0794C56.5881 11.8788 57.076 12.0809 57.4357 12.4407C57.7954 12.8004 57.9975 13.2883 57.9975 13.797V19.572H13.7362C13.2248 19.572 12.7343 19.7751 12.3726 20.1368C12.011 20.4985 11.8078 20.989 11.8078 21.5004C11.8078 22.0119 12.011 22.5024 12.3726 22.864C12.7343 23.2257 13.2248 23.4288 13.7362 23.4288H58.0181V33.0401C58.0181 33.5516 58.2213 34.0421 58.583 34.4037C58.9446 34.7654 59.4351 34.9685 59.9466 34.9685C60.458 34.9685 60.9485 34.7654 61.3102 34.4037C61.6718 34.0421 61.875 33.5516 61.875 33.0401V13.797C61.875 13.0386 61.7256 12.2876 61.4354 11.587C61.1452 10.8863 60.7198 10.2497 60.1835 9.71343C59.6473 9.17717 59.0107 8.75179 58.31 8.46157C57.6093 8.17135 56.8584 8.02197 56.1 8.02197H9.87937C8.35133 8.02743 6.88773 8.63827 5.80916 9.72071C4.73059 10.8031 4.12499 12.2689 4.125 13.797V52.2832C4.125 53.8148 4.73344 55.2837 5.81646 56.3668C6.89948 57.4498 8.36838 58.0582 9.9 58.0582H36.8156C37.3271 58.0582 37.8176 57.855 38.1792 57.4934C38.5409 57.1317 38.7441 56.6412 38.7441 56.1298C38.7441 55.6183 38.5409 55.1278 38.1792 54.7662C37.8176 54.4045 37.3271 54.2013 36.8156 54.2013V54.222Z" fill="#02F6AD"/>
<path d="M59.9567 42.6513H56.9042L57.4611 42.0945C57.8221 41.7334 58.0249 41.2438 58.0249 40.7332C58.0249 40.2226 57.8221 39.733 57.4611 39.372C57.1001 39.0109 56.6104 38.8081 56.0998 38.8081C55.5893 38.8081 55.0996 39.0109 54.7386 39.372L52.243 41.8676L49.768 39.3926C49.5892 39.2125 49.3767 39.0693 49.1426 38.9713C48.9086 38.8733 48.6575 38.8224 48.4037 38.8214C48.1499 38.8205 47.8985 38.8695 47.6636 38.9657C47.4288 39.062 47.2153 39.2035 47.0352 39.3823C46.855 39.561 46.7119 39.7735 46.6139 40.0076C46.5159 40.2417 46.465 40.4928 46.464 40.7465C46.4631 41.0003 46.5121 41.2518 46.6083 41.4866C46.7045 41.7214 46.8461 41.935 47.0248 42.1151L47.5817 42.672H44.5705C44.0618 42.672 43.5739 42.874 43.2141 43.2338C42.8544 43.5935 42.6523 44.0814 42.6523 44.5901V56.1401C42.6523 56.6488 42.8544 57.1367 43.2141 57.4964C43.5739 57.8561 44.0618 58.0582 44.5705 58.0582H59.9773C60.4825 58.0528 60.9651 57.8483 61.3203 57.4892C61.6756 57.13 61.8749 56.6452 61.8748 56.1401V44.5901C61.8776 44.3365 61.83 44.0848 61.7348 43.8497C61.6396 43.6146 61.4988 43.4007 61.3204 43.2204C61.142 43.0401 60.9296 42.897 60.6955 42.7993C60.4615 42.7016 60.2104 42.6513 59.9567 42.6513ZM46.4886 46.5082H50.3042V54.2013H46.4886V46.5082ZM58.0386 54.2013H54.1611V46.5082H58.0386V54.2013Z" fill="#02F6AD"/>
<path d="M23.3684 27.2443C23.3684 26.7356 23.1663 26.2477 22.8066 25.888C22.4468 25.5283 21.959 25.3262 21.4502 25.3262H13.7365C13.2278 25.3262 12.7399 25.5283 12.3802 25.888C12.0204 26.2477 11.8184 26.7356 11.8184 27.2443V34.9374C11.8184 35.4461 12.0204 35.934 12.3802 36.2937C12.7399 36.6535 13.2278 36.8555 13.7365 36.8555H21.4502C21.959 36.8555 22.4468 36.6535 22.8066 36.2937C23.1663 35.934 23.3684 35.4461 23.3684 34.9374V27.2443ZM19.5115 33.0399H15.6752V29.183H19.5115V33.0399Z" fill="#02F6AD"/>
<path d="M21.4502 38.8149H13.7365C13.2278 38.8149 12.7399 39.017 12.3802 39.3768C12.0204 39.7365 11.8184 40.2243 11.8184 40.7331V48.4262C11.8184 48.9349 12.0204 49.4228 12.3802 49.7825C12.7399 50.1422 13.2278 50.3443 13.7365 50.3443H21.4502C21.959 50.3443 22.4468 50.1422 22.8066 49.7825C23.1663 49.4228 23.3684 48.9349 23.3684 48.4262V40.7331C23.3684 40.2243 23.1663 39.7365 22.8066 39.3768C22.4468 39.017 21.959 38.8149 21.4502 38.8149ZM19.5321 46.5081H15.6752V42.6512H19.5115L19.5321 46.5081Z" fill="#02F6AD"/>
<path d="M36.857 25.3262H29.1432C28.6345 25.3262 28.1466 25.5283 27.7869 25.888C27.4272 26.2477 27.2251 26.7356 27.2251 27.2443V34.9374C27.2251 35.4461 27.4272 35.934 27.7869 36.2937C28.1466 36.6535 28.6345 36.8555 29.1432 36.8555H36.8363C37.3451 36.8555 37.8329 36.6535 38.1927 36.2937C38.5524 35.934 38.7545 35.4461 38.7545 34.9374V27.2443C38.7545 26.7391 38.5552 26.2543 38.2 25.8952C37.8447 25.5361 37.3621 25.3316 36.857 25.3262ZM34.9182 33.0399H31.082V29.183H34.9388L34.9182 33.0399Z" fill="#02F6AD"/>
<path d="M44.55 34.9579C45.0587 34.9579 45.5466 34.7558 45.9063 34.3961C46.266 34.0364 46.4681 33.5485 46.4681 33.0398V29.1829H50.325V33.0398C50.325 33.5513 50.5281 34.0418 50.8898 34.4034C51.2514 34.7651 51.7419 34.9682 52.2534 34.9682C52.7648 34.9682 53.2554 34.7651 53.617 34.4034C53.9787 34.0418 54.1818 33.5513 54.1818 33.0398V27.2648C54.1818 26.7561 53.9797 26.2682 53.62 25.9085C53.2603 25.5488 52.7724 25.3467 52.2637 25.3467H44.55C44.0412 25.3467 43.5534 25.5488 43.1936 25.9085C42.8339 26.2682 42.6318 26.7561 42.6318 27.2648V33.0398C42.6318 33.5485 42.8339 34.0364 43.1936 34.3961C43.5534 34.7558 44.0412 34.9579 44.55 34.9579Z" fill="#02F6AD"/>
<path d="M36.857 38.8149H29.1432C28.6345 38.8149 28.1466 39.017 27.7869 39.3768C27.4272 39.7365 27.2251 40.2243 27.2251 40.7331V48.4262C27.2251 48.9349 27.4272 49.4228 27.7869 49.7825C28.1466 50.1422 28.6345 50.3443 29.1432 50.3443H36.8363C37.3451 50.3443 37.8329 50.1422 38.1927 49.7825C38.5524 49.4228 38.7545 48.9349 38.7545 48.4262V40.7331C38.7545 40.2279 38.5552 39.7431 38.2 39.384C37.8447 39.0249 37.3621 38.8204 36.857 38.8149ZM34.9388 46.5081H31.082V42.6512H34.9388V46.5081Z" fill="#02F6AD"/>
</svg>
