<svg width="66" height="67" viewBox="0 0 66 67" fill="none" xmlns="http://www.w3.org/2000/svg">
<path d="M22.4702 66.9426C18.0259 66.9424 13.6814 65.6243 9.98615 63.155C6.29091 60.6857 3.41087 57.1761 1.71024 53.07C0.00959862 48.9639 -0.43526 44.4457 0.431915 40.0867C1.29909 35.7278 3.43935 31.7239 6.58205 28.5813C9.72475 25.4388 13.7288 23.2987 18.0877 22.4317C22.4467 21.5647 26.9649 22.0098 31.0709 23.7106C35.1769 25.4115 38.6864 28.2917 41.1555 31.987C43.6246 35.6824 44.9425 40.0269 44.9425 44.4713C44.9357 50.4291 42.5659 56.141 38.3529 60.3537C34.14 64.5665 28.4281 66.936 22.4702 66.9426ZM22.4702 24.8298C18.5853 24.8298 14.7876 25.9818 11.5573 28.1402C8.32713 30.2986 5.8095 33.3664 4.32283 36.9557C2.83617 40.545 2.44724 44.4945 3.20524 48.3048C3.96323 52.1151 5.8341 55.615 8.58126 58.362C11.3284 61.1091 14.8285 62.9798 18.6388 63.7375C22.4491 64.4953 26.3986 64.1062 29.9878 62.6194C33.577 61.1325 36.6446 58.6147 38.8029 55.3844C40.9611 52.154 42.1129 48.3563 42.1127 44.4713C42.1067 39.2637 40.0353 34.2712 36.3529 30.5889C32.6705 26.9067 27.6778 24.8355 22.4702 24.8298Z" fill="#02F6AD"/>
<path d="M47.7391 37.4636C47.3639 37.4636 47.004 37.3146 46.7386 37.0492C46.4733 36.7839 46.3242 36.424 46.3242 36.0487C46.3242 35.6735 46.4733 35.3136 46.7386 35.0483C47.004 34.7829 47.3639 34.6339 47.7391 34.6339C50.7911 34.6339 53.7745 33.7288 56.3121 32.0332C58.8497 30.3376 60.8275 27.9276 61.9954 25.1079C63.1633 22.2882 63.4688 19.1855 62.8734 16.1922C62.2779 13.1989 60.8081 10.4494 58.65 8.29141C56.4918 6.13341 53.7422 4.66384 50.7489 4.06856C47.7555 3.47327 44.6529 3.779 41.8333 4.94708C39.0137 6.11516 36.6038 8.09313 34.9084 10.6309C33.2129 13.1686 32.3081 16.1521 32.3083 19.204C32.3083 19.5793 32.1592 19.9392 31.8939 20.2045C31.6285 20.4699 31.2687 20.6189 30.8934 20.6189C30.5182 20.6189 30.1583 20.4699 29.8929 20.2045C29.6276 19.9392 29.4785 19.5793 29.4785 19.204C29.4783 15.5924 30.5491 12.0618 32.5555 9.05871C34.5619 6.05563 37.4137 3.71496 40.7504 2.33269C44.087 0.950433 47.7587 0.588664 51.3009 1.29314C54.8432 1.99761 58.097 3.73669 60.6509 6.29044C63.2048 8.84419 64.9441 12.0979 65.6488 15.6402C66.3534 19.1824 65.9919 22.8541 64.6098 26.1908C63.2277 29.5276 60.8872 32.3796 57.8843 34.3861C54.8813 36.3927 51.3508 37.4636 47.7391 37.4636Z" fill="#02F6AD"/>
<path d="M24.576 58.5212C24.2009 58.5207 23.8413 58.3714 23.5761 58.1062C23.3109 57.841 23.1616 57.4814 23.1611 57.1063V55.0005C23.1611 54.8172 23.0883 54.6415 22.9587 54.5119C22.8291 54.3823 22.6534 54.3095 22.4702 54.3095H20.3653C20.2745 54.3094 20.1846 54.3272 20.1006 54.3618C20.0167 54.3965 19.9404 54.4474 19.8761 54.5115C19.8118 54.5757 19.7608 54.6519 19.7261 54.7358C19.6913 54.8197 19.6734 54.9096 19.6734 55.0005V57.1063C19.6785 57.2953 19.6457 57.4833 19.5769 57.6594C19.5081 57.8355 19.4047 57.9959 19.2729 58.1314C19.141 58.2668 18.9834 58.3745 18.8093 58.448C18.6351 58.5215 18.448 58.5594 18.259 58.5594C18.07 58.5594 17.8829 58.5215 17.7087 58.448C17.5346 58.3745 17.3769 58.2668 17.2451 58.1314C17.1132 57.9959 17.0099 57.8355 16.9411 57.6594C16.8723 57.4833 16.8395 57.2953 16.8446 57.1063V55.0005C16.8446 54.8172 16.7718 54.6415 16.6422 54.5119C16.5127 54.3823 16.3369 54.3095 16.1537 54.3095H14.0478C13.8589 54.3146 13.6708 54.2818 13.4947 54.213C13.3187 54.1442 13.1582 54.0409 13.0227 53.909C12.8873 53.7772 12.7796 53.6196 12.7061 53.4454C12.6326 53.2713 12.5947 53.0842 12.5947 52.8951C12.5947 52.7061 12.6326 52.519 12.7061 52.3449C12.7796 52.1707 12.8873 52.0131 13.0227 51.8812C13.1582 51.7494 13.3187 51.646 13.4947 51.5773C13.6708 51.5085 13.8589 51.4757 14.0478 51.4808H16.1537C16.3369 51.4808 16.5127 51.408 16.6422 51.2784C16.7718 51.1488 16.8446 50.9731 16.8446 50.7898V38.1558C16.8446 37.9725 16.7718 37.7968 16.6422 37.6672C16.5127 37.5376 16.3369 37.4648 16.1537 37.4648H14.0478C13.6726 37.4648 13.3127 37.3158 13.0473 37.0504C12.782 36.7851 12.6329 36.4252 12.6329 36.0499C12.6329 35.6747 12.782 35.3148 13.0473 35.0494C13.3127 34.7841 13.6726 34.635 14.0478 34.635H16.1537C16.2444 34.635 16.3342 34.6172 16.4181 34.5824C16.5019 34.5477 16.5781 34.4968 16.6422 34.4327C16.7064 34.3685 16.7573 34.2923 16.792 34.2085C16.8267 34.1247 16.8446 34.0348 16.8446 33.9441V31.8382C16.8546 31.4697 17.0079 31.1197 17.2721 30.8625C17.5363 30.6054 17.8903 30.4615 18.259 30.4615C18.6276 30.4615 18.9817 30.6054 19.2459 30.8625C19.51 31.1197 19.6634 31.4697 19.6734 31.8382V33.9431C19.6734 34.0339 19.6913 34.1238 19.7261 34.2077C19.7608 34.2916 19.8118 34.3678 19.8761 34.432C19.9404 34.4962 20.0167 34.547 20.1006 34.5817C20.1846 34.6164 20.2745 34.6341 20.3653 34.634H22.4702C22.6534 34.634 22.8291 34.5612 22.9587 34.4316C23.0883 34.302 23.1611 34.1263 23.1611 33.9431V31.8382C23.1611 31.463 23.3102 31.1031 23.5755 30.8378C23.8409 30.5724 24.2007 30.4233 24.576 30.4233C24.9512 30.4233 25.3111 30.5724 25.5765 30.8378C25.8418 31.1031 25.9909 31.463 25.9909 31.8382V34.3329C25.9909 34.4754 26.035 34.6145 26.1172 34.731C26.1993 34.8475 26.3155 34.9357 26.4498 34.9836C27.2238 35.2519 27.929 35.6877 28.515 36.2601C29.101 36.8325 29.5534 37.5272 29.8398 38.2947C30.1262 39.0622 30.2395 39.8834 30.1717 40.6998C30.104 41.5161 29.8567 42.3074 29.4477 43.0172C29.3584 43.1715 29.3325 43.3545 29.3754 43.5276C29.4183 43.7007 29.5266 43.8504 29.6777 43.9453C30.7053 44.5963 31.494 45.5631 31.9253 46.7006C32.3566 47.838 32.4072 49.0847 32.0696 50.2534C31.7319 51.4221 31.0241 52.4497 30.0526 53.1818C29.0811 53.9139 27.8983 54.3111 26.6818 54.3136C26.4986 54.3136 26.3228 54.3864 26.1933 54.516C26.0637 54.6456 25.9909 54.8213 25.9909 55.0046V57.1104C25.9893 57.4848 25.8395 57.8433 25.5744 58.1077C25.3093 58.372 24.9504 58.5207 24.576 58.5212ZM20.3653 45.8872C20.2745 45.887 20.1846 45.9048 20.1006 45.9395C20.0167 45.9741 19.9404 46.025 19.8761 46.0892C19.8118 46.1534 19.7608 46.2296 19.7261 46.3135C19.6913 46.3974 19.6734 46.4873 19.6734 46.5781V50.7898C19.6734 50.8806 19.6913 50.9706 19.7261 51.0545C19.7608 51.1384 19.8118 51.2146 19.8761 51.2788C19.9404 51.3429 20.0167 51.3938 20.1006 51.4285C20.1846 51.4631 20.2745 51.4809 20.3653 51.4808H26.6818C30.383 51.4808 30.3789 45.8872 26.6818 45.8872H20.3653ZM20.3653 37.4648C20.2745 37.4647 20.1846 37.4825 20.1006 37.5171C20.0167 37.5518 19.9404 37.6027 19.8761 37.6668C19.8118 37.731 19.7608 37.8072 19.7261 37.8911C19.6913 37.975 19.6734 38.0649 19.6734 38.1558V42.3664C19.6734 42.4573 19.6913 42.5472 19.7261 42.6311C19.7608 42.715 19.8118 42.7912 19.8761 42.8554C19.9404 42.9195 20.0167 42.9704 20.1006 43.0051C20.1846 43.0397 20.2745 43.0575 20.3653 43.0574H24.576C28.2782 43.0574 28.2731 37.4648 24.576 37.4648H20.3653Z" fill="#02F6AD"/>
<path d="M46.3242 29.733C46.3005 29.6299 46.4407 28.9585 45.8385 28.7708C45.0198 28.5234 44.2676 28.0941 43.6383 27.515C43.0089 26.9358 42.5187 26.2218 42.2043 25.4264C42.0719 25.0755 42.0844 24.6864 42.2389 24.3447C42.3934 24.0029 42.6774 23.7366 43.0283 23.6042C43.3792 23.4718 43.7683 23.4843 44.1101 23.6388C44.4518 23.7933 44.7181 24.0773 44.8505 24.4282C45.0963 24.9676 45.4984 25.4208 46.0048 25.729C46.5113 26.0372 47.0986 26.1862 47.6906 26.1566C50.3399 26.1566 52.7005 22.6761 47.2204 20.5207C40.1459 17.7363 41.1359 11.3981 45.8643 9.72644C46.4758 9.50885 46.2953 8.82821 46.3242 8.67662C46.3242 8.30136 46.4733 7.94148 46.7386 7.67613C47.004 7.41079 47.3638 7.26172 47.7391 7.26172C48.1143 7.26172 48.4742 7.41079 48.7396 7.67613C49.0049 7.94148 49.154 8.30136 49.154 8.67662C49.1777 8.77974 49.0375 9.4511 49.6397 9.63879C50.4583 9.88607 51.2104 10.3152 51.8397 10.8942C52.4691 11.4732 52.9593 12.187 53.2739 12.9822C53.4065 13.3332 53.3943 13.7226 53.2399 14.0646C53.0854 14.4066 52.8015 14.6733 52.4504 14.8059C52.0994 14.9386 51.71 14.9264 51.368 14.7719C51.026 14.6175 50.7593 14.3335 50.6266 13.9825C49.6552 11.4043 44.9423 11.7384 44.9423 14.825C44.9423 18.1251 53.3646 17.9807 53.3646 23.5846C53.3552 24.721 52.9877 25.8254 52.3143 26.7408C51.6409 27.6562 50.696 28.3359 49.6139 28.6832C49.0014 28.8997 49.1829 29.5814 49.154 29.733C49.154 30.1083 49.0049 30.4681 48.7396 30.7335C48.4742 30.9988 48.1143 31.1479 47.7391 31.1479C47.3638 31.1479 47.004 30.9988 46.7386 30.7335C46.4733 30.4681 46.3242 30.1083 46.3242 29.733Z" fill="#02F6AD"/>
<path d="M43.4257 63.0635C54.8273 62.2385 63.8509 51.3473 63.129 39.2918C63.117 38.9235 63.2491 38.565 63.4973 38.2925C63.7455 38.0201 64.0902 37.8553 64.458 37.8331C64.8259 37.811 65.1879 37.9332 65.467 38.1738C65.7462 38.4145 65.9204 38.7545 65.9526 39.1216C66.7776 52.9231 56.7672 64.9291 43.6309 65.8861C43.2566 65.9133 42.8868 65.7907 42.6029 65.5453C42.319 65.2999 42.1442 64.9517 42.117 64.5774C42.0898 64.2031 42.2124 63.8333 42.4578 63.5494C42.7032 63.2655 43.0514 63.0907 43.4257 63.0635Z" fill="#02F6AD"/>
<path d="M1.05898 23.2699C1.68734 17.1399 4.56134 11.4591 9.12759 7.32141C11.639 5.02271 14.6053 3.2772 17.8343 2.19797C21.0633 1.11873 24.483 0.729832 27.8719 1.05647C28.2397 1.09911 28.5762 1.28428 28.8091 1.57222C29.0419 1.86016 29.1526 2.22792 29.1174 2.59656C29.0822 2.9652 28.9038 3.30533 28.6206 3.54395C28.3374 3.78257 27.972 3.90065 27.6027 3.87285C21.8464 3.34208 16.1148 5.11699 11.6659 8.80798C7.21698 12.499 4.41438 17.8044 3.8733 23.5597C3.82787 23.9272 3.64021 24.2622 3.3506 24.4929C3.06098 24.7235 2.69248 24.8315 2.32417 24.7936C1.95587 24.7556 1.6171 24.5749 1.38057 24.29C1.14403 24.0052 1.02858 23.6389 1.05898 23.2699Z" fill="#02F6AD"/>
</svg>
