<svg width="792" height="660" viewBox="0 0 792 660" fill="none" xmlns="http://www.w3.org/2000/svg">
<g filter="url(#filter0_d_1834_17579)">
<g filter="url(#filter1_d_1834_17579)">
<rect width="676" height="544" transform="translate(58 58)" fill="#10211C"/>
<path d="M128.243 251.949H678.778" stroke="#F5F5F7" stroke-width="1.71329"/>
<path d="M128.24 559.396H678.775" stroke="#F5F5F7" stroke-width="1.71329"/>
<path d="M128.293 497.907H678.828" stroke="#F5F5F7" stroke-width="1.71329"/>
<path d="M128.24 436.417H678.775" stroke="#F5F5F7" stroke-width="1.71329"/>
<path d="M128.243 374.928H678.778" stroke="#F5F5F7" stroke-width="1.71329"/>
<path d="M128.243 313.438H678.778" stroke="#F5F5F7" stroke-width="1.71329"/>
<g filter="url(#filter2_d_1834_17579)">
<path d="M118.661 522.253C134.689 533.662 144.158 490.888 161.19 487.09C194.597 510.665 190.412 395.709 213.84 396.138C242.376 389.775 262.103 316.447 289.08 316.941C316.057 317.435 314.916 480.21 338.264 475.003C361.612 469.796 397.745 345.188 415.677 346.381C491.846 351.449 472.071 210.999 512.626 242.058C553.181 273.117 549.405 310.538 549.405 310.538C549.405 310.538 546.322 380.689 561.705 402.509C577.087 424.328 577.908 369.369 590.319 349.579C604.199 327.446 613.142 315.857 629.616 296.052C647.307 274.785 678.038 245.087 678.038 245.087" stroke="white" stroke-width="3.61703" stroke-linecap="round" stroke-linejoin="round"/>
</g>
<g filter="url(#filter3_d_1834_17579)">
<path d="M118.882 521.441C134.911 532.85 139.844 466.6 156.876 462.802C190.283 486.376 194.477 415.523 217.904 415.952C246.44 409.588 229.199 269.218 256.176 269.712C283.153 270.206 305.234 421.158 328.582 415.952C351.93 410.745 356.163 361.58 374.095 362.773C450.263 367.841 428.916 251.985 464.085 257.05C499.254 262.114 496.094 281.379 513.218 317.825C528.041 349.374 534.556 458.709 549.938 480.528C565.32 502.347 587.177 420.55 599.588 400.76C613.468 378.627 622.861 341.884 633.205 317.825C644.752 290.966 677.166 221.6 677.166 221.6" stroke="#B7B7B7" stroke-width="3.61703" stroke-linecap="round" stroke-linejoin="round"/>
</g>
</g>
<path d="M112.072 101.889L105.417 114.708V122H102.118V114.708L95.434 101.889H99.1089L103.768 111.757L108.426 101.889H112.072ZM121.606 122.26C120.101 122.26 118.741 121.923 117.526 121.248C116.311 120.553 115.356 119.589 114.661 118.354C113.967 117.1 113.62 115.653 113.62 114.014C113.62 112.393 113.976 110.956 114.69 109.702C115.404 108.448 116.378 107.484 117.613 106.808C118.847 106.133 120.227 105.796 121.751 105.796C123.275 105.796 124.654 106.133 125.889 106.808C127.123 107.484 128.097 108.448 128.811 109.702C129.525 110.956 129.882 112.393 129.882 114.014C129.882 115.634 129.515 117.071 128.782 118.325C128.049 119.579 127.046 120.553 125.773 121.248C124.519 121.923 123.13 122.26 121.606 122.26ZM121.606 119.396C122.455 119.396 123.246 119.193 123.979 118.788C124.731 118.383 125.339 117.775 125.802 116.965C126.265 116.155 126.496 115.171 126.496 114.014C126.496 112.856 126.274 111.882 125.831 111.091C125.387 110.281 124.799 109.673 124.066 109.268C123.333 108.863 122.542 108.66 121.693 108.66C120.844 108.66 120.053 108.863 119.32 109.268C118.606 109.673 118.037 110.281 117.613 111.091C117.188 111.882 116.976 112.856 116.976 114.014C116.976 115.73 117.41 117.062 118.278 118.007C119.166 118.933 120.275 119.396 121.606 119.396ZM147.582 106.056V122H144.283V120.119C143.762 120.775 143.078 121.296 142.229 121.682C141.399 122.048 140.512 122.231 139.567 122.231C138.313 122.231 137.184 121.971 136.181 121.45C135.197 120.929 134.416 120.158 133.837 119.135C133.278 118.113 132.998 116.878 132.998 115.431V106.056H136.268V114.94C136.268 116.367 136.625 117.467 137.338 118.238C138.052 118.991 139.026 119.367 140.261 119.367C141.496 119.367 142.47 118.991 143.184 118.238C143.917 117.467 144.283 116.367 144.283 114.94V106.056H147.582ZM155.233 108.371C155.715 107.561 156.352 106.934 157.143 106.49C157.953 106.027 158.908 105.796 160.008 105.796V109.21H159.168C157.876 109.21 156.892 109.538 156.217 110.194C155.561 110.85 155.233 111.988 155.233 113.608V122H151.934V106.056H155.233V108.371ZM176.344 122.26C175.09 122.26 173.961 122.039 172.958 121.595C171.974 121.132 171.193 120.515 170.614 119.743C170.036 118.952 169.727 118.074 169.688 117.11H173.103C173.161 117.785 173.479 118.354 174.058 118.817C174.656 119.261 175.398 119.483 176.286 119.483C177.212 119.483 177.926 119.309 178.427 118.962C178.948 118.595 179.208 118.132 179.208 117.573C179.208 116.975 178.919 116.531 178.34 116.242C177.781 115.952 176.884 115.634 175.649 115.287C174.453 114.959 173.479 114.641 172.727 114.332C171.974 114.023 171.318 113.551 170.759 112.914C170.219 112.277 169.949 111.438 169.949 110.397C169.949 109.548 170.2 108.776 170.701 108.082C171.203 107.368 171.916 106.808 172.842 106.403C173.788 105.998 174.868 105.796 176.083 105.796C177.897 105.796 179.353 106.259 180.453 107.185C181.571 108.091 182.17 109.336 182.247 110.917H178.948C178.89 110.204 178.601 109.635 178.08 109.21C177.559 108.786 176.855 108.574 175.968 108.574C175.099 108.574 174.434 108.738 173.971 109.065C173.508 109.393 173.276 109.827 173.276 110.368C173.276 110.792 173.431 111.149 173.739 111.438C174.048 111.728 174.424 111.959 174.868 112.133C175.312 112.287 175.968 112.49 176.836 112.74C177.993 113.049 178.938 113.367 179.671 113.695C180.424 114.004 181.07 114.467 181.61 115.084C182.15 115.702 182.43 116.521 182.449 117.544C182.449 118.45 182.198 119.261 181.697 119.974C181.195 120.688 180.482 121.248 179.556 121.653C178.649 122.058 177.578 122.26 176.344 122.26ZM189.862 108.747V117.573C189.862 118.171 189.997 118.605 190.267 118.875C190.557 119.126 191.039 119.251 191.714 119.251H193.74V122H191.135C189.65 122 188.512 121.653 187.721 120.958C186.93 120.264 186.534 119.135 186.534 117.573V108.747H184.654V106.056H186.534V102.092H189.862V106.056H193.74V108.747H189.862ZM195.68 113.956C195.68 112.355 196.008 110.937 196.664 109.702C197.339 108.467 198.246 107.513 199.384 106.837C200.542 106.143 201.815 105.796 203.204 105.796C204.458 105.796 205.548 106.046 206.474 106.548C207.419 107.03 208.171 107.638 208.731 108.371V106.056H212.058V122H208.731V119.627C208.171 120.38 207.409 121.007 206.445 121.508C205.48 122.01 204.38 122.26 203.146 122.26C201.776 122.26 200.522 121.913 199.384 121.219C198.246 120.505 197.339 119.521 196.664 118.267C196.008 116.994 195.68 115.557 195.68 113.956ZM208.731 114.014C208.731 112.914 208.499 111.959 208.036 111.149C207.592 110.339 207.004 109.721 206.271 109.297C205.538 108.873 204.747 108.66 203.898 108.66C203.049 108.66 202.258 108.873 201.525 109.297C200.792 109.702 200.194 110.31 199.731 111.12C199.288 111.911 199.066 112.856 199.066 113.956C199.066 115.055 199.288 116.02 199.731 116.849C200.194 117.679 200.792 118.315 201.525 118.759C202.278 119.184 203.069 119.396 203.898 119.396C204.747 119.396 205.538 119.184 206.271 118.759C207.004 118.335 207.592 117.717 208.036 116.907C208.499 116.078 208.731 115.113 208.731 114.014ZM220.24 108.747V117.573C220.24 118.171 220.375 118.605 220.645 118.875C220.934 119.126 221.416 119.251 222.091 119.251H224.117V122H221.513C220.027 122 218.889 121.653 218.098 120.958C217.307 120.264 216.912 119.135 216.912 117.573V108.747H215.031V106.056H216.912V102.092H220.24V106.056H224.117V108.747H220.24ZM228.836 103.944C228.238 103.944 227.736 103.741 227.331 103.336C226.926 102.931 226.723 102.429 226.723 101.831C226.723 101.233 226.926 100.732 227.331 100.327C227.736 99.9216 228.238 99.7191 228.836 99.7191C229.414 99.7191 229.906 99.9216 230.311 100.327C230.716 100.732 230.919 101.233 230.919 101.831C230.919 102.429 230.716 102.931 230.311 103.336C229.906 103.741 229.414 103.944 228.836 103.944ZM230.456 106.056V122H227.157V106.056H230.456ZM240.574 122.26C239.32 122.26 238.192 122.039 237.189 121.595C236.205 121.132 235.424 120.515 234.845 119.743C234.266 118.952 233.957 118.074 233.919 117.11H237.333C237.391 117.785 237.71 118.354 238.288 118.817C238.886 119.261 239.629 119.483 240.516 119.483C241.442 119.483 242.156 119.309 242.658 118.962C243.179 118.595 243.439 118.132 243.439 117.573C243.439 116.975 243.15 116.531 242.571 116.242C242.011 115.952 241.114 115.634 239.88 115.287C238.684 114.959 237.71 114.641 236.957 114.332C236.205 114.023 235.549 113.551 234.99 112.914C234.449 112.277 234.179 111.438 234.179 110.397C234.179 109.548 234.43 108.776 234.932 108.082C235.433 107.368 236.147 106.808 237.073 106.403C238.018 105.998 239.098 105.796 240.314 105.796C242.127 105.796 243.584 106.259 244.683 107.185C245.802 108.091 246.4 109.336 246.477 110.917H243.179C243.121 110.204 242.831 109.635 242.31 109.21C241.79 108.786 241.085 108.574 240.198 108.574C239.33 108.574 238.664 108.738 238.201 109.065C237.738 109.393 237.507 109.827 237.507 110.368C237.507 110.792 237.661 111.149 237.97 111.438C238.279 111.728 238.655 111.959 239.098 112.133C239.542 112.287 240.198 112.49 241.066 112.74C242.224 113.049 243.169 113.367 243.902 113.695C244.654 114.004 245.301 114.467 245.841 115.084C246.381 115.702 246.661 116.521 246.68 117.544C246.68 118.45 246.429 119.261 245.927 119.974C245.426 120.688 244.712 121.248 243.786 121.653C242.88 122.058 241.809 122.26 240.574 122.26ZM254.093 108.747V117.573C254.093 118.171 254.228 118.605 254.498 118.875C254.787 119.126 255.269 119.251 255.945 119.251H257.97V122H255.366C253.88 122 252.742 121.653 251.951 120.958C251.16 120.264 250.765 119.135 250.765 117.573V108.747H248.884V106.056H250.765V102.092H254.093V106.056H257.97V108.747H254.093ZM262.689 103.944C262.091 103.944 261.589 103.741 261.184 103.336C260.779 102.931 260.576 102.429 260.576 101.831C260.576 101.233 260.779 100.732 261.184 100.327C261.589 99.9216 262.091 99.7191 262.689 99.7191C263.268 99.7191 263.759 99.9216 264.165 100.327C264.57 100.732 264.772 101.233 264.772 101.831C264.772 102.429 264.57 102.931 264.165 103.336C263.759 103.741 263.268 103.944 262.689 103.944ZM264.309 106.056V122H261.01V106.056H264.309ZM267.541 114.014C267.541 112.374 267.869 110.937 268.524 109.702C269.2 108.448 270.126 107.484 271.302 106.808C272.479 106.133 273.829 105.796 275.353 105.796C277.282 105.796 278.874 106.259 280.128 107.185C281.401 108.091 282.259 109.393 282.703 111.091H279.144C278.855 110.3 278.392 109.683 277.755 109.239C277.118 108.795 276.318 108.574 275.353 108.574C274.003 108.574 272.923 109.056 272.113 110.02C271.322 110.966 270.926 112.297 270.926 114.014C270.926 115.73 271.322 117.071 272.113 118.036C272.923 119 274.003 119.483 275.353 119.483C277.263 119.483 278.527 118.643 279.144 116.965H282.703C282.24 118.586 281.372 119.878 280.099 120.843C278.826 121.788 277.244 122.26 275.353 122.26C273.829 122.26 272.479 121.923 271.302 121.248C270.126 120.553 269.2 119.589 268.524 118.354C267.869 117.1 267.541 115.653 267.541 114.014ZM291.778 122.26C290.524 122.26 289.395 122.039 288.392 121.595C287.409 121.132 286.627 120.515 286.048 119.743C285.47 118.952 285.161 118.074 285.123 117.11H288.537C288.595 117.785 288.913 118.354 289.492 118.817C290.09 119.261 290.833 119.483 291.72 119.483C292.646 119.483 293.36 119.309 293.861 118.962C294.382 118.595 294.643 118.132 294.643 117.573C294.643 116.975 294.353 116.531 293.774 116.242C293.215 115.952 292.318 115.634 291.083 115.287C289.887 114.959 288.913 114.641 288.161 114.332C287.409 114.023 286.753 113.551 286.193 112.914C285.653 112.277 285.383 111.438 285.383 110.397C285.383 109.548 285.634 108.776 286.135 108.082C286.637 107.368 287.351 106.808 288.277 106.403C289.222 105.998 290.302 105.796 291.517 105.796C293.331 105.796 294.787 106.259 295.887 107.185C297.006 108.091 297.604 109.336 297.681 110.917H294.382C294.324 110.204 294.035 109.635 293.514 109.21C292.993 108.786 292.289 108.574 291.402 108.574C290.534 108.574 289.868 108.738 289.405 109.065C288.942 109.393 288.711 109.827 288.711 110.368C288.711 110.792 288.865 111.149 289.174 111.438C289.482 111.728 289.858 111.959 290.302 112.133C290.746 112.287 291.402 112.49 292.27 112.74C293.427 113.049 294.372 113.367 295.106 113.695C295.858 114.004 296.504 114.467 297.044 115.084C297.584 115.702 297.864 116.521 297.883 117.544C297.883 118.45 297.633 119.261 297.131 119.974C296.63 120.688 295.916 121.248 294.99 121.653C294.083 122.058 293.012 122.26 291.778 122.26Z" fill="white"/>
<path d="M110.966 138.761L107.67 149.881H105.606L103.27 141.465L100.79 149.881L98.7416 149.897L95.5896 138.761H97.5256L99.8296 147.817L102.326 138.761H104.374L106.694 147.769L109.014 138.761H110.966ZM116.294 150.025C115.462 150.025 114.71 149.838 114.038 149.465C113.366 149.081 112.838 148.548 112.454 147.865C112.07 147.172 111.878 146.372 111.878 145.465C111.878 144.569 112.075 143.774 112.47 143.081C112.865 142.388 113.403 141.854 114.086 141.481C114.769 141.108 115.531 140.921 116.374 140.921C117.217 140.921 117.979 141.108 118.662 141.481C119.345 141.854 119.883 142.388 120.278 143.081C120.673 143.774 120.87 144.569 120.87 145.465C120.87 146.361 120.667 147.156 120.262 147.849C119.857 148.542 119.302 149.081 118.598 149.465C117.905 149.838 117.137 150.025 116.294 150.025ZM116.294 148.441C116.763 148.441 117.201 148.329 117.606 148.105C118.022 147.881 118.358 147.545 118.614 147.097C118.87 146.649 118.998 146.105 118.998 145.465C118.998 144.825 118.875 144.286 118.63 143.849C118.385 143.401 118.059 143.065 117.654 142.841C117.249 142.617 116.811 142.505 116.342 142.505C115.873 142.505 115.435 142.617 115.03 142.841C114.635 143.065 114.321 143.401 114.086 143.849C113.851 144.286 113.734 144.825 113.734 145.465C113.734 146.414 113.974 147.15 114.454 147.673C114.945 148.185 115.558 148.441 116.294 148.441ZM124.497 142.345C124.764 141.897 125.116 141.55 125.553 141.305C126.001 141.049 126.529 140.921 127.137 140.921V142.809H126.673C125.958 142.809 125.414 142.99 125.041 143.353C124.678 143.716 124.497 144.345 124.497 145.241V149.881H122.673V141.065H124.497V142.345ZM132.302 145.481L136.366 149.881H133.902L130.638 146.089V149.881H128.814V138.041H130.638V144.921L133.838 141.065H136.366L132.302 145.481ZM138.601 139.897C138.27 139.897 137.993 139.785 137.769 139.561C137.545 139.337 137.433 139.06 137.433 138.729C137.433 138.398 137.545 138.121 137.769 137.897C137.993 137.673 138.27 137.561 138.601 137.561C138.921 137.561 139.193 137.673 139.417 137.897C139.641 138.121 139.753 138.398 139.753 138.729C139.753 139.06 139.641 139.337 139.417 139.561C139.193 139.785 138.921 139.897 138.601 139.897ZM139.497 141.065V149.881H137.673V141.065H139.497ZM146.34 140.921C147.033 140.921 147.652 141.065 148.196 141.353C148.751 141.641 149.183 142.068 149.492 142.633C149.801 143.198 149.956 143.881 149.956 144.681V149.881H148.148V144.953C148.148 144.164 147.951 143.561 147.556 143.145C147.161 142.718 146.623 142.505 145.94 142.505C145.257 142.505 144.713 142.718 144.308 143.145C143.913 143.561 143.716 144.164 143.716 144.953V149.881H141.892V141.065H143.716V142.073C144.015 141.71 144.393 141.428 144.852 141.225C145.321 141.022 145.817 140.921 146.34 140.921ZM155.835 140.921C156.517 140.921 157.12 141.06 157.643 141.337C158.176 141.604 158.592 141.94 158.891 142.345V141.065H160.731V150.025C160.731 150.836 160.56 151.556 160.219 152.185C159.877 152.825 159.381 153.326 158.731 153.689C158.091 154.052 157.323 154.233 156.427 154.233C155.232 154.233 154.24 153.95 153.451 153.385C152.661 152.83 152.213 152.073 152.107 151.113H153.915C154.053 151.572 154.347 151.94 154.795 152.217C155.253 152.505 155.797 152.649 156.427 152.649C157.163 152.649 157.755 152.425 158.203 151.977C158.661 151.529 158.891 150.878 158.891 150.025V148.553C158.581 148.969 158.16 149.321 157.627 149.609C157.104 149.886 156.507 150.025 155.835 150.025C155.067 150.025 154.363 149.833 153.723 149.449C153.093 149.054 152.592 148.51 152.219 147.817C151.856 147.113 151.675 146.318 151.675 145.433C151.675 144.548 151.856 143.764 152.219 143.081C152.592 142.398 153.093 141.87 153.723 141.497C154.363 141.113 155.067 140.921 155.835 140.921ZM158.891 145.465C158.891 144.857 158.763 144.329 158.507 143.881C158.261 143.433 157.936 143.092 157.531 142.857C157.125 142.622 156.688 142.505 156.219 142.505C155.749 142.505 155.312 142.622 154.907 142.857C154.501 143.081 154.171 143.417 153.915 143.865C153.669 144.302 153.547 144.825 153.547 145.433C153.547 146.041 153.669 146.574 153.915 147.033C154.171 147.492 154.501 147.844 154.907 148.089C155.323 148.324 155.76 148.441 156.219 148.441C156.688 148.441 157.125 148.324 157.531 148.089C157.936 147.854 158.261 147.513 158.507 147.065C158.763 146.606 158.891 146.073 158.891 145.465ZM176.163 138.761V149.881H174.339V145.017H169.107V149.881H167.283V138.761H169.107V143.529H174.339V138.761H176.163ZM182.388 150.025C181.556 150.025 180.804 149.838 180.132 149.465C179.46 149.081 178.932 148.548 178.548 147.865C178.164 147.172 177.972 146.372 177.972 145.465C177.972 144.569 178.169 143.774 178.564 143.081C178.958 142.388 179.497 141.854 180.18 141.481C180.862 141.108 181.625 140.921 182.468 140.921C183.31 140.921 184.073 141.108 184.756 141.481C185.438 141.854 185.977 142.388 186.372 143.081C186.766 143.774 186.964 144.569 186.964 145.465C186.964 146.361 186.761 147.156 186.356 147.849C185.95 148.542 185.396 149.081 184.692 149.465C183.998 149.838 183.23 150.025 182.388 150.025ZM182.388 148.441C182.857 148.441 183.294 148.329 183.7 148.105C184.116 147.881 184.452 147.545 184.708 147.097C184.964 146.649 185.092 146.105 185.092 145.465C185.092 144.825 184.969 144.286 184.724 143.849C184.478 143.401 184.153 143.065 183.748 142.841C183.342 142.617 182.905 142.505 182.436 142.505C181.966 142.505 181.529 142.617 181.124 142.841C180.729 143.065 180.414 143.401 180.18 143.849C179.945 144.286 179.828 144.825 179.828 145.465C179.828 146.414 180.068 147.15 180.548 147.673C181.038 148.185 181.652 148.441 182.388 148.441ZM196.751 141.065V149.881H194.927V148.841C194.639 149.204 194.26 149.492 193.791 149.705C193.332 149.908 192.842 150.009 192.319 150.009C191.626 150.009 191.002 149.865 190.447 149.577C189.903 149.289 189.471 148.862 189.151 148.297C188.842 147.732 188.687 147.049 188.687 146.249V141.065H190.495V145.977C190.495 146.766 190.692 147.374 191.087 147.801C191.482 148.217 192.02 148.425 192.703 148.425C193.386 148.425 193.924 148.217 194.319 147.801C194.724 147.374 194.927 146.766 194.927 145.977V141.065H196.751ZM200.982 142.345C201.248 141.897 201.6 141.55 202.038 141.305C202.486 141.049 203.014 140.921 203.622 140.921V142.809H203.158C202.443 142.809 201.899 142.99 201.526 143.353C201.163 143.716 200.982 144.345 200.982 145.241V149.881H199.158V141.065H200.982V142.345ZM208.498 150.025C207.805 150.025 207.181 149.902 206.626 149.657C206.082 149.401 205.65 149.06 205.33 148.633C205.01 148.196 204.839 147.71 204.818 147.177H206.706C206.738 147.55 206.914 147.865 207.234 148.121C207.565 148.366 207.975 148.489 208.466 148.489C208.978 148.489 209.373 148.393 209.65 148.201C209.938 147.998 210.082 147.742 210.082 147.433C210.082 147.102 209.922 146.857 209.602 146.697C209.293 146.537 208.797 146.361 208.114 146.169C207.453 145.988 206.914 145.812 206.498 145.641C206.082 145.47 205.719 145.209 205.41 144.857C205.111 144.505 204.962 144.041 204.962 143.465C204.962 142.996 205.101 142.569 205.378 142.185C205.655 141.79 206.05 141.481 206.562 141.257C207.085 141.033 207.682 140.921 208.354 140.921C209.357 140.921 210.162 141.177 210.77 141.689C211.389 142.19 211.719 142.878 211.762 143.753H209.938C209.906 143.358 209.746 143.044 209.458 142.809C209.17 142.574 208.781 142.457 208.29 142.457C207.81 142.457 207.442 142.548 207.186 142.729C206.93 142.91 206.802 143.15 206.802 143.449C206.802 143.684 206.887 143.881 207.058 144.041C207.229 144.201 207.437 144.329 207.682 144.425C207.927 144.51 208.29 144.622 208.77 144.761C209.41 144.932 209.933 145.108 210.338 145.289C210.754 145.46 211.111 145.716 211.41 146.057C211.709 146.398 211.863 146.852 211.874 147.417C211.874 147.918 211.735 148.366 211.458 148.761C211.181 149.156 210.786 149.465 210.274 149.689C209.773 149.913 209.181 150.025 208.498 150.025Z" fill="white"/>
<path opacity="0.3" d="M110.514 202.295V217.378H108.04V207.048L103.439 217.378H101.724L97.1017 207.048V217.378H94.6277V202.295H97.297L102.592 214.123L107.866 202.295H110.514ZM124.53 205.42L117.194 222.999H114.634L117.064 217.183L112.355 205.42H115.111L118.475 214.535L121.969 205.42H124.53ZM134.508 204.292V208.719H139.717V210.737H134.508V215.36H140.368V217.378H132.034V202.273H140.368V204.292H134.508ZM148.038 215.164L151.423 205.42H154.049L149.492 217.378H146.54L142.005 205.42H144.652L148.038 215.164ZM166.879 211.106C166.879 211.555 166.85 211.96 166.792 212.321H157.656C157.728 213.276 158.082 214.043 158.719 214.622C159.356 215.2 160.137 215.49 161.063 215.49C162.394 215.49 163.334 214.933 163.884 213.819H166.553C166.192 214.918 165.533 215.823 164.579 216.532C163.638 217.226 162.466 217.573 161.063 217.573C159.92 217.573 158.893 217.32 157.981 216.814C157.084 216.293 156.375 215.569 155.854 214.643C155.348 213.703 155.095 212.618 155.095 211.388C155.095 210.158 155.341 209.08 155.833 208.154C156.339 207.214 157.041 206.491 157.938 205.984C158.849 205.478 159.891 205.225 161.063 205.225C162.191 205.225 163.197 205.471 164.079 205.963C164.962 206.454 165.649 207.149 166.141 208.046C166.633 208.929 166.879 209.949 166.879 211.106ZM164.296 210.325C164.282 209.413 163.956 208.683 163.32 208.133C162.683 207.583 161.895 207.308 160.954 207.308C160.101 207.308 159.37 207.583 158.762 208.133C158.155 208.668 157.793 209.399 157.677 210.325H164.296ZM175.347 205.225C176.287 205.225 177.127 205.42 177.864 205.811C178.617 206.201 179.203 206.78 179.622 207.547C180.042 208.314 180.252 209.24 180.252 210.325V217.378H177.799V210.694C177.799 209.623 177.532 208.806 176.996 208.241C176.461 207.663 175.73 207.373 174.804 207.373C173.878 207.373 173.141 207.663 172.591 208.241C172.055 208.806 171.788 209.623 171.788 210.694V217.378H169.314V205.42H171.788V206.787C172.193 206.295 172.707 205.912 173.329 205.637C173.965 205.362 174.638 205.225 175.347 205.225ZM186.294 207.438V214.057C186.294 214.506 186.395 214.832 186.598 215.034C186.815 215.222 187.176 215.316 187.683 215.316H189.202V217.378H187.249C186.135 217.378 185.281 217.118 184.688 216.597C184.095 216.076 183.798 215.229 183.798 214.057V207.438H182.387V205.42H183.798V202.447H186.294V205.42H189.202V207.438H186.294ZM195.823 217.573C194.882 217.573 194.036 217.407 193.283 217.074C192.546 216.727 191.96 216.264 191.526 215.685C191.092 215.092 190.86 214.434 190.831 213.71H193.392C193.435 214.217 193.674 214.643 194.108 214.991C194.557 215.323 195.114 215.49 195.779 215.49C196.474 215.49 197.009 215.36 197.385 215.099C197.776 214.824 197.971 214.477 197.971 214.057C197.971 213.609 197.754 213.276 197.32 213.059C196.901 212.842 196.228 212.603 195.302 212.343C194.405 212.097 193.674 211.858 193.11 211.627C192.546 211.395 192.054 211.041 191.634 210.563C191.229 210.086 191.026 209.457 191.026 208.675C191.026 208.039 191.215 207.46 191.591 206.939C191.967 206.404 192.502 205.984 193.197 205.68C193.906 205.377 194.716 205.225 195.627 205.225C196.987 205.225 198.08 205.572 198.904 206.266C199.744 206.946 200.192 207.88 200.25 209.066H197.776C197.732 208.531 197.515 208.104 197.125 207.786C196.734 207.467 196.206 207.308 195.541 207.308C194.889 207.308 194.39 207.431 194.043 207.677C193.696 207.923 193.522 208.249 193.522 208.654C193.522 208.972 193.638 209.24 193.869 209.457C194.101 209.674 194.383 209.847 194.716 209.977C195.049 210.093 195.541 210.245 196.192 210.433C197.06 210.665 197.769 210.903 198.318 211.149C198.883 211.381 199.367 211.728 199.772 212.191C200.178 212.654 200.387 213.269 200.402 214.036C200.402 214.716 200.214 215.323 199.838 215.859C199.461 216.394 198.926 216.814 198.232 217.118C197.552 217.421 196.749 217.573 195.823 217.573Z" fill="white"/>
<rect x="569" y="90" width="124.483" height="46.4588" rx="13.7063" fill="#02F6AD"/>
<path d="M600.231 118.488L603.385 105.165H605.147L605.549 107.384L602.189 121H600.296L600.231 118.488ZM598.611 105.165L601.221 118.488L601.003 121H598.893L595.381 105.165H598.611ZM608.322 118.433L610.9 105.165H614.13L610.628 121H608.518L608.322 118.433ZM606.136 105.165L609.312 118.542L609.225 121H607.333L603.95 107.373L604.385 105.165H606.136ZM620.775 121.218C619.861 121.218 619.042 121.073 618.317 120.782C617.592 120.485 616.976 120.076 616.468 119.554C615.968 119.032 615.583 118.426 615.315 117.737C615.047 117.041 614.913 116.302 614.913 115.519V115.084C614.913 114.192 615.04 113.376 615.293 112.637C615.547 111.897 615.91 111.256 616.381 110.712C616.86 110.168 617.44 109.751 618.121 109.461C618.803 109.164 619.571 109.015 620.427 109.015C621.26 109.015 622 109.153 622.645 109.429C623.291 109.704 623.831 110.096 624.266 110.603C624.708 111.111 625.041 111.72 625.266 112.43C625.491 113.133 625.603 113.916 625.603 114.779V116.084H616.251V113.996H622.526V113.757C622.526 113.322 622.446 112.934 622.286 112.593C622.134 112.245 621.902 111.97 621.59 111.767C621.279 111.564 620.88 111.462 620.394 111.462C619.981 111.462 619.626 111.553 619.328 111.734C619.031 111.915 618.788 112.169 618.6 112.495C618.418 112.822 618.281 113.206 618.186 113.648C618.099 114.083 618.056 114.562 618.056 115.084V115.519C618.056 115.99 618.121 116.425 618.252 116.824C618.389 117.223 618.581 117.567 618.828 117.857C619.082 118.147 619.386 118.372 619.742 118.531C620.104 118.691 620.514 118.771 620.97 118.771C621.536 118.771 622.062 118.662 622.547 118.444C623.04 118.22 623.465 117.882 623.82 117.433L625.342 119.086C625.096 119.441 624.759 119.782 624.331 120.108C623.91 120.434 623.403 120.703 622.808 120.913C622.214 121.116 621.536 121.218 620.775 121.218ZM632.803 121.218C631.889 121.218 631.07 121.073 630.345 120.782C629.62 120.485 629.004 120.076 628.496 119.554C627.996 119.032 627.612 118.426 627.343 117.737C627.075 117.041 626.941 116.302 626.941 115.519V115.084C626.941 114.192 627.068 113.376 627.322 112.637C627.575 111.897 627.938 111.256 628.409 110.712C628.888 110.168 629.468 109.751 630.149 109.461C630.831 109.164 631.599 109.015 632.455 109.015C633.289 109.015 634.028 109.153 634.673 109.429C635.319 109.704 635.859 110.096 636.294 110.603C636.736 111.111 637.07 111.72 637.294 112.43C637.519 113.133 637.632 113.916 637.632 114.779V116.084H628.279V113.996H634.554V113.757C634.554 113.322 634.474 112.934 634.315 112.593C634.162 112.245 633.93 111.97 633.619 111.767C633.307 111.564 632.908 111.462 632.422 111.462C632.009 111.462 631.654 111.553 631.356 111.734C631.059 111.915 630.816 112.169 630.628 112.495C630.447 112.822 630.309 113.206 630.215 113.648C630.128 114.083 630.084 114.562 630.084 115.084V115.519C630.084 115.99 630.149 116.425 630.28 116.824C630.418 117.223 630.61 117.567 630.856 117.857C631.11 118.147 631.414 118.372 631.77 118.531C632.132 118.691 632.542 118.771 632.999 118.771C633.564 118.771 634.09 118.662 634.576 118.444C635.069 118.22 635.493 117.882 635.848 117.433L637.371 119.086C637.124 119.441 636.787 119.782 636.359 120.108C635.939 120.434 635.431 120.703 634.837 120.913C634.242 121.116 633.564 121.218 632.803 121.218ZM642.547 104.285V121H639.415V104.285H642.547ZM649.964 109.233L644.853 115.062L642.112 117.835L640.97 115.573L643.145 112.811L646.201 109.233H649.964ZM646.712 121L643.232 115.562L645.397 113.67L650.323 121H646.712ZM654.619 104.295V121H651.476V104.295H654.619ZM660.698 119.673L663.819 109.233H667.18L662.449 122.773C662.348 123.07 662.21 123.389 662.036 123.73C661.869 124.07 661.641 124.393 661.351 124.698C661.068 125.009 660.709 125.263 660.274 125.459C659.846 125.655 659.321 125.753 658.697 125.753C658.4 125.753 658.157 125.734 657.969 125.698C657.78 125.662 657.555 125.611 657.294 125.546V123.251C657.374 123.251 657.457 123.251 657.544 123.251C657.631 123.258 657.715 123.262 657.794 123.262C658.208 123.262 658.545 123.215 658.806 123.121C659.067 123.026 659.277 122.881 659.437 122.686C659.596 122.497 659.723 122.251 659.817 121.946L660.698 119.673ZM659.393 109.233L661.949 117.759L662.395 121.076L660.263 121.305L656.033 109.233H659.393Z" fill="#0C0808"/>
<path d="M670.163 369.985L674.375 365.369C674.632 365.087 674.632 364.631 674.375 364.349C674.118 364.067 673.701 364.067 673.444 364.349L670.356 367.734C670.356 367.734 670.045 368.115 669.701 368.107C669.364 368.099 669.04 367.734 669.04 367.734L665.952 364.349C665.695 364.067 665.279 364.067 665.022 364.349C664.893 364.49 664.829 364.675 664.829 364.859C664.829 365.044 664.893 365.228 665.022 365.369L669.233 369.985C669.49 370.267 669.906 370.267 670.163 369.985Z" fill="#0C0808" stroke="#0C0808" stroke-width="0.856646"/>
<path d="M93.1696 563.375C93.1696 560.872 93.5892 558.918 94.4284 557.515C95.282 556.097 96.7433 555.388 98.8122 555.388C100.881 555.388 102.335 556.097 103.174 557.515C104.028 558.918 104.455 560.872 104.455 563.375C104.455 565.907 104.028 567.889 103.174 569.321C102.335 570.739 100.881 571.448 98.8122 571.448C96.7433 571.448 95.282 570.739 94.4284 569.321C93.5892 567.889 93.1696 565.907 93.1696 563.375ZM102.024 563.375C102.024 562.203 101.945 561.212 101.785 560.401C101.641 559.591 101.337 558.933 100.874 558.426C100.411 557.906 99.7237 557.645 98.8122 557.645C97.9007 557.645 97.2135 557.906 96.7505 558.426C96.2875 558.933 95.9765 559.591 95.8173 560.401C95.6726 561.212 95.6003 562.203 95.6003 563.375C95.6003 564.59 95.6726 565.61 95.8173 566.435C95.962 567.259 96.2658 567.925 96.7288 568.431C97.2063 568.938 97.9007 569.191 98.8122 569.191C99.7237 569.191 100.411 568.938 100.874 568.431C101.351 567.925 101.662 567.259 101.807 566.435C101.952 565.61 102.024 564.59 102.024 563.375Z" fill="white"/>
<path d="M95.5156 461.06C96.9045 459.859 97.9968 458.875 98.7926 458.108C99.6028 457.327 100.276 456.517 100.811 455.678C101.346 454.839 101.614 454 101.614 453.16C101.614 452.292 101.404 451.612 100.985 451.12C100.579 450.628 99.9356 450.383 99.053 450.383C98.1994 450.383 97.5339 450.657 97.0564 451.207C96.5934 451.743 96.3475 452.466 96.3185 453.377H93.9313C93.9747 451.728 94.4666 450.469 95.4071 449.601C96.3619 448.719 97.57 448.277 99.0313 448.277C100.608 448.277 101.838 448.711 102.721 449.58C103.618 450.448 104.066 451.605 104.066 453.052C104.066 454.094 103.799 455.099 103.263 456.068C102.742 457.023 102.113 457.884 101.375 458.651C100.652 459.403 99.7258 460.279 98.5973 461.277L97.6207 462.145H104.5V464.207H93.953V462.406L95.5156 461.06Z" fill="white"/>
<path d="M93.8445 409.019V407.152L101.136 396.692H104.131V406.87H106.15V409.019H104.131V412.317H101.701V409.019H93.8445ZM101.809 399.209L96.6875 406.87H101.809V399.209Z" fill="white"/>
<path d="M102.656 348.059C102.496 347.393 102.207 346.894 101.787 346.561C101.368 346.228 100.782 346.062 100.03 346.062C98.8866 346.062 98.033 346.503 97.4688 347.386C96.9045 348.254 96.6079 349.701 96.579 351.726C96.9551 351.09 97.5049 350.598 98.2283 350.251C98.9517 349.903 99.733 349.73 100.572 349.73C101.527 349.73 102.366 349.94 103.09 350.359C103.828 350.764 104.399 351.357 104.804 352.139C105.224 352.92 105.433 353.853 105.433 354.938C105.433 355.951 105.231 356.855 104.826 357.651C104.435 358.447 103.849 359.076 103.068 359.539C102.287 359.988 101.346 360.212 100.247 360.212C98.7564 360.212 97.5845 359.886 96.7309 359.235C95.8917 358.57 95.2985 357.637 94.9513 356.436C94.6185 355.235 94.4522 353.737 94.4522 351.943C94.4522 346.648 96.3185 344 100.051 344C101.498 344 102.634 344.391 103.459 345.172C104.298 345.954 104.79 346.916 104.934 348.059H102.656ZM100.03 351.813C99.1471 351.813 98.3947 352.081 97.7726 352.616C97.1649 353.137 96.8611 353.897 96.8611 354.895C96.8611 355.893 97.1432 356.689 97.7075 357.282C98.2862 357.861 99.0892 358.15 100.116 358.15C101.028 358.15 101.744 357.868 102.265 357.304C102.8 356.74 103.068 355.987 103.068 355.047C103.068 354.063 102.808 353.282 102.287 352.703C101.78 352.11 101.028 351.813 100.03 351.813Z" fill="white"/>
<path d="M96.8177 299.837C95.313 299.085 94.5607 297.898 94.5607 296.278C94.5607 295.496 94.756 294.78 95.1466 294.129C95.5373 293.478 96.1232 292.965 96.9045 292.588C97.6858 292.198 98.6407 292.002 99.7692 292.002C100.883 292.002 101.831 292.198 102.612 292.588C103.408 292.965 104.001 293.478 104.392 294.129C104.782 294.78 104.978 295.496 104.978 296.278C104.978 297.088 104.768 297.804 104.348 298.426C103.943 299.034 103.401 299.504 102.721 299.837C103.545 300.141 104.196 300.64 104.674 301.334C105.151 302.014 105.39 302.817 105.39 303.743C105.39 304.684 105.151 305.516 104.674 306.239C104.196 306.962 103.531 307.52 102.677 307.91C101.824 308.301 100.854 308.496 99.7692 308.496C98.6841 308.496 97.7147 308.301 96.8611 307.91C96.0219 307.52 95.3636 306.962 94.8862 306.239C94.4087 305.516 94.17 304.684 94.17 303.743C94.17 302.803 94.4087 301.993 94.8862 301.313C95.3636 300.633 96.0075 300.141 96.8177 299.837ZM102.612 296.582C102.612 295.771 102.359 295.149 101.853 294.715C101.346 294.281 100.652 294.064 99.7692 294.064C98.9011 294.064 98.2139 294.281 97.7075 294.715C97.2011 295.149 96.9479 295.779 96.9479 296.603C96.9479 297.327 97.2083 297.92 97.7292 298.383C98.2645 298.831 98.9445 299.056 99.7692 299.056C100.594 299.056 101.274 298.824 101.809 298.361C102.345 297.898 102.612 297.305 102.612 296.582ZM99.7692 300.922C98.8143 300.922 98.033 301.161 97.4254 301.638C96.8322 302.101 96.5356 302.774 96.5356 303.657C96.5356 304.481 96.8249 305.154 97.4037 305.675C97.9824 306.181 98.7709 306.434 99.7692 306.434C100.753 306.434 101.527 306.174 102.091 305.653C102.67 305.132 102.959 304.467 102.959 303.657C102.959 302.788 102.663 302.116 102.07 301.638C101.491 301.161 100.724 300.922 99.7692 300.922Z" fill="white"/>
<path d="M93.8228 242.436V240.179H98.3368V256H95.8411V242.436H93.8228ZM101.736 247.883C101.736 245.38 102.155 243.427 102.994 242.024C103.848 240.606 105.309 239.897 107.378 239.897C109.447 239.897 110.901 240.606 111.74 242.024C112.594 243.427 113.021 245.38 113.021 247.883C113.021 250.415 112.594 252.397 111.74 253.83C110.901 255.248 109.447 255.957 107.378 255.957C105.309 255.957 103.848 255.248 102.994 253.83C102.155 252.397 101.736 250.415 101.736 247.883ZM110.59 247.883C110.59 246.711 110.511 245.72 110.351 244.91C110.207 244.1 109.903 243.442 109.44 242.935C108.977 242.414 108.29 242.154 107.378 242.154C106.467 242.154 105.779 242.414 105.316 242.935C104.853 243.442 104.542 244.1 104.383 244.91C104.239 245.72 104.166 246.711 104.166 247.883C104.166 249.099 104.239 250.119 104.383 250.943C104.528 251.768 104.832 252.434 105.295 252.94C105.772 253.446 106.467 253.7 107.378 253.7C108.29 253.7 108.977 253.446 109.44 252.94C109.917 252.434 110.228 251.768 110.373 250.943C110.518 250.119 110.59 249.099 110.59 247.883Z" fill="white"/>
<path d="M218.571 570.798V586.277H216.032V575.675L211.31 586.277H209.551L204.807 575.675V586.277H202.268V570.798H205.007L210.442 582.936L215.854 570.798H218.571ZM227.232 586.478C226.074 586.478 225.027 586.218 224.091 585.698C223.156 585.164 222.421 584.421 221.886 583.471C221.352 582.506 221.084 581.392 221.084 580.13C221.084 578.883 221.359 577.777 221.909 576.811C222.458 575.846 223.208 575.104 224.158 574.584C225.108 574.064 226.17 573.805 227.343 573.805C228.516 573.805 229.578 574.064 230.528 574.584C231.478 575.104 232.228 575.846 232.778 576.811C233.327 577.777 233.602 578.883 233.602 580.13C233.602 581.377 233.32 582.484 232.755 583.449C232.191 584.414 231.419 585.164 230.439 585.698C229.474 586.218 228.405 586.478 227.232 586.478ZM227.232 584.273C227.885 584.273 228.494 584.117 229.058 583.805C229.637 583.493 230.105 583.026 230.461 582.402C230.818 581.778 230.996 581.021 230.996 580.13C230.996 579.239 230.825 578.489 230.484 577.88C230.142 577.257 229.689 576.789 229.125 576.477C228.561 576.165 227.952 576.01 227.299 576.01C226.645 576.01 226.036 576.165 225.472 576.477C224.923 576.789 224.485 577.257 224.158 577.88C223.831 578.489 223.668 579.239 223.668 580.13C223.668 581.452 224.002 582.476 224.67 583.204C225.353 583.916 226.207 584.273 227.232 584.273ZM242.304 573.805C243.269 573.805 244.13 574.005 244.887 574.406C245.659 574.807 246.261 575.401 246.691 576.188C247.122 576.975 247.337 577.925 247.337 579.039V586.277H244.821V579.417C244.821 578.319 244.546 577.48 243.996 576.9C243.447 576.307 242.697 576.01 241.747 576.01C240.797 576.01 240.039 576.307 239.475 576.9C238.926 577.48 238.651 578.319 238.651 579.417V586.277H236.112V574.005H238.651V575.408C239.067 574.903 239.594 574.51 240.232 574.228C240.886 573.946 241.576 573.805 242.304 573.805Z" fill="white"/>
<path d="M300.864 570.798V572.869H296.744V586.277H294.205V572.869H290.062V570.798H300.864ZM314.55 574.005V586.277H312.011V584.83C311.61 585.334 311.083 585.735 310.429 586.032C309.791 586.314 309.108 586.456 308.38 586.456C307.415 586.456 306.547 586.255 305.774 585.854C305.017 585.453 304.416 584.859 303.97 584.072C303.54 583.285 303.324 582.335 303.324 581.221V574.005H305.841V580.843C305.841 581.942 306.116 582.788 306.665 583.382C307.215 583.961 307.965 584.251 308.915 584.251C309.865 584.251 310.615 583.961 311.164 583.382C311.729 582.788 312.011 581.942 312.011 580.843V574.005H314.55ZM329.148 579.841C329.148 580.301 329.118 580.717 329.059 581.088H319.682C319.756 582.068 320.12 582.855 320.773 583.449C321.427 584.043 322.228 584.34 323.179 584.34C324.545 584.34 325.51 583.768 326.074 582.625H328.814C328.442 583.753 327.767 584.681 326.787 585.409C325.822 586.121 324.619 586.478 323.179 586.478C322.006 586.478 320.951 586.218 320.016 585.698C319.095 585.164 318.368 584.421 317.833 583.471C317.314 582.506 317.054 581.392 317.054 580.13C317.054 578.868 317.306 577.762 317.811 576.811C318.331 575.846 319.051 575.104 319.971 574.584C320.907 574.064 321.976 573.805 323.179 573.805C324.337 573.805 325.369 574.057 326.275 574.562C327.18 575.067 327.886 575.779 328.391 576.7C328.895 577.606 329.148 578.653 329.148 579.841ZM326.497 579.039C326.482 578.103 326.148 577.353 325.495 576.789C324.842 576.225 324.032 575.943 323.067 575.943C322.191 575.943 321.441 576.225 320.818 576.789C320.194 577.339 319.823 578.088 319.704 579.039H326.497Z" fill="white"/>
<path d="M399.617 570.798L395.029 586.277H392.156L388.904 574.562L385.451 586.277L382.6 586.3L378.213 570.798H380.908L384.115 583.404L387.59 570.798H390.44L393.67 583.337L396.9 570.798H399.617ZM412.959 579.841C412.959 580.301 412.929 580.717 412.87 581.088H403.493C403.567 582.068 403.931 582.855 404.584 583.449C405.238 584.043 406.039 584.34 406.99 584.34C408.356 584.34 409.321 583.768 409.885 582.625H412.625C412.254 583.753 411.578 584.681 410.598 585.409C409.633 586.121 408.43 586.478 406.99 586.478C405.817 586.478 404.762 586.218 403.827 585.698C402.906 585.164 402.179 584.421 401.644 583.471C401.125 582.506 400.865 581.392 400.865 580.13C400.865 578.868 401.117 577.762 401.622 576.811C402.142 575.846 402.862 575.104 403.782 574.584C404.718 574.064 405.787 573.805 406.99 573.805C408.148 573.805 409.18 574.057 410.086 574.562C410.991 575.067 411.697 575.779 412.202 576.7C412.706 577.606 412.959 578.653 412.959 579.841ZM410.308 579.039C410.294 578.103 409.959 577.353 409.306 576.789C408.653 576.225 407.843 575.943 406.878 575.943C406.002 575.943 405.252 576.225 404.629 576.789C404.005 577.339 403.634 578.088 403.515 579.039H410.308ZM414.611 580.086C414.611 578.853 414.864 577.762 415.368 576.811C415.888 575.861 416.586 575.126 417.462 574.606C418.353 574.072 419.34 573.805 420.424 573.805C421.226 573.805 422.013 573.983 422.785 574.339C423.572 574.681 424.196 575.141 424.656 575.72V569.795H427.218V586.277H424.656V584.429C424.24 585.023 423.661 585.513 422.919 585.899C422.191 586.285 421.352 586.478 420.402 586.478C419.333 586.478 418.353 586.211 417.462 585.676C416.586 585.127 415.888 584.369 415.368 583.404C414.864 582.424 414.611 581.318 414.611 580.086ZM424.656 580.13C424.656 579.284 424.478 578.549 424.122 577.925C423.78 577.301 423.327 576.826 422.763 576.5C422.199 576.173 421.59 576.01 420.937 576.01C420.283 576.01 419.675 576.173 419.11 576.5C418.546 576.811 418.086 577.279 417.729 577.903C417.388 578.512 417.217 579.239 417.217 580.086C417.217 580.932 417.388 581.674 417.729 582.313C418.086 582.951 418.546 583.441 419.11 583.783C419.689 584.109 420.298 584.273 420.937 584.273C421.59 584.273 422.199 584.109 422.763 583.783C423.327 583.456 423.78 582.981 424.122 582.357C424.478 581.719 424.656 580.976 424.656 580.13Z" fill="white"/>
<path d="M478.058 570.798V572.869H473.938V586.277H471.399V572.869H467.256V570.798H478.058ZM486.977 573.805C487.913 573.805 488.744 574.005 489.472 574.406C490.214 574.807 490.793 575.401 491.209 576.188C491.64 576.975 491.855 577.925 491.855 579.039V586.277H489.338V579.417C489.338 578.319 489.064 577.48 488.514 576.9C487.965 576.307 487.215 576.01 486.265 576.01C485.314 576.01 484.557 576.307 483.993 576.9C483.443 577.48 483.169 578.319 483.169 579.417V586.277H480.63V569.795H483.169V575.43C483.599 574.911 484.141 574.51 484.795 574.228C485.463 573.946 486.19 573.805 486.977 573.805ZM506.208 574.005V586.277H503.669V584.83C503.268 585.334 502.741 585.735 502.088 586.032C501.449 586.314 500.766 586.456 500.038 586.456C499.073 586.456 498.205 586.255 497.433 585.854C496.675 585.453 496.074 584.859 495.628 584.072C495.198 583.285 494.983 582.335 494.983 581.221V574.005H497.499V580.843C497.499 581.942 497.774 582.788 498.323 583.382C498.873 583.961 499.623 584.251 500.573 584.251C501.523 584.251 502.273 583.961 502.823 583.382C503.387 582.788 503.669 581.942 503.669 580.843V574.005H506.208Z" fill="white"/>
<path d="M565.763 570.798V572.869H559.193V577.435H564.316V579.506H559.193V586.277H556.654V570.798H565.763ZM570.656 575.787C571.027 575.163 571.517 574.681 572.126 574.339C572.749 573.983 573.484 573.805 574.331 573.805V576.433H573.685C572.69 576.433 571.933 576.685 571.413 577.19C570.908 577.695 570.656 578.571 570.656 579.818V586.277H568.117V574.005H570.656V575.787ZM577.956 572.379C577.496 572.379 577.11 572.223 576.798 571.911C576.486 571.6 576.33 571.214 576.33 570.753C576.33 570.293 576.486 569.907 576.798 569.595C577.11 569.283 577.496 569.127 577.956 569.127C578.402 569.127 578.78 569.283 579.092 569.595C579.404 569.907 579.56 570.293 579.56 570.753C579.56 571.214 579.404 571.6 579.092 571.911C578.78 572.223 578.402 572.379 577.956 572.379ZM579.204 574.005V586.277H576.665V574.005H579.204Z" fill="white"/>
<path d="M650.351 586.433C649.311 586.433 648.376 586.255 647.544 585.899C646.713 585.527 646.059 585.008 645.584 584.34C645.109 583.671 644.871 582.892 644.871 582.001H647.589C647.648 582.669 647.908 583.219 648.368 583.649C648.843 584.08 649.504 584.295 650.351 584.295C651.227 584.295 651.91 584.087 652.4 583.671C652.89 583.241 653.135 582.691 653.135 582.023C653.135 581.504 652.979 581.08 652.667 580.754C652.37 580.427 651.991 580.175 651.531 579.996C651.086 579.818 650.462 579.625 649.66 579.417C648.65 579.15 647.826 578.883 647.188 578.616C646.564 578.333 646.03 577.903 645.584 577.324C645.139 576.745 644.916 575.972 644.916 575.007C644.916 574.116 645.139 573.337 645.584 572.669C646.03 572 646.653 571.488 647.455 571.132C648.257 570.775 649.185 570.597 650.239 570.597C651.739 570.597 652.964 570.976 653.914 571.733C654.879 572.476 655.414 573.5 655.518 574.807H652.711C652.667 574.243 652.4 573.76 651.91 573.359C651.42 572.958 650.774 572.758 649.972 572.758C649.244 572.758 648.65 572.943 648.19 573.315C647.73 573.686 647.5 574.22 647.5 574.918C647.5 575.393 647.641 575.787 647.923 576.099C648.22 576.396 648.591 576.633 649.036 576.811C649.482 576.99 650.091 577.183 650.863 577.39C651.887 577.673 652.719 577.955 653.357 578.237C654.011 578.519 654.56 578.957 655.006 579.551C655.466 580.13 655.696 580.91 655.696 581.89C655.696 582.677 655.481 583.419 655.05 584.117C654.634 584.815 654.018 585.379 653.201 585.81C652.4 586.225 651.449 586.433 650.351 586.433ZM657.846 580.086C657.846 578.853 658.098 577.762 658.603 576.811C659.123 575.861 659.821 575.126 660.697 574.606C661.587 574.072 662.567 573.805 663.637 573.805C664.602 573.805 665.441 573.998 666.153 574.384C666.881 574.755 667.46 575.223 667.891 575.787V574.005H670.452V586.277H667.891V584.451C667.46 585.03 666.874 585.513 666.131 585.899C665.389 586.285 664.542 586.478 663.592 586.478C662.538 586.478 661.573 586.211 660.697 585.676C659.821 585.127 659.123 584.369 658.603 583.404C658.098 582.424 657.846 581.318 657.846 580.086ZM667.891 580.13C667.891 579.284 667.713 578.549 667.356 577.925C667.015 577.301 666.562 576.826 665.998 576.5C665.433 576.173 664.824 576.01 664.171 576.01C663.518 576.01 662.909 576.173 662.345 576.5C661.781 576.811 661.32 577.279 660.964 577.903C660.622 578.512 660.452 579.239 660.452 580.086C660.452 580.932 660.622 581.674 660.964 582.313C661.32 582.951 661.781 583.441 662.345 583.783C662.924 584.109 663.533 584.273 664.171 584.273C664.824 584.273 665.433 584.109 665.998 583.783C666.562 583.456 667.015 582.981 667.356 582.357C667.713 581.719 667.891 580.976 667.891 580.13ZM676.749 576.076V582.87C676.749 583.33 676.853 583.664 677.061 583.872C677.284 584.065 677.655 584.161 678.175 584.161H679.734V586.277H677.729C676.586 586.277 675.71 586.01 675.101 585.476C674.492 584.941 674.188 584.072 674.188 582.87V576.076H672.74V574.005H674.188V570.954H676.749V574.005H679.734V576.076H676.749Z" fill="white"/>
<path d="M118.771 587.754C117.732 587.754 116.796 587.575 115.965 587.219C115.133 586.848 114.48 586.328 114.005 585.66C113.529 584.992 113.292 584.212 113.292 583.321H116.009C116.068 583.989 116.328 584.539 116.789 584.969C117.264 585.4 117.925 585.615 118.771 585.615C119.647 585.615 120.33 585.407 120.82 584.992C121.31 584.561 121.555 584.012 121.555 583.344C121.555 582.824 121.399 582.401 121.087 582.074C120.79 581.747 120.412 581.495 119.951 581.317C119.506 581.139 118.882 580.946 118.08 580.738C117.071 580.47 116.247 580.203 115.608 579.936C114.985 579.654 114.45 579.223 114.005 578.644C113.559 578.065 113.336 577.293 113.336 576.328C113.336 575.437 113.559 574.657 114.005 573.989C114.45 573.321 115.074 572.809 115.875 572.452C116.677 572.096 117.605 571.918 118.66 571.918C120.159 571.918 121.384 572.296 122.335 573.054C123.3 573.796 123.834 574.82 123.938 576.127H121.132C121.087 575.563 120.82 575.08 120.33 574.679C119.84 574.279 119.194 574.078 118.392 574.078C117.665 574.078 117.071 574.264 116.61 574.635C116.15 575.006 115.92 575.541 115.92 576.239C115.92 576.714 116.061 577.107 116.343 577.419C116.64 577.716 117.011 577.954 117.457 578.132C117.902 578.31 118.511 578.503 119.283 578.711C120.308 578.993 121.139 579.275 121.778 579.557C122.431 579.839 122.98 580.277 123.426 580.871C123.886 581.45 124.116 582.23 124.116 583.21C124.116 583.997 123.901 584.739 123.47 585.437C123.055 586.135 122.439 586.699 121.622 587.13C120.82 587.546 119.87 587.754 118.771 587.754ZM138.227 575.325V587.598H135.687V586.15C135.287 586.655 134.759 587.056 134.106 587.353C133.468 587.635 132.785 587.776 132.057 587.776C131.092 587.776 130.223 587.575 129.451 587.174C128.694 586.774 128.092 586.18 127.647 585.393C127.216 584.606 127.001 583.655 127.001 582.542V575.325H129.518V582.163C129.518 583.262 129.793 584.108 130.342 584.702C130.891 585.281 131.641 585.571 132.592 585.571C133.542 585.571 134.292 585.281 134.841 584.702C135.405 584.108 135.687 583.262 135.687 582.163V575.325H138.227ZM147.769 575.125C148.734 575.125 149.595 575.325 150.352 575.726C151.124 576.127 151.726 576.721 152.156 577.508C152.587 578.295 152.802 579.245 152.802 580.359V587.598H150.285V580.738C150.285 579.639 150.011 578.8 149.461 578.221C148.912 577.627 148.162 577.33 147.212 577.33C146.261 577.33 145.504 577.627 144.94 578.221C144.391 578.8 144.116 579.639 144.116 580.738V587.598H141.577V575.325H144.116V576.729C144.532 576.224 145.059 575.83 145.697 575.548C146.351 575.266 147.041 575.125 147.769 575.125Z" fill="white"/>
<path d="M569.317 417.436C569.317 421.87 565.815 425.463 561.496 425.463C557.176 425.463 553.675 421.87 553.675 417.436C553.675 413.003 557.176 409.409 561.496 409.409C565.815 409.409 569.317 413.003 569.317 417.436Z" fill="white"/>
<path d="M447.764 209.141C447.764 212.526 445.09 215.271 441.792 215.271C438.493 215.271 435.819 212.526 435.819 209.141C435.819 205.755 438.493 203.011 441.792 203.011C445.09 203.011 447.764 205.755 447.764 209.141Z" fill="white"/>
<path d="M464.269 203.093V204.342H461.061V214.858H459.525V204.342H456.301V203.093H464.269ZM470.751 205.44C471.448 205.44 472.078 205.592 472.641 205.895C473.204 206.188 473.643 206.632 473.958 207.229C474.284 207.825 474.447 208.551 474.447 209.406V214.858H472.928V209.626C472.928 208.703 472.697 208 472.236 207.516C471.775 207.021 471.144 206.773 470.345 206.773C469.535 206.773 468.888 207.026 468.404 207.533C467.932 208.039 467.695 208.776 467.695 209.744V214.858H466.159V202.368H467.695V206.925C467.999 206.452 468.416 206.087 468.944 205.828C469.485 205.569 470.087 205.44 470.751 205.44ZM477.75 204.106C477.457 204.106 477.209 204.005 477.007 203.802C476.804 203.6 476.703 203.352 476.703 203.06C476.703 202.767 476.804 202.519 477.007 202.317C477.209 202.114 477.457 202.013 477.75 202.013C478.031 202.013 478.267 202.114 478.459 202.317C478.661 202.519 478.762 202.767 478.762 203.06C478.762 203.352 478.661 203.6 478.459 203.802C478.267 204.005 478.031 204.106 477.75 204.106ZM478.492 205.608V214.858H476.956V205.608H478.492ZM484.385 215.01C483.676 215.01 483.04 214.892 482.477 214.656C481.915 214.408 481.47 214.071 481.144 213.643C480.818 213.204 480.638 212.703 480.604 212.141H482.19C482.235 212.602 482.449 212.979 482.832 213.272C483.226 213.564 483.738 213.711 484.368 213.711C484.953 213.711 485.414 213.581 485.752 213.322C486.09 213.064 486.258 212.737 486.258 212.343C486.258 211.938 486.078 211.64 485.718 211.449C485.358 211.246 484.801 211.049 484.047 210.858C483.361 210.678 482.798 210.498 482.359 210.318C481.932 210.127 481.56 209.851 481.245 209.491C480.941 209.119 480.789 208.635 480.789 208.039C480.789 207.566 480.93 207.133 481.211 206.739C481.493 206.346 481.892 206.036 482.41 205.811C482.928 205.575 483.518 205.457 484.182 205.457C485.206 205.457 486.033 205.715 486.664 206.233C487.294 206.751 487.631 207.46 487.676 208.36H486.14C486.107 207.876 485.91 207.488 485.55 207.195C485.201 206.903 484.728 206.756 484.132 206.756C483.58 206.756 483.141 206.874 482.815 207.111C482.489 207.347 482.326 207.656 482.326 208.039C482.326 208.343 482.421 208.596 482.612 208.799C482.815 208.99 483.063 209.148 483.355 209.271C483.659 209.384 484.075 209.513 484.604 209.66C485.268 209.84 485.808 210.02 486.225 210.2C486.641 210.368 486.996 210.627 487.288 210.976C487.592 211.325 487.749 211.781 487.761 212.343C487.761 212.85 487.62 213.305 487.339 213.711C487.057 214.116 486.658 214.436 486.14 214.673C485.634 214.898 485.049 215.01 484.385 215.01ZM509.216 203.093L505.806 214.858H504.084L501.35 205.389L498.514 214.858L496.809 214.875L493.518 203.093H495.155L497.721 213.069L500.556 203.093H502.278L504.979 213.035L507.561 203.093H509.216ZM519.336 209.879C519.336 210.172 519.319 210.481 519.286 210.807H511.892C511.949 211.719 512.258 212.433 512.821 212.951C513.395 213.457 514.087 213.711 514.897 213.711C515.561 213.711 516.112 213.559 516.551 213.255C517.001 212.94 517.316 212.523 517.496 212.006H519.151C518.903 212.895 518.408 213.621 517.665 214.183C516.923 214.735 516 215.01 514.897 215.01C514.019 215.01 513.232 214.813 512.534 214.42C511.847 214.026 511.307 213.469 510.913 212.748C510.52 212.017 510.323 211.173 510.323 210.217C510.323 209.26 510.514 208.422 510.897 207.701C511.279 206.981 511.814 206.43 512.5 206.047C513.198 205.653 513.997 205.457 514.897 205.457C515.775 205.457 516.551 205.648 517.226 206.03C517.902 206.413 518.419 206.942 518.779 207.617C519.151 208.281 519.336 209.035 519.336 209.879ZM517.75 209.558C517.75 208.973 517.62 208.472 517.361 208.056C517.103 207.628 516.748 207.308 516.298 207.094C515.859 206.869 515.37 206.756 514.829 206.756C514.053 206.756 513.389 207.004 512.838 207.499C512.298 207.994 511.988 208.681 511.909 209.558H517.75ZM529.804 209.879C529.804 210.172 529.787 210.481 529.753 210.807H522.36C522.416 211.719 522.725 212.433 523.288 212.951C523.862 213.457 524.554 213.711 525.364 213.711C526.028 213.711 526.58 213.559 527.018 213.255C527.469 212.94 527.784 212.523 527.964 212.006H529.618C529.37 212.895 528.875 213.621 528.132 214.183C527.39 214.735 526.467 215.01 525.364 215.01C524.487 215.01 523.699 214.813 523.001 214.42C522.315 214.026 521.775 213.469 521.381 212.748C520.987 212.017 520.79 211.173 520.79 210.217C520.79 209.26 520.981 208.422 521.364 207.701C521.746 206.981 522.281 206.43 522.967 206.047C523.665 205.653 524.464 205.457 525.364 205.457C526.242 205.457 527.018 205.648 527.694 206.03C528.369 206.413 528.886 206.942 529.247 207.617C529.618 208.281 529.804 209.035 529.804 209.879ZM528.217 209.558C528.217 208.973 528.087 208.472 527.829 208.056C527.57 207.628 527.215 207.308 526.765 207.094C526.326 206.869 525.837 206.756 525.297 206.756C524.52 206.756 523.856 207.004 523.305 207.499C522.765 207.994 522.455 208.681 522.377 209.558H528.217ZM536.996 214.858L533.367 210.774V214.858H531.831V202.368H533.367V209.71L536.929 205.608H539.072L534.717 210.217L539.089 214.858H536.996Z" fill="white"/>
<path d="M603.38 213.609H607.498V214.858H601.844V203.093H603.38V213.609ZM608.556 210.2C608.556 209.254 608.747 208.427 609.13 207.718C609.512 206.998 610.035 206.441 610.699 206.047C611.375 205.653 612.123 205.457 612.944 205.457C613.755 205.457 614.458 205.631 615.054 205.98C615.651 206.329 616.095 206.767 616.388 207.296V205.608H617.941V214.858H616.388V213.137C616.084 213.677 615.628 214.127 615.02 214.487C614.424 214.836 613.726 215.01 612.927 215.01C612.106 215.01 611.363 214.808 610.699 214.403C610.035 213.998 609.512 213.429 609.13 212.698C608.747 211.966 608.556 211.134 608.556 210.2ZM616.388 210.217C616.388 209.519 616.247 208.911 615.966 208.394C615.684 207.876 615.302 207.482 614.818 207.212C614.345 206.931 613.822 206.79 613.248 206.79C612.674 206.79 612.151 206.925 611.678 207.195C611.206 207.465 610.829 207.859 610.547 208.377C610.266 208.894 610.125 209.502 610.125 210.2C610.125 210.909 610.266 211.528 610.547 212.056C610.829 212.574 611.206 212.974 611.678 213.255C612.151 213.525 612.674 213.66 613.248 213.66C613.822 213.66 614.345 213.525 614.818 213.255C615.302 212.974 615.684 212.574 615.966 212.056C616.247 211.528 616.388 210.914 616.388 210.217ZM623.811 215.01C623.102 215.01 622.466 214.892 621.904 214.656C621.341 214.408 620.896 214.071 620.57 213.643C620.244 213.204 620.064 212.703 620.03 212.141H621.617C621.662 212.602 621.875 212.979 622.258 213.272C622.652 213.564 623.164 213.711 623.794 213.711C624.379 213.711 624.841 213.581 625.178 213.322C625.516 213.064 625.685 212.737 625.685 212.343C625.685 211.938 625.505 211.64 625.144 211.449C624.784 211.246 624.227 211.049 623.473 210.858C622.787 210.678 622.224 210.498 621.785 210.318C621.358 210.127 620.986 209.851 620.671 209.491C620.368 209.119 620.216 208.635 620.216 208.039C620.216 207.566 620.356 207.133 620.638 206.739C620.919 206.346 621.318 206.036 621.836 205.811C622.354 205.575 622.945 205.457 623.608 205.457C624.632 205.457 625.46 205.715 626.09 206.233C626.72 206.751 627.057 207.46 627.102 208.36H625.566C625.533 207.876 625.336 207.488 624.976 207.195C624.627 206.903 624.154 206.756 623.558 206.756C623.006 206.756 622.568 206.874 622.241 207.111C621.915 207.347 621.752 207.656 621.752 208.039C621.752 208.343 621.847 208.596 622.039 208.799C622.241 208.99 622.489 209.148 622.781 209.271C623.085 209.384 623.502 209.513 624.03 209.66C624.694 209.84 625.235 210.02 625.651 210.2C626.067 210.368 626.422 210.627 626.714 210.976C627.018 211.325 627.176 211.781 627.187 212.343C627.187 212.85 627.046 213.305 626.765 213.711C626.484 214.116 626.084 214.436 625.566 214.673C625.06 214.898 624.475 215.01 623.811 215.01ZM631.229 206.874V212.326C631.229 212.777 631.325 213.097 631.516 213.289C631.707 213.469 632.039 213.559 632.512 213.559H633.643V214.858H632.259C631.403 214.858 630.762 214.661 630.334 214.268C629.907 213.874 629.693 213.227 629.693 212.326V206.874H628.494V205.608H629.693V203.279H631.229V205.608H633.643V206.874H631.229ZM654.79 203.093L651.381 214.858H649.659L646.924 205.389L644.089 214.858L642.384 214.875L639.092 203.093H640.73L643.295 213.069L646.131 203.093H647.853L650.554 213.035L653.136 203.093H654.79ZM664.911 209.879C664.911 210.172 664.894 210.481 664.86 210.807H657.467C657.523 211.719 657.833 212.433 658.395 212.951C658.969 213.457 659.661 213.711 660.472 213.711C661.136 213.711 661.687 213.559 662.126 213.255C662.576 212.94 662.891 212.523 663.071 212.006H664.725C664.478 212.895 663.983 213.621 663.24 214.183C662.497 214.735 661.574 215.01 660.472 215.01C659.594 215.01 658.806 214.813 658.109 214.42C657.422 214.026 656.882 213.469 656.488 212.748C656.094 212.017 655.897 211.173 655.897 210.217C655.897 209.26 656.089 208.422 656.471 207.701C656.854 206.981 657.388 206.43 658.075 206.047C658.772 205.653 659.571 205.457 660.472 205.457C661.349 205.457 662.126 205.648 662.801 206.03C663.476 206.413 663.994 206.942 664.354 207.617C664.725 208.281 664.911 209.035 664.911 209.879ZM663.324 209.558C663.324 208.973 663.195 208.472 662.936 208.056C662.677 207.628 662.323 207.308 661.873 207.094C661.434 206.869 660.944 206.756 660.404 206.756C659.628 206.756 658.964 207.004 658.412 207.499C657.872 207.994 657.563 208.681 657.484 209.558H663.324ZM675.378 209.879C675.378 210.172 675.361 210.481 675.328 210.807H667.934C667.991 211.719 668.3 212.433 668.863 212.951C669.437 213.457 670.129 213.711 670.939 213.711C671.603 213.711 672.154 213.559 672.593 213.255C673.043 212.94 673.358 212.523 673.538 212.006H675.193C674.945 212.895 674.45 213.621 673.707 214.183C672.964 214.735 672.042 215.01 670.939 215.01C670.061 215.01 669.273 214.813 668.576 214.42C667.889 214.026 667.349 213.469 666.955 212.748C666.562 212.017 666.365 211.173 666.365 210.217C666.365 209.26 666.556 208.422 666.938 207.701C667.321 206.981 667.856 206.43 668.542 206.047C669.24 205.653 670.039 205.457 670.939 205.457C671.817 205.457 672.593 205.648 673.268 206.03C673.943 206.413 674.461 206.942 674.821 207.617C675.193 208.281 675.378 209.035 675.378 209.879ZM673.792 209.558C673.792 208.973 673.662 208.472 673.403 208.056C673.145 207.628 672.79 207.308 672.34 207.094C671.901 206.869 671.412 206.756 670.871 206.756C670.095 206.756 669.431 207.004 668.88 207.499C668.339 207.994 668.03 208.681 667.951 209.558H673.792ZM682.571 214.858L678.942 210.774V214.858H677.406V202.368H678.942V209.71L682.503 205.608H684.647L680.292 210.217L684.664 214.858H682.571Z" fill="white"/>
<path d="M592.581 209.255C592.581 212.641 589.907 215.385 586.608 215.385C583.309 215.385 580.635 212.641 580.635 209.255C580.635 205.87 583.309 203.125 586.608 203.125C589.907 203.125 592.581 205.87 592.581 209.255Z" fill="#B7B7B7"/>
</g>
<defs>
<filter id="filter0_d_1834_17579" x="58" y="58" width="707.348" height="577.759" filterUnits="userSpaceOnUse" color-interpolation-filters="sRGB">
<feFlood flood-opacity="0" result="BackgroundImageFix"/>
<feColorMatrix in="SourceAlpha" type="matrix" values="0 0 0 0 0 0 0 0 0 0 0 0 0 0 0 0 0 0 127 0" result="hardAlpha"/>
<feOffset dx="22.9079" dy="25.3192"/>
<feGaussianBlur stdDeviation="4.21987"/>
<feComposite in2="hardAlpha" operator="out"/>
<feColorMatrix type="matrix" values="0 0 0 0 0 0 0 0 0 0 0 0 0 0 0 0 0 0 0.25 0"/>
<feBlend mode="normal" in2="BackgroundImageFix" result="effect1_dropShadow_1834_17579"/>
<feBlend mode="normal" in="SourceGraphic" in2="effect1_dropShadow_1834_17579" result="shape"/>
</filter>
<filter id="filter1_d_1834_17579" x="0.12748" y="0.12748" width="791.745" height="659.745" filterUnits="userSpaceOnUse" color-interpolation-filters="sRGB">
<feFlood flood-opacity="0" result="BackgroundImageFix"/>
<feColorMatrix in="SourceAlpha" type="matrix" values="0 0 0 0 0 0 0 0 0 0 0 0 0 0 0 0 0 0 127 0" result="hardAlpha"/>
<feOffset/>
<feGaussianBlur stdDeviation="28.9363"/>
<feComposite in2="hardAlpha" operator="out"/>
<feColorMatrix type="matrix" values="0 0 0 0 0 0 0 0 0 0 0 0 0 0 0 0 0 0 0.25 0"/>
<feBlend mode="normal" in2="BackgroundImageFix" result="effect1_dropShadow_1834_17579"/>
<feBlend mode="normal" in="SourceGraphic" in2="effect1_dropShadow_1834_17579" result="shape"/>
</filter>
<filter id="filter2_d_1834_17579" x="94.6027" y="227.17" width="607.494" height="334.822" filterUnits="userSpaceOnUse" color-interpolation-filters="sRGB">
<feFlood flood-opacity="0" result="BackgroundImageFix"/>
<feColorMatrix in="SourceAlpha" type="matrix" values="0 0 0 0 0 0 0 0 0 0 0 0 0 0 0 0 0 0 127 0" result="hardAlpha"/>
<feOffset dy="13.7063"/>
<feGaussianBlur stdDeviation="11.1364"/>
<feColorMatrix type="matrix" values="0 0 0 0 0.0456816 0 0 0 0 0.0410428 0 0 0 0 0.12686 0 0 0 0.14 0"/>
<feBlend mode="normal" in2="BackgroundImageFix" result="effect1_dropShadow_1834_17579"/>
<feBlend mode="normal" in="SourceGraphic" in2="effect1_dropShadow_1834_17579" result="shape"/>
</filter>
<filter id="filter3_d_1834_17579" x="94.8244" y="211.201" width="606.4" height="349.37" filterUnits="userSpaceOnUse" color-interpolation-filters="sRGB">
<feFlood flood-opacity="0" result="BackgroundImageFix"/>
<feColorMatrix in="SourceAlpha" type="matrix" values="0 0 0 0 0 0 0 0 0 0 0 0 0 0 0 0 0 0 127 0" result="hardAlpha"/>
<feOffset dy="13.7063"/>
<feGaussianBlur stdDeviation="11.1364"/>
<feColorMatrix type="matrix" values="0 0 0 0 0.0456816 0 0 0 0 0.0410428 0 0 0 0 0.12686 0 0 0 0.14 0"/>
<feBlend mode="normal" in2="BackgroundImageFix" result="effect1_dropShadow_1834_17579"/>
<feBlend mode="normal" in="SourceGraphic" in2="effect1_dropShadow_1834_17579" result="shape"/>
</filter>
</defs>
</svg>
