<svg width="66" height="67" viewBox="0 0 66 67" fill="none" xmlns="http://www.w3.org/2000/svg">
<path d="M28.8384 16.1223C22.6474 17.5658 17.6638 22.4754 16.1419 28.6302C14.6153 34.8047 16.3625 41.0983 20.8159 45.4655C22.3912 47.0104 23.3318 49.4866 23.3318 52.0893V52.5048C23.3318 54.2187 24.0796 55.761 25.2654 56.8238V60.2392C25.2654 63.4377 27.8676 66.0399 31.0662 66.0399H34.9334C38.1319 66.0399 40.7341 63.4377 40.7341 60.2392V56.8238C41.92 55.761 42.6677 54.2188 42.6677 52.5048V52.0817C42.6677 49.5185 43.6586 46.9953 45.3184 45.3321C48.5967 42.0466 50.4021 37.6812 50.4021 33.0399C50.4021 21.9438 40.1194 13.4929 28.8384 16.1223ZM36.867 60.2392C36.867 61.3053 35.9995 62.1728 34.9334 62.1728H31.0662C30 62.1728 29.1326 61.3053 29.1326 60.2392V58.3056H36.867V60.2392ZM42.5809 42.6004C40.1784 45.008 38.8006 48.4637 38.8006 52.0817V52.5048C38.8006 53.571 37.9331 54.4384 36.867 54.4384H29.1326C28.0664 54.4384 27.199 53.571 27.199 52.5048V52.0893C27.199 48.4156 25.8593 44.995 23.5235 42.7044C20.0572 39.3052 18.7012 34.3909 19.8959 29.5584C21.0722 24.8009 24.927 21.0051 29.7165 19.8885C38.5688 17.8244 46.5349 24.4326 46.5349 33.0399C46.5349 36.6498 45.1306 40.0451 42.5809 42.6004Z" fill="#02F6AD"/>
<path d="M17.9599 15.2658L12.4908 9.79682C11.7358 9.04169 10.5114 9.04169 9.75629 9.79682C9.00116 10.552 9.00116 11.7762 9.75629 12.5313L15.2254 18.0003C15.9804 18.7554 17.2049 18.7554 17.9599 18.0003C18.715 17.2451 18.715 16.0209 17.9599 15.2658Z" fill="#02F6AD"/>
<path d="M9.79688 31.1064H1.93359C0.865734 31.1064 0 31.9722 0 33.04C0 34.1079 0.865734 34.9736 1.93359 34.9736H9.79688C10.8647 34.9736 11.7305 34.1079 11.7305 33.04C11.7305 31.9722 10.8647 31.1064 9.79688 31.1064Z" fill="#02F6AD"/>
<path d="M64.0664 31.1064H56.2031C55.1353 31.1064 54.2695 31.9722 54.2695 33.04C54.2695 34.1079 55.1353 34.9736 56.2031 34.9736H64.0664C65.1343 34.9736 66 34.1079 66 33.04C66 31.9722 65.1343 31.1064 64.0664 31.1064Z" fill="#02F6AD"/>
<path d="M56.2436 9.79682C55.4887 9.04169 54.2643 9.04169 53.5091 9.79682L48.04 15.2658C47.2848 16.0208 47.2848 17.2451 48.04 18.0003C48.795 18.7554 50.0193 18.7554 50.7745 18.0003L56.2436 12.5313C56.9987 11.7763 56.9987 10.552 56.2436 9.79682Z" fill="#02F6AD"/>
<path d="M33 0.0400391C31.9321 0.0400391 31.0664 0.905773 31.0664 1.97363V9.83691C31.0664 10.9048 31.9321 11.7705 33 11.7705C34.0679 11.7705 34.9336 10.9048 34.9336 9.83691V1.97363C34.9336 0.905773 34.0679 0.0400391 33 0.0400391Z" fill="#02F6AD"/>
<path d="M33.0001 23.3721C32.2052 23.3721 31.3956 23.4673 30.5949 23.6549C27.2608 24.4331 24.4696 27.1776 23.6496 30.4842C23.3926 31.5208 24.0243 32.5693 25.0607 32.8264C26.0974 33.0835 27.1459 32.4515 27.403 31.4152C27.8749 29.5128 29.5489 27.8703 31.4755 27.4205C31.9888 27.3002 32.5018 27.2393 33.0001 27.2393C34.0679 27.2393 34.9337 26.3735 34.9337 25.3057C34.9337 24.2378 34.0679 23.3721 33.0001 23.3721Z" fill="#02F6AD"/>
</svg>
