<svg width="66" height="67" viewBox="0 0 66 67" fill="none" xmlns="http://www.w3.org/2000/svg">
<path d="M53.3984 32.3111C53.7998 31.9765 54.0337 31.7775 54.2711 31.5869C55.1352 30.9219 55.841 29.9944 56.3186 28.8964C56.7962 27.7984 57.0289 26.568 56.9939 25.3273C56.9939 21.2361 57.0392 17.1406 56.9939 13.0452C56.938 9.15303 54.5713 6.29427 51.3668 6.08674C50.7559 6.04439 50.145 5.9851 49.5306 5.93004C49.4852 5.32441 49.4574 4.97712 49.4329 4.6256C49.2584 2.15224 48.3857 1.0892 46.3575 0.953677C45.9526 0.928265 45.5442 0.953677 45.1358 0.953677C31.5242 0.953677 17.9103 0.953677 4.29402 0.953677C3.82626 0.953677 3.36199 0.932501 2.89772 0.953677C1.04064 1.12308 0.0143509 2.34282 0.0108601 4.62136C-0.0135751 17.327 0.0108601 30.0326 0.0108601 42.7382C0.0108601 44.1273 0.391352 45.3174 1.40716 45.9146C2.14298 46.3046 2.93968 46.4968 3.74249 46.4779C12.0609 46.516 20.3794 46.4991 28.6979 46.5033H30.6841V56.4137C29.9336 56.4137 29.2878 56.4137 28.6699 56.4137C26.1706 56.4137 23.6642 56.3459 21.1683 56.4941C18.3478 56.6635 16.379 58.5228 15.2934 61.6357C14.7349 63.2451 14.3858 64.9645 15.0944 66.7857C15.5901 66.845 16.0439 66.9381 16.4907 66.9424C23.7049 66.9424 30.9191 66.9424 38.1334 66.9424C38.6385 66.9037 39.1403 66.8173 39.6344 66.684C39.767 66.3537 39.8159 66.2902 39.8159 66.2266C39.8543 59.3868 39.9031 52.5469 39.8962 45.7071C39.8962 45.2031 39.5017 44.7033 39.3132 44.2459C38.0286 44.5466 38.1089 45.5165 38.1089 46.4355V64.5453C35.798 65.0196 17.8067 64.8925 16.6024 64.4351C16.9724 60.742 18.7807 58.6837 21.9468 58.5779C24.7952 58.4804 27.6472 58.5779 30.4956 58.5355C31.1983 58.4731 31.8976 58.3628 32.59 58.2052V40.2098C32.7248 40.0531 32.8708 39.9113 33.0264 39.7863C36.5171 38.0752 40.0184 36.3684 43.53 34.6659C48.7906 32.1248 48.1309 32.0782 53.4333 34.6659C57.0358 36.415 60.6312 38.1854 64.3209 39.9938V64.1853C64.3017 64.6794 64.3087 65.1745 64.3419 65.6676C64.4745 66.9381 64.8131 67.0694 66 66.4172V38.4649L53.3984 32.3111ZM36.4753 35.7755L35.6026 36.199V36.1609L33.6477 37.0291L30.8237 38.6936V44.1993C30.1919 44.2544 29.6927 44.3349 29.1901 44.3349C20.8123 44.3349 12.4345 44.3349 4.05667 44.3349C1.88891 44.3349 1.80511 44.229 1.80511 41.565C1.80511 29.7065 1.80511 17.8479 1.80511 5.98933C1.80511 5.227 1.85398 4.46466 1.88889 3.49056C2.51838 3.31374 3.15774 3.19341 3.80181 3.13057C17.7648 3.10798 31.7278 3.10798 45.6908 3.13057C46.2958 3.18316 46.8974 3.28218 47.492 3.42704C47.5549 4.30796 47.6072 5.04065 47.6806 6.09945C46.6333 6.09945 45.7816 6.0571 44.9298 6.09945C41.9103 6.28156 39.5576 8.83116 39.4354 12.4523C39.2818 17.0305 39.3307 21.6257 39.4354 26.2082C39.4913 29.1728 41.0446 31.0152 43.345 32.4212L36.4753 35.7755ZM45.3592 30.5705C42.7202 30.418 41.1703 28.5545 41.104 25.3315C41.0167 21.3928 41.0202 17.4456 41.104 13.5068C41.1703 10.1525 42.7376 8.3187 45.4779 8.22552C47.2721 8.16623 49.0734 8.16623 50.8711 8.22552C53.6148 8.3187 55.1543 10.2203 55.1996 13.5322C55.2276 15.5016 55.1996 17.471 55.1996 19.4615C55.1996 21.3631 55.2206 23.2732 55.1996 25.1621C55.1578 28.4698 53.6497 30.4392 50.9374 30.5874C49.0768 30.6763 47.2128 30.6763 45.3592 30.5705Z" fill="#02F6AD"/>
<path d="M29.7346 19.5291C29.7346 18.4745 29.7939 17.4115 29.7346 16.3569C29.6891 15.2125 29.2844 14.1326 28.6035 13.3387C27.9226 12.5449 27.0171 12.0973 26.0728 12.0878C25.2036 12.037 24.3274 12.0412 23.4582 12.0878C21.3219 12.1937 19.8488 13.8539 19.7196 16.4585C19.6254 18.3598 19.6254 20.2663 19.7196 22.1676C19.8523 24.7553 21.3184 26.4282 23.4547 26.5722C24.3254 26.6379 25.1986 26.6379 26.0693 26.5722C28.1812 26.4028 29.5984 24.6537 29.7346 22.0744C29.7799 21.2274 29.7346 20.3803 29.7346 19.5333V19.5291ZM27.9508 21.6467C27.9504 22.0669 27.8902 22.4838 27.7728 22.8791C27.2666 24.3572 25.6399 24.8654 23.2348 24.3403C22.1352 24.1031 21.5278 23.2306 21.4894 21.617C21.4405 20.0669 21.4336 18.5126 21.4894 16.9583C21.5592 15.1202 22.2643 14.3282 23.7968 14.2647C24.4949 14.2351 25.1931 14.2266 25.8912 14.2647C27.2317 14.3536 27.8845 15.1118 27.9857 16.7677C28.0346 17.6148 27.9857 18.4618 27.9857 19.3088C27.9578 20.1051 27.9787 20.8843 27.9508 21.6594V21.6467Z" fill="#02F6AD"/>
<path d="M35.6024 36.1656L33.6475 37.0338L33.7453 36.9787V33.1924L29.1095 29.9694C28.1601 31.7694 27.256 33.4847 26.3484 35.1957C24.8509 38.029 24.5681 38.0333 23.0985 35.2338C22.1676 33.4748 21.2438 31.7129 20.3269 29.9483L15.5864 33.2814V44.3638H14.019V31.8245L20.8854 27.1064L24.7217 34.1115C26.2297 31.8329 27.0396 29.1944 28.7535 27.2293C30.848 28.6735 32.8412 29.9694 34.7506 31.4306C35.187 31.7609 35.4488 32.6164 35.5814 33.2941C35.7071 34.1369 35.6059 35.0348 35.6024 36.1656Z" fill="#02F6AD"/>
</svg>
