<svg width="69" height="68" viewBox="0 0 69 68" fill="none" xmlns="http://www.w3.org/2000/svg">
<path d="M39.3032 2.34316C54.6936 2.34316 67.2143 14.5196 67.2143 29.4868" stroke="#02F6AD" stroke-width="3"/>
<path d="M39.3032 10.098C50.2957 10.098 59.2401 18.7966 59.2401 29.4868" stroke="#02F6AD" stroke-width="3"/>
<path d="M39.3032 17.8544C45.8991 17.8544 51.2646 23.0724 51.2646 29.4868" stroke="#02F6AD" stroke-width="3"/>
<path d="M39.3032 25.6093C41.5049 25.6093 43.2903 27.3458 43.2903 29.4868" stroke="#02F6AD" stroke-width="3"/>
<path d="M24.1907 42.6982C24.1341 42.6982 24.0162 42.7536 24.0162 42.9092C24.0162 43.0648 24.134 43.1201 24.1907 43.1201C24.2475 43.1201 24.3652 43.0649 24.3652 42.9092C24.3652 42.7535 24.2474 42.6982 24.1907 42.6982Z" stroke="#02F6AD" stroke-width="3"/>
<path d="M20.3178 38.5009C19.4769 37.4267 18.68 36.3175 17.9295 35.1754C16.9434 33.6737 17.2417 31.6847 18.5366 30.4253L23.0368 26.0488C24.0056 25.1079 24.0056 23.5804 23.0368 22.6392L12.4459 12.3397C11.4783 11.3973 9.90767 11.3973 8.94005 12.3397L6.25976 14.9461C1.90959 19.1757 0.733868 25.6311 3.4644 30.9911C8.32237 40.5288 18.3193 55.1494 37.5789 64.334C43.1075 66.9689 49.7761 65.8513 54.1291 61.618L56.8702 58.9521C57.839 58.0112 57.839 56.4837 56.8702 55.5413L46.2793 45.2431C45.3117 44.3006 43.7411 44.3006 42.7735 45.2431L38.2734 49.6194C36.9783 50.8787 34.9332 51.1688 33.3888 50.2098C31.7183 49.1715 30.1151 48.0414 28.5868 46.826" stroke="#02F6AD" stroke-width="3"/>
</svg>
