<svg width="66" height="67" viewBox="0 0 66 67" fill="none" xmlns="http://www.w3.org/2000/svg">
<path d="M32.8846 9.32902C33.6016 9.32902 34.1829 8.74779 34.1829 8.03081V2.2406C34.1829 1.52362 33.6016 0.942383 32.8846 0.942383C32.1677 0.942383 31.5864 1.52362 31.5864 2.2406V8.03081C31.5866 8.74779 32.1678 9.32902 32.8846 9.32902Z" fill="#02F6AD"/>
<path d="M64.6181 45.5418L62.3247 43.2548C61.5089 42.44 60.4216 41.9912 59.263 41.9912C58.5221 41.9912 57.811 42.1755 57.1807 42.5209L52.859 38.2043L53.0695 37.9941C54.8228 36.2373 54.8221 33.3827 53.0694 31.6319C52.4431 31.0044 51.6615 30.5859 50.8095 30.4099C50.9269 30.005 50.9886 29.5809 50.9886 29.1468C50.9886 27.9409 50.5202 26.8101 49.6722 25.9657C49.0457 25.3382 48.2643 24.9197 47.4124 24.7436C47.5297 24.3388 47.5914 23.9148 47.5914 23.4806C47.5914 22.2746 47.123 21.1439 46.2736 20.2982C45.6322 19.6575 44.8436 19.252 44.0157 19.0794C44.4586 17.5522 44.0801 15.834 42.8787 14.6306C41.8787 13.6348 40.5217 13.2068 39.2139 13.3455L30.65 11.7245C29.344 11.4767 27.7129 11.3129 26.6833 12.252C26.6184 12.3113 26.5521 12.3795 26.4869 12.4554C24.8905 11.8735 23.0286 12.22 21.7502 13.497C20.9021 14.344 20.435 15.4743 20.435 16.6795C20.435 17.1137 20.4965 17.5377 20.6136 17.9427C19.7626 18.1186 18.9821 18.5366 18.3578 19.162C17.508 20.0083 17.0395 21.1372 17.0386 22.3411C17.0382 22.7763 17.0999 23.2017 17.2177 23.6077C16.3663 23.7833 15.5853 24.2004 14.959 24.8259C14.1093 25.6747 13.6414 26.8056 13.6414 28.0103C13.6414 28.933 13.9168 29.812 14.4273 30.5545C13.7828 30.773 13.1924 31.1366 12.698 31.6305C10.9436 33.3827 10.943 36.2374 12.6992 37.9968L12.9089 38.2056L8.5867 42.52C6.98039 41.7637 5.0013 42.047 3.67575 43.3709L1.38096 45.6592C0.564731 46.4744 0.115363 47.5619 0.115234 48.7211C0.115234 49.8805 0.564731 50.9681 1.38096 51.7834L4.24487 54.6438C4.75212 55.1506 5.57416 55.1501 6.08076 54.6428C6.58749 54.1356 6.58697 53.3135 6.07973 52.8069L3.21582 49.9465C2.89072 49.6218 2.71166 49.1866 2.71166 48.7212C2.71166 48.256 2.89071 47.821 3.21504 47.497L5.50996 45.2085C6.08334 44.6358 6.96093 44.5505 7.62737 44.9489C7.6743 45.0194 7.72857 45.0865 7.7907 45.1487C7.90195 45.2602 8.02892 45.3457 8.16375 45.4082L21.3242 58.5493C21.3867 58.6856 21.4726 58.8138 21.5846 58.926C21.6936 59.0352 21.818 59.1196 21.95 59.1817C22.2283 59.4964 22.3821 59.8983 22.3821 60.3271C22.3821 60.7924 22.2031 61.2275 21.878 61.5522L19.5854 63.8421C18.908 64.5165 17.8061 64.5164 17.1307 63.8441L14.2668 60.98C13.7598 60.473 12.9379 60.473 12.4309 60.98C11.9239 61.487 11.9239 62.3089 12.4309 62.8159L15.2969 65.6821C16.1405 66.5222 17.2483 66.942 18.3566 66.942C19.4652 66.942 20.5743 66.5215 21.4189 65.6807L23.7129 63.3894C24.5292 62.574 24.9787 61.4866 24.9787 60.3271C24.9787 59.4996 24.7486 58.7094 24.3207 58.028L29.1851 53.1695C29.1903 53.1643 29.1955 53.159 29.2007 53.1537C29.7577 52.5779 31.3089 52.6856 32.809 52.7898C33.8748 52.8639 35.063 52.9463 36.2239 52.8125L41.5509 58.1331C41.2058 58.7623 41.0216 59.4725 41.0216 60.2122C41.0216 61.3704 41.4711 62.4572 42.2873 63.2726L44.5814 65.5639C45.3972 66.3787 46.4845 66.8275 47.6431 66.8275C48.8016 66.8275 49.8889 66.3788 50.7048 65.5639L64.619 51.6665C65.4352 50.8513 65.8848 49.7638 65.8848 48.6045C65.8846 47.4452 65.4351 46.3577 64.6181 45.5418ZM30.1666 14.2756L35.7982 15.3415L32.4274 18.711C31.906 18.4604 31.1913 17.993 30.4073 17.243C29.3342 16.2164 28.5665 15.0311 28.4967 14.2918C28.4965 14.2914 28.4965 14.291 28.4965 14.2906C28.4965 14.2905 28.4964 14.2904 28.4964 14.2903C28.4914 14.2371 28.4901 14.1947 28.4907 14.1624C28.6605 14.1211 29.1114 14.0754 30.1666 14.2756ZM23.5849 15.334C24.2426 14.677 25.2643 14.6012 26.0075 15.1044C26.4286 16.8702 27.9349 18.4706 28.6125 19.119C29.1148 19.5995 30.7262 21.0403 32.3528 21.4363C32.5728 21.7517 32.6926 22.1278 32.6926 22.5245C32.6926 23.0356 32.496 23.5135 32.1377 23.8713C31.7805 24.2292 31.3019 24.4262 30.7899 24.4262C30.2778 24.4262 29.7991 24.2292 29.4402 23.8697L29.4401 23.8695L29.4395 23.8689L23.5848 18.0248C23.2279 17.6684 23.0313 17.1905 23.0313 16.6795C23.0314 16.1684 23.228 15.6906 23.5849 15.334ZM20.1926 20.9991C20.5498 20.6413 21.028 20.4442 21.5392 20.4442C22.0511 20.4442 22.5307 20.6417 22.8903 21.0009L27.6046 25.7058C28.347 26.4493 28.347 27.6593 27.6072 28.4002C27.2481 28.7579 26.7678 28.9549 26.2548 28.9549C25.7419 28.9549 25.2616 28.7579 24.904 28.4018L24.9039 28.4016L21.3274 24.8259C21.3219 24.8203 21.3158 24.8152 21.3101 24.8095L20.1912 23.6911C19.8322 23.3325 19.6346 22.8538 19.635 22.343C19.6355 21.834 19.8325 21.3577 20.1926 20.9991ZM16.7939 26.6629C17.1514 26.306 17.6305 26.1094 18.1433 26.1094C18.6518 26.1094 19.1268 26.3032 19.4828 26.6539L23.0702 30.2397C23.4279 30.596 23.625 31.0733 23.625 31.5838C23.625 32.0941 23.4279 32.5715 23.0688 32.9292C22.7115 33.286 22.2328 33.4826 21.721 33.4826C21.2083 33.4826 20.7281 33.2855 20.3703 32.9292L19.0697 31.6302C19.0695 31.6298 19.0691 31.6296 19.0688 31.6293L16.794 29.3572C16.4354 28.999 16.2379 28.5205 16.2379 28.01C16.2379 27.4997 16.4354 27.021 16.7939 26.6629ZM14.5329 33.4674C14.8919 33.1088 15.3717 32.9113 15.8838 32.9113C16.3958 32.9113 16.8755 33.1086 17.2344 33.467L18.5367 34.7678C18.8946 35.1241 19.0915 35.6014 19.0915 36.1119C19.0915 36.6224 18.8944 37.0996 18.534 37.4587C18.1768 37.8164 17.6982 38.0135 17.1862 38.0135C16.674 38.0135 16.1954 37.8165 15.8356 37.4561L15.6725 37.2937C15.6704 37.2915 15.6687 37.2892 15.6666 37.2871C15.6642 37.2848 15.6616 37.2827 15.6591 37.2804L14.5342 36.1598C13.7918 35.4159 13.7912 34.2082 14.5329 33.4674ZM40.9888 48.2217C40.4821 47.7144 39.6601 47.714 39.1529 48.2206L37.9979 49.3742C36.9004 50.4717 34.9118 50.3335 32.9886 50.2001C30.9002 50.0549 28.7407 49.9051 27.3432 51.3398L22.5614 56.1158L10.6037 44.1756L14.8354 39.9515C15.5349 40.3802 16.342 40.6101 17.1864 40.6101C18.3929 40.6101 19.5241 40.1424 20.3691 39.2959C21.2198 38.4487 21.6883 37.3181 21.6883 36.112C21.6883 36.1008 21.6876 36.0897 21.6876 36.0785C21.6988 36.0786 21.71 36.0793 21.7212 36.0793C22.926 36.0793 24.0563 35.613 24.9025 34.7679C25.7531 33.9207 26.2217 32.79 26.2217 31.5841C26.2217 31.5728 26.2209 31.5618 26.2209 31.5505C26.2323 31.5505 26.2436 31.5513 26.2551 31.5513C27.4595 31.5513 28.5905 31.0856 29.4423 30.2372C30.3266 29.3515 30.764 28.1854 30.7556 27.0218C30.7672 27.0219 30.7788 27.0226 30.7904 27.0226C31.9968 27.0225 33.128 26.5549 33.9743 25.7071C34.8223 24.8601 35.2895 23.7298 35.2895 22.5245C35.2895 21.6816 35.0603 20.8758 34.633 20.1778L38.342 16.4703C38.6184 16.1951 38.9592 16.0224 39.3164 15.9511C39.3551 15.947 39.3932 15.9408 39.431 15.9333C40.0041 15.8543 40.606 16.0311 41.0443 16.4676C41.7866 17.2113 41.7866 18.4212 41.047 19.1621L39.9174 20.2871C39.9136 20.2908 39.9096 20.2942 39.9059 20.2979L38.6048 21.5968C38.0975 22.1034 38.0969 22.9254 38.6037 23.4327C39.1105 23.94 39.9324 23.9404 40.4396 23.4338L41.5737 22.3013C41.5739 22.301 41.5742 22.3007 41.5744 22.3005L41.7459 22.1297C42.4903 21.3921 43.6964 21.3936 44.44 22.1363C44.7979 22.4926 44.995 22.9699 44.995 23.4804C44.995 23.9907 44.7979 24.468 44.4372 24.8272L43.3011 25.9656C43.301 25.9657 43.3009 25.9658 43.3008 25.9661L41.9998 27.2617C41.4918 27.7677 41.4901 28.5897 41.9961 29.0976C42.5021 29.6056 43.324 29.6072 43.832 29.1013L45.1388 27.7998C45.496 27.4419 45.9747 27.2449 46.4867 27.2449C46.9988 27.2449 47.4776 27.4419 47.8374 27.8023C48.1952 28.1588 48.3922 28.6361 48.3922 29.1466C48.3922 29.6569 48.1952 30.1343 47.8353 30.4926L45.5704 32.7584C45.0636 33.2655 45.0637 34.0874 45.5707 34.5943C45.8242 34.8477 46.1563 34.9743 46.4885 34.9743C46.8208 34.9743 47.1531 34.8475 47.4066 34.5939L48.5166 33.4835C48.5229 33.4774 48.5297 33.4721 48.536 33.4658C48.8932 33.108 49.3719 32.911 49.8839 32.911C50.396 32.911 50.8746 33.108 51.2331 33.4671C51.9747 34.2079 51.9741 35.4158 51.2331 36.158L50.1046 37.2853C50.1042 37.2857 50.1037 37.2861 50.1033 37.2865C50.1029 37.2869 50.1025 37.2874 50.1021 37.2878L48.3108 39.0769C47.8036 39.5836 47.8031 40.4056 48.3097 40.9129C48.5632 41.1667 48.8958 41.2937 49.2283 41.2937C49.5602 41.2937 49.8923 41.1671 50.1457 40.914L51.0219 40.0389L55.2212 44.2334L43.2645 56.1755L38.9805 51.8966C39.2791 51.7045 39.5649 51.4787 39.8332 51.2104L40.9875 50.0575C41.495 49.551 41.4956 48.729 40.9888 48.2217ZM62.784 49.8295L48.8698 63.7268C48.5443 64.0519 48.1086 64.231 47.643 64.231C47.1774 64.231 46.7417 64.0519 46.416 63.7267L44.1219 61.4354C43.7968 61.1108 43.6177 60.6764 43.6177 60.2122C43.6177 59.7481 43.7968 59.3137 44.1219 58.989L58.0362 45.0916C58.3618 44.7664 58.7974 44.5873 59.2631 44.5873C59.7287 44.5873 60.1644 44.7664 60.4908 45.0924L62.7842 47.3793C63.1093 47.704 63.2883 48.139 63.2883 48.6043C63.2882 49.0698 63.1091 49.5049 62.784 49.8295Z" fill="#02F6AD"/>
<path d="M15.6464 8.23478C15.8998 8.4877 16.2316 8.61402 16.5635 8.61402C16.896 8.61402 17.2287 8.48692 17.4823 8.23285C17.9888 7.72535 17.988 6.90344 17.4805 6.39697L12.7499 1.67577C12.2425 1.1693 11.4205 1.16995 10.914 1.67758C10.4075 2.18508 10.4083 3.00699 10.9158 3.51346L15.6464 8.23478Z" fill="#02F6AD"/>
<path d="M49.2064 8.61398C49.5383 8.61398 49.8704 8.48739 50.1238 8.23435L54.8508 3.51303C55.3581 3.00642 55.3586 2.18439 54.8518 1.67714C54.3452 1.1699 53.5233 1.16938 53.016 1.67611L48.289 6.39743C47.7817 6.90403 47.7812 7.72607 48.2879 8.23332C48.5415 8.48713 48.8739 8.61398 49.2064 8.61398Z" fill="#02F6AD"/>
<path d="M8.09752 56.7851C7.59492 57.2963 7.60188 58.1184 8.11325 58.621L8.11699 58.6246C8.36926 58.8726 8.69681 58.9961 9.02423 58.9961C9.36029 58.9961 9.69635 58.866 9.95094 58.607C10.4535 58.0958 10.4446 57.272 9.93341 56.7693C9.42229 56.2667 8.60039 56.2738 8.09752 56.7851Z" fill="#02F6AD"/>
<path d="M44.1638 46.3517C44.3613 46.3517 44.5616 46.3068 44.7497 46.212C45.3898 45.8891 45.647 45.1084 45.3242 44.4683C45.0013 43.8282 44.2205 43.5709 43.5805 43.8938L43.5733 43.8974C42.9331 44.2203 42.6796 44.9991 43.0024 45.6393C43.2303 46.0915 43.6887 46.3517 44.1638 46.3517Z" fill="#02F6AD"/>
</svg>
