<svg width="17" height="13" viewBox="0 0 17 13" fill="none" xmlns="http://www.w3.org/2000/svg">
<path fill-rule="evenodd" clip-rule="evenodd" d="M8.70399 12.3373C13.0087 12.3528 16.5082 9.61778 16.5203 6.22861C16.5324 2.83943 13.0526 0.0794627 8.74794 0.0640464C4.44325 0.0486302 0.943774 2.7836 0.931636 6.17278C0.919499 9.56196 4.3993 12.3219 8.70399 12.3373ZM12.3413 5.22187C12.7229 4.92367 12.7246 4.43799 12.3452 4.13706C11.9658 3.83613 11.3489 3.83392 10.9674 4.13212L7.75007 6.64655L6.49396 5.65029C6.11455 5.34936 5.49766 5.34715 5.11611 5.64535C4.73455 5.94355 4.73281 6.42924 5.11222 6.73017L7.05531 8.27131C7.43472 8.57223 8.05161 8.57444 8.43317 8.27624L12.3413 5.22187Z" fill="#71717A"/>
</svg>
